Primae-Uc Light.ufo
<glyph name="dollar" format="2">
	<unicode hex="0024"/>
	<advance width="1200"/>
	<outline>
		<contour>
			<point x="504" y="-11" type="curve" smooth="yes"/>
			<point x="763" y="-11"/>
			<point x="974" y="134"/>
			<point x="974" y="370" type="curve" smooth="yes"/>
			<point x="974" y="524"/>
			<point x="907" y="625"/>
			<point x="644" y="765" type="curve"/>
			<point x="601" y="778" type="line"/>
			<point x="400" y="867"/>
			<point x="344" y="952"/>
			<point x="344" y="1090" type="curve" smooth="yes"/>
			<point x="344" y="1245"/>
			<point x="492" y="1358"/>
			<point x="688" y="1358" type="curve" smooth="yes"/>
			<point x="785" y="1358"/>
			<point x="855" y="1340"/>
			<point x="922" y="1316" type="curve" smooth="yes"/>
			<point x="947" y="1307"/>
			<point x="960" y="1303"/>
			<point x="968" y="1303" type="curve" smooth="yes"/>
			<point x="988" y="1303"/>
			<point x="1001" y="1322"/>
			<point x="1001" y="1341" type="curve" smooth="yes"/>
			<point x="1001" y="1356"/>
			<point x="978" y="1376"/>
			<point x="918" y="1398" type="curve" smooth="yes"/>
			<point x="858" y="1420"/>
			<point x="781" y="1438"/>
			<point x="699" y="1438" type="curve" smooth="yes"/>
			<point x="440" y="1438"/>
			<point x="264" y="1285"/>
			<point x="264" y="1083" type="curve" smooth="yes"/>
			<point x="264" y="915"/>
			<point x="331" y="812"/>
			<point x="585" y="687" type="curve"/>
			<point x="632" y="672" type="line"/>
			<point x="841" y="568"/>
			<point x="894" y="493"/>
			<point x="894" y="357" type="curve" smooth="yes"/>
			<point x="894" y="178"/>
			<point x="718" y="69"/>
			<point x="513" y="69" type="curve" smooth="yes"/>
			<point x="424" y="69"/>
			<point x="323" y="83"/>
			<point x="257" y="104" type="curve" smooth="yes"/>
			<point x="232" y="112"/>
			<point x="212" y="117"/>
			<point x="198" y="117" type="curve" smooth="yes"/>
			<point x="178" y="117"/>
			<point x="165" y="99"/>
			<point x="165" y="79" type="curve" smooth="yes"/>
			<point x="165" y="65"/>
			<point x="175" y="52"/>
			<point x="204" y="40" type="curve" smooth="yes"/>
			<point x="269" y="13"/>
			<point x="386" y="-11"/>
		</contour>
		<contour>
			<point x="493" y="-183" type="curve" smooth="yes"/>
			<point x="508" y="-183"/>
			<point x="523" y="-173"/>
			<point x="525" y="-160" type="curve" smooth="yes"/>
			<point x="772" y="1557" type="line" smooth="yes"/>
			<point x="774" y="1570"/>
			<point x="775" y="1576"/>
			<point x="775" y="1582" type="curve" smooth="yes"/>
			<point x="775" y="1596"/>
			<point x="761" y="1610"/>
			<point x="734" y="1610" type="curve" smooth="yes"/>
			<point x="715" y="1610"/>
			<point x="701" y="1600"/>
			<point x="699" y="1583" type="curve" smooth="yes"/>
			<point x="453" y="-123" type="line" smooth="yes"/>
			<point x="451" y="-136"/>
			<point x="450" y="-141"/>
			<point x="450" y="-149" type="curve" smooth="yes"/>
			<point x="450" y="-167"/>
			<point x="461" y="-183"/>
		</contour>
	</outline>
</glyph>
<glyph name="ampersand" format="2">
	<unicode hex="0026"/>
	<advance width="1483"/>
	<outline>
		<contour>
			<point x="1297" y="-48" type="curve" smooth="yes"/>
			<point x="1318" y="-48"/>
			<point x="1333" y="-28"/>
			<point x="1333" y="-11" type="curve" smooth="yes"/>
			<point x="1333" y="3"/>
			<point x="1325" y="18"/>
			<point x="1303" y="41" type="curve" smooth="yes"/>
			<point x="668" y="705" type="line" smooth="yes"/>
			<point x="492" y="889"/>
			<point x="428" y="973"/>
			<point x="428" y="1102" type="curve" smooth="yes"/>
			<point x="428" y="1263"/>
			<point x="559" y="1348"/>
			<point x="706" y="1348" type="curve" smooth="yes"/>
			<point x="841" y="1348"/>
			<point x="939" y="1263"/>
			<point x="939" y="1135" type="curve" smooth="yes"/>
			<point x="939" y="1017"/>
			<point x="864" y="914"/>
			<point x="564" y="765" type="curve" smooth="yes"/>
			<point x="274" y="621"/>
			<point x="210" y="450"/>
			<point x="210" y="307" type="curve" smooth="yes"/>
			<point x="210" y="115"/>
			<point x="349" y="-11"/>
			<point x="566" y="-11" type="curve" smooth="yes"/>
			<point x="817" y="-11"/>
			<point x="1019" y="133"/>
			<point x="1240" y="399" type="curve" smooth="yes"/>
			<point x="1265" y="429"/>
			<point x="1271" y="442"/>
			<point x="1271" y="451" type="curve" smooth="yes"/>
			<point x="1271" y="471"/>
			<point x="1255" y="487"/>
			<point x="1236" y="487" type="curve" smooth="yes"/>
			<point x="1222" y="487"/>
			<point x="1212" y="477"/>
			<point x="1186" y="446" type="curve" smooth="yes"/>
			<point x="984" y="205"/>
			<point x="784" y="66"/>
			<point x="581" y="66" type="curve" smooth="yes"/>
			<point x="395" y="66"/>
			<point x="290" y="155"/>
			<point x="290" y="312" type="curve" smooth="yes"/>
			<point x="290" y="428"/>
			<point x="337" y="569"/>
			<point x="619" y="713" type="curve" smooth="yes"/>
			<point x="921" y="867"/>
			<point x="1019" y="994"/>
			<point x="1019" y="1144" type="curve" smooth="yes"/>
			<point x="1019" y="1309"/>
			<point x="892" y="1425"/>
			<point x="708" y="1425" type="curve" smooth="yes"/>
			<point x="488" y="1425"/>
			<point x="348" y="1276"/>
			<point x="348" y="1108" type="curve" smooth="yes"/>
			<point x="348" y="959"/>
			<point x="413" y="858"/>
			<point x="621" y="640" type="curve" smooth="yes"/>
			<point x="1241" y="-9" type="line" smooth="yes"/>
			<point x="1271" y="-40"/>
			<point x="1282" y="-48"/>
		</contour>
	</outline>
</glyph>
<glyph name="asterisk" format="2">
	<unicode hex="002A"/>
	<advance width="874"/>
	<outline>
		<contour>
			<point x="609" y="1061" type="curve" smooth="yes"/>
			<point x="516" y="1246"/>
			<point x="424" y="1430"/>
			<point x="331" y="1615" type="curve" smooth="yes"/>
			<point x="321" y="1635"/>
			<point x="311" y="1648"/>
			<point x="297" y="1648" type="curve" smooth="yes"/>
			<point x="277" y="1648"/>
			<point x="257" y="1631"/>
			<point x="257" y="1613" type="curve" smooth="yes"/>
			<point x="257" y="1605"/>
			<point x="261" y="1599"/>
			<point x="272" y="1578" type="curve" smooth="yes"/>
			<point x="365" y="1392"/>
			<point x="458" y="1206"/>
			<point x="538" y="1046" type="curve" smooth="yes"/>
			<point x="565" y="993"/>
			<point x="578" y="984"/>
			<point x="592" y="984" type="curve" smooth="yes"/>
			<point x="613" y="984"/>
			<point x="627" y="997"/>
			<point x="627" y="1014" type="curve" smooth="yes"/>
			<point x="627" y="1024"/>
			<point x="622" y="1035"/>
		</contour>
		<contour>
			<point x="286" y="1050" type="curve" smooth="yes"/>
			<point x="397" y="1216"/>
			<point x="509" y="1381"/>
			<point x="612" y="1536" type="curve" smooth="yes"/>
			<point x="629" y="1562"/>
			<point x="635" y="1577"/>
			<point x="635" y="1585" type="curve" smooth="yes"/>
			<point x="635" y="1607"/>
			<point x="612" y="1616"/>
			<point x="598" y="1616" type="curve" smooth="yes"/>
			<point x="584" y="1616"/>
			<point x="574" y="1607"/>
			<point x="552" y="1574" type="curve" smooth="yes"/>
			<point x="450" y="1421"/>
			<point x="339" y="1254"/>
			<point x="227" y="1088" type="curve" smooth="yes"/>
			<point x="218" y="1075"/>
			<point x="214" y="1063"/>
			<point x="214" y="1052" type="curve" smooth="yes"/>
			<point x="214" y="1032"/>
			<point x="229" y="1020"/>
			<point x="249" y="1020" type="curve" smooth="yes"/>
			<point x="263" y="1020"/>
			<point x="272" y="1029"/>
		</contour>
		<contour>
			<point x="143" y="1301" type="curve" smooth="yes"/>
			<point x="343" y="1289"/>
			<point x="542" y="1277"/>
			<point x="710" y="1267" type="curve" smooth="yes"/>
			<point x="719" y="1266"/>
			<point x="730" y="1266"/>
			<point x="743" y="1266" type="curve" smooth="yes"/>
			<point x="768" y="1266"/>
			<point x="787" y="1279"/>
			<point x="787" y="1303" type="curve" smooth="yes"/>
			<point x="787" y="1324"/>
			<point x="773" y="1331"/>
			<point x="747" y="1333" type="curve" smooth="yes"/>
			<point x="547" y="1345"/>
			<point x="348" y="1359"/>
			<point x="148" y="1371" type="curve" smooth="yes"/>
			<point x="119" y="1373"/>
			<point x="100" y="1361"/>
			<point x="100" y="1333" type="curve" smooth="yes"/>
			<point x="100" y="1311"/>
			<point x="114" y="1303"/>
		</contour>
	</outline>
</glyph>
<glyph name="zero" format="2">
	<unicode hex="0030"/>
	<advance width="1148"/>
	<outline>
		<contour>
			<point x="519" y="-11" type="curve" smooth="yes"/>
			<point x="804" y="-11"/>
			<point x="1018" y="308"/>
			<point x="1018" y="787" type="curve" smooth="yes"/>
			<point x="1018" y="1189"/>
			<point x="867" y="1414"/>
			<point x="628" y="1414" type="curve" smooth="yes"/>
			<point x="343" y="1414"/>
			<point x="130" y="1094"/>
			<point x="130" y="616" type="curve" smooth="yes"/>
			<point x="130" y="214"/>
			<point x="280" y="-11"/>
		</contour>
		<contour>
			<point x="523" y="69" type="curve" smooth="yes"/>
			<point x="337" y="69"/>
			<point x="215" y="263"/>
			<point x="215" y="618" type="curve" smooth="yes"/>
			<point x="215" y="1045"/>
			<point x="397" y="1333"/>
			<point x="623" y="1333" type="curve" smooth="yes"/>
			<point x="811" y="1333"/>
			<point x="933" y="1138"/>
			<point x="933" y="785" type="curve" smooth="yes"/>
			<point x="933" y="357"/>
			<point x="750" y="69"/>
		</contour>
	</outline>
</glyph>
<glyph name="one" format="2">
	<unicode hex="0031"/>
	<advance width="886"/>
	<outline>
		<contour>
			<point x="500" y="-11" type="curve" smooth="yes"/>
			<point x="531" y="-11"/>
			<point x="544" y="5"/>
			<point x="546" y="31" type="curve" smooth="yes"/>
			<point x="644" y="1330" type="line" smooth="yes"/>
			<point x="645" y="1343"/>
			<point x="646" y="1359"/>
			<point x="646" y="1371" type="curve" smooth="yes"/>
			<point x="646" y="1391"/>
			<point x="628" y="1410"/>
			<point x="602" y="1410" type="curve" smooth="yes"/>
			<point x="589" y="1410"/>
			<point x="581" y="1408"/>
			<point x="543" y="1384" type="curve" smooth="yes"/>
			<point x="456" y="1329"/>
			<point x="293" y="1231"/>
			<point x="121" y="1137" type="curve" smooth="yes"/>
			<point x="97" y="1124"/>
			<point x="90" y="1114"/>
			<point x="90" y="1100" type="curve" smooth="yes"/>
			<point x="90" y="1078"/>
			<point x="110" y="1057"/>
			<point x="128" y="1057" type="curve" smooth="yes"/>
			<point x="140" y="1057"/>
			<point x="148" y="1060"/>
			<point x="171" y="1072" type="curve" smooth="yes"/>
			<point x="339" y="1161"/>
			<point x="471" y="1237"/>
			<point x="574" y="1300" type="curve"/>
			<point x="561" y="1323" type="line"/>
			<point x="464" y="67" type="line" smooth="yes"/>
			<point x="463" y="52"/>
			<point x="462" y="35"/>
			<point x="462" y="30" type="curve" smooth="yes"/>
			<point x="462" y="1"/>
			<point x="477" y="-11"/>
		</contour>
	</outline>
</glyph>
<glyph name="two" format="2">
	<unicode hex="0032"/>
	<advance width="1155"/>
	<outline>
		<contour>
			<point x="160" y="0" type="curve" smooth="yes"/>
			<point x="945" y="0" type="line" smooth="yes"/>
			<point x="987" y="0"/>
			<point x="1000" y="19"/>
			<point x="1000" y="43" type="curve" smooth="yes"/>
			<point x="1000" y="64"/>
			<point x="986" y="80"/>
			<point x="955" y="80" type="curve" smooth="yes"/>
			<point x="166" y="80" type="line"/>
			<point x="165" y="49" type="line"/>
			<point x="795" y="554"/>
			<point x="979" y="795"/>
			<point x="979" y="1057" type="curve" smooth="yes"/>
			<point x="979" y="1269"/>
			<point x="825" y="1410"/>
			<point x="631" y="1410" type="curve" smooth="yes"/>
			<point x="461" y="1410"/>
			<point x="323" y="1326"/>
			<point x="217" y="1224" type="curve" smooth="yes"/>
			<point x="196" y="1203"/>
			<point x="187" y="1188"/>
			<point x="187" y="1176" type="curve" smooth="yes"/>
			<point x="187" y="1159"/>
			<point x="202" y="1139"/>
			<point x="225" y="1139" type="curve" smooth="yes"/>
			<point x="237" y="1139"/>
			<point x="244" y="1145"/>
			<point x="264" y="1163" type="curve" smooth="yes"/>
			<point x="365" y="1253"/>
			<point x="487" y="1330"/>
			<point x="619" y="1330" type="curve" smooth="yes"/>
			<point x="775" y="1330"/>
			<point x="893" y="1226"/>
			<point x="893" y="1046" type="curve" smooth="yes"/>
			<point x="893" y="830"/>
			<point x="733" y="607"/>
			<point x="151" y="130" type="curve" smooth="yes"/>
			<point x="103" y="90"/>
			<point x="100" y="72"/>
			<point x="100" y="52" type="curve" smooth="yes"/>
			<point x="100" y="19"/>
			<point x="124" y="0"/>
		</contour>
	</outline>
</glyph>
<glyph name="three" format="2">
	<unicode hex="0033"/>
	<advance width="1096"/>
	<outline>
		<contour>
			<point x="499" y="-13" type="curve" smooth="yes"/>
			<point x="765" y="-13"/>
			<point x="946" y="153"/>
			<point x="946" y="367" type="curve" smooth="yes"/>
			<point x="946" y="551"/>
			<point x="819" y="695"/>
			<point x="610" y="757" type="curve"/>
			<point x="603" y="736" type="line"/>
			<point x="810" y="803"/>
			<point x="936" y="934"/>
			<point x="936" y="1107" type="curve" smooth="yes"/>
			<point x="936" y="1287"/>
			<point x="778" y="1410"/>
			<point x="569" y="1410" type="curve" smooth="yes"/>
			<point x="424" y="1410"/>
			<point x="307" y="1361"/>
			<point x="206" y="1292" type="curve" smooth="yes"/>
			<point x="178" y="1273"/>
			<point x="173" y="1261"/>
			<point x="173" y="1251" type="curve" smooth="yes"/>
			<point x="173" y="1231"/>
			<point x="190" y="1214"/>
			<point x="208" y="1214" type="curve" smooth="yes"/>
			<point x="218" y="1214"/>
			<point x="227" y="1217"/>
			<point x="253" y="1233" type="curve" smooth="yes"/>
			<point x="339" y="1286"/>
			<point x="448" y="1331"/>
			<point x="556" y="1331" type="curve" smooth="yes"/>
			<point x="726" y="1331"/>
			<point x="855" y="1243"/>
			<point x="855" y="1092" type="curve" smooth="yes"/>
			<point x="855" y="953"/>
			<point x="745" y="843"/>
			<point x="535" y="775" type="curve"/>
			<point x="502" y="782"/>
			<point x="463" y="788"/>
			<point x="433" y="788" type="curve" smooth="yes"/>
			<point x="401" y="788"/>
			<point x="380" y="770"/>
			<point x="380" y="744" type="curve" smooth="yes"/>
			<point x="380" y="713"/>
			<point x="398" y="691"/>
			<point x="427" y="691" type="curve" smooth="yes"/>
			<point x="452" y="691"/>
			<point x="488" y="696"/>
			<point x="527" y="707" type="curve"/>
			<point x="730" y="660"/>
			<point x="863" y="529"/>
			<point x="863" y="372" type="curve" smooth="yes"/>
			<point x="863" y="197"/>
			<point x="713" y="67"/>
			<point x="510" y="67" type="curve" smooth="yes"/>
			<point x="356" y="67"/>
			<point x="273" y="91"/>
			<point x="163" y="156" type="curve" smooth="yes"/>
			<point x="151" y="163"/>
			<point x="142" y="165"/>
			<point x="135" y="165" type="curve" smooth="yes"/>
			<point x="117" y="165"/>
			<point x="100" y="143"/>
			<point x="100" y="123" type="curve" smooth="yes"/>
			<point x="100" y="113"/>
			<point x="114" y="97"/>
			<point x="142" y="79" type="curve" smooth="yes"/>
			<point x="238" y="18"/>
			<point x="349" y="-13"/>
		</contour>
	</outline>
</glyph>
<glyph name="four" format="2">
	<unicode hex="0034"/>
	<advance width="1139"/>
	<outline>
		<contour>
			<point x="169" y="442" type="curve" smooth="yes"/>
			<point x="222" y="442"/>
			<point x="597" y="445"/>
			<point x="794" y="447" type="curve" smooth="yes"/>
			<point x="920" y="448"/>
			<point x="1010" y="450"/>
			<point x="1034" y="450" type="curve" smooth="yes"/>
			<point x="1069" y="450"/>
			<point x="1079" y="465"/>
			<point x="1079" y="487" type="curve" smooth="yes"/>
			<point x="1079" y="513"/>
			<point x="1064" y="526"/>
			<point x="1033" y="526" type="curve" smooth="yes"/>
			<point x="1012" y="526"/>
			<point x="862" y="523"/>
			<point x="806" y="522" type="curve" smooth="yes"/>
			<point x="165" y="511" type="line"/>
			<point x="179" y="488" type="line"/>
			<point x="309" y="764"/>
			<point x="438" y="1061"/>
			<point x="545" y="1345" type="curve" smooth="yes"/>
			<point x="553" y="1366"/>
			<point x="555" y="1377"/>
			<point x="555" y="1383" type="curve" smooth="yes"/>
			<point x="555" y="1407"/>
			<point x="535" y="1420"/>
			<point x="509" y="1420" type="curve" smooth="yes"/>
			<point x="494" y="1420"/>
			<point x="483" y="1410"/>
			<point x="471" y="1378" type="curve" smooth="yes"/>
			<point x="365" y="1094"/>
			<point x="241" y="791"/>
			<point x="130" y="557" type="curve" smooth="yes"/>
			<point x="114" y="523"/>
			<point x="110" y="509"/>
			<point x="110" y="492" type="curve" smooth="yes"/>
			<point x="110" y="465"/>
			<point x="132" y="442"/>
		</contour>
		<contour>
			<point x="703" y="37" type="curve" smooth="yes"/>
			<point x="723" y="319"/>
			<point x="750" y="622"/>
			<point x="770" y="845" type="curve" smooth="yes"/>
			<point x="772" y="867"/>
			<point x="773" y="878"/>
			<point x="773" y="893" type="curve" smooth="yes"/>
			<point x="773" y="913"/>
			<point x="747" y="920"/>
			<point x="725" y="920" type="curve" smooth="yes"/>
			<point x="704" y="920"/>
			<point x="699" y="903"/>
			<point x="694" y="857" type="curve" smooth="yes"/>
			<point x="676" y="692"/>
			<point x="639" y="251"/>
			<point x="630" y="102" type="curve" smooth="yes"/>
			<point x="627" y="56"/>
			<point x="626" y="35"/>
			<point x="626" y="25" type="curve" smooth="yes"/>
			<point x="626" y="-3"/>
			<point x="643" y="-11"/>
			<point x="663" y="-11" type="curve" smooth="yes"/>
			<point x="684" y="-11"/>
			<point x="700" y="-5"/>
		</contour>
	</outline>
</glyph>
<glyph name="five" format="2">
	<unicode hex="0035"/>
	<advance width="1117"/>
	<outline>
		<contour>
			<point x="496" y="-11" type="curve" smooth="yes"/>
			<point x="761" y="-11"/>
			<point x="952" y="199"/>
			<point x="952" y="466" type="curve" smooth="yes"/>
			<point x="952" y="716"/>
			<point x="779" y="874"/>
			<point x="573" y="874" type="curve" smooth="yes"/>
			<point x="475" y="874"/>
			<point x="374" y="850"/>
			<point x="278" y="809" type="curve"/>
			<point x="308" y="796" type="line"/>
			<point x="347" y="1320" type="line"/>
			<point x="947" y="1320" type="line" smooth="yes"/>
			<point x="981" y="1320"/>
			<point x="997" y="1332"/>
			<point x="997" y="1364" type="curve" smooth="yes"/>
			<point x="997" y="1390"/>
			<point x="981" y="1400"/>
			<point x="950" y="1400" type="curve" smooth="yes"/>
			<point x="319" y="1400" type="line" smooth="yes"/>
			<point x="281" y="1400"/>
			<point x="274" y="1386"/>
			<point x="272" y="1358" type="curve" smooth="yes"/>
			<point x="234" y="827" type="line" smooth="yes"/>
			<point x="233" y="813"/>
			<point x="233" y="807"/>
			<point x="233" y="794" type="curve" smooth="yes"/>
			<point x="233" y="765"/>
			<point x="254" y="745"/>
			<point x="281" y="745" type="curve" smooth="yes"/>
			<point x="293" y="745"/>
			<point x="310" y="749"/>
			<point x="339" y="759" type="curve" smooth="yes"/>
			<point x="393" y="777"/>
			<point x="461" y="799"/>
			<point x="554" y="799" type="curve" smooth="yes"/>
			<point x="729" y="799"/>
			<point x="868" y="673"/>
			<point x="868" y="460" type="curve" smooth="yes"/>
			<point x="868" y="240"/>
			<point x="713" y="69"/>
			<point x="504" y="69" type="curve" smooth="yes"/>
			<point x="382" y="69"/>
			<point x="277" y="97"/>
			<point x="187" y="147" type="curve" smooth="yes"/>
			<point x="162" y="161"/>
			<point x="152" y="164"/>
			<point x="145" y="164" type="curve" smooth="yes"/>
			<point x="130" y="164"/>
			<point x="110" y="144"/>
			<point x="110" y="123" type="curve" smooth="yes"/>
			<point x="110" y="113"/>
			<point x="116" y="101"/>
			<point x="139" y="87" type="curve" smooth="yes"/>
			<point x="236" y="27"/>
			<point x="374" y="-11"/>
		</contour>
	</outline>
</glyph>
<glyph name="six" format="2">
	<unicode hex="0036"/>
	<advance width="1048"/>
	<outline>
		<contour>
			<point x="532" y="-6" type="curve" smooth="yes"/>
			<point x="762" y="-6"/>
			<point x="948" y="210"/>
			<point x="948" y="478" type="curve" smooth="yes"/>
			<point x="948" y="701"/>
			<point x="810" y="842"/>
			<point x="608" y="842" type="curve" smooth="yes"/>
			<point x="441" y="842"/>
			<point x="282" y="733"/>
			<point x="160" y="566" type="curve"/>
			<point x="202" y="530" type="line"/>
			<point x="311" y="667"/>
			<point x="466" y="762"/>
			<point x="597" y="762" type="curve" smooth="yes"/>
			<point x="770" y="762"/>
			<point x="865" y="647"/>
			<point x="865" y="467" type="curve" smooth="yes"/>
			<point x="865" y="225"/>
			<point x="698" y="74"/>
			<point x="541" y="74" type="curve" smooth="yes"/>
			<point x="346" y="74"/>
			<point x="215" y="228"/>
			<point x="215" y="561" type="curve" smooth="yes"/>
			<point x="215" y="1024"/>
			<point x="410" y="1346"/>
			<point x="677" y="1346" type="curve" smooth="yes"/>
			<point x="735" y="1346"/>
			<point x="794" y="1333"/>
			<point x="854" y="1309" type="curve" smooth="yes"/>
			<point x="869" y="1303"/>
			<point x="877" y="1300"/>
			<point x="885" y="1300" type="curve" smooth="yes"/>
			<point x="899" y="1300"/>
			<point x="915" y="1322"/>
			<point x="915" y="1338" type="curve" smooth="yes"/>
			<point x="915" y="1354"/>
			<point x="899" y="1369"/>
			<point x="860" y="1386" type="curve" smooth="yes"/>
			<point x="805" y="1410"/>
			<point x="739" y="1425"/>
			<point x="675" y="1425" type="curve" smooth="yes"/>
			<point x="361" y="1425"/>
			<point x="130" y="1069"/>
			<point x="130" y="562" type="curve" smooth="yes"/>
			<point x="130" y="185"/>
			<point x="293" y="-6"/>
		</contour>
	</outline>
</glyph>
<glyph name="seven" format="2">
	<unicode hex="0037"/>
	<advance width="1095"/>
	<outline>
		<contour>
			<point x="295" y="-10" type="curve" smooth="yes"/>
			<point x="318" y="-10"/>
			<point x="327" y="-2"/>
			<point x="338" y="25" type="curve" smooth="yes"/>
			<point x="510" y="454"/>
			<point x="724" y="853"/>
			<point x="1021" y="1251" type="curve" smooth="yes"/>
			<point x="1070" y="1317"/>
			<point x="1070" y="1331"/>
			<point x="1070" y="1349" type="curve" smooth="yes"/>
			<point x="1070" y="1377"/>
			<point x="1051" y="1400"/>
			<point x="1008" y="1400" type="curve" smooth="yes"/>
			<point x="195" y="1400" type="line" smooth="yes"/>
			<point x="158" y="1400"/>
			<point x="140" y="1382"/>
			<point x="140" y="1360" type="curve" smooth="yes"/>
			<point x="140" y="1333"/>
			<point x="164" y="1321"/>
			<point x="198" y="1321" type="curve" smooth="yes"/>
			<point x="1027" y="1321" type="line"/>
			<point x="1004" y="1340" type="line"/>
			<point x="682" y="934"/>
			<point x="445" y="495"/>
			<point x="271" y="85" type="curve" smooth="yes"/>
			<point x="257" y="52"/>
			<point x="253" y="36"/>
			<point x="253" y="25" type="curve" smooth="yes"/>
			<point x="253" y="4"/>
			<point x="274" y="-10"/>
		</contour>
		<contour>
			<point x="292" y="688" type="curve" smooth="yes"/>
			<point x="830" y="688" type="line" smooth="yes"/>
			<point x="855" y="688"/>
			<point x="879" y="700"/>
			<point x="879" y="729" type="curve" smooth="yes"/>
			<point x="879" y="752"/>
			<point x="860" y="761"/>
			<point x="835" y="761" type="curve" smooth="yes"/>
			<point x="298" y="761" type="line" smooth="yes"/>
			<point x="272" y="761"/>
			<point x="249" y="754"/>
			<point x="249" y="724" type="curve" smooth="yes"/>
			<point x="249" y="702"/>
			<point x="266" y="688"/>
		</contour>
	</outline>
</glyph>
<glyph name="eight" format="2">
	<unicode hex="0038"/>
	<advance width="1126"/>
	<outline>
		<contour>
			<point x="536" y="-15" type="curve" smooth="yes"/>
			<point x="791" y="-15"/>
			<point x="986" y="127"/>
			<point x="986" y="336" type="curve" smooth="yes"/>
			<point x="986" y="505"/>
			<point x="903" y="620"/>
			<point x="668" y="733" type="curve"/>
			<point x="890" y="833"/>
			<point x="976" y="954"/>
			<point x="976" y="1108" type="curve" smooth="yes"/>
			<point x="976" y="1277"/>
			<point x="818" y="1425"/>
			<point x="616" y="1425" type="curve" smooth="yes"/>
			<point x="380" y="1425"/>
			<point x="212" y="1271"/>
			<point x="212" y="1073" type="curve" smooth="yes"/>
			<point x="212" y="940"/>
			<point x="292" y="833"/>
			<point x="482" y="745" type="curve"/>
			<point x="217" y="638"/>
			<point x="140" y="482"/>
			<point x="140" y="321" type="curve" smooth="yes"/>
			<point x="140" y="116"/>
			<point x="296" y="-15"/>
		</contour>
		<contour>
			<point x="216" y="329" type="curve" smooth="yes"/>
			<point x="216" y="485"/>
			<point x="305" y="610"/>
			<point x="554" y="706" type="curve"/>
			<point x="830" y="579"/>
			<point x="906" y="481"/>
			<point x="906" y="337" type="curve" smooth="yes"/>
			<point x="906" y="172"/>
			<point x="759" y="63"/>
			<point x="541" y="63" type="curve" smooth="yes"/>
			<point x="330" y="63"/>
			<point x="216" y="160"/>
		</contour>
		<contour>
			<point x="292" y="1089" type="curve" smooth="yes"/>
			<point x="292" y="1234"/>
			<point x="439" y="1348"/>
			<point x="609" y="1348" type="curve" smooth="yes"/>
			<point x="773" y="1348"/>
			<point x="903" y="1240"/>
			<point x="903" y="1095" type="curve" smooth="yes"/>
			<point x="903" y="968"/>
			<point x="817" y="863"/>
			<point x="601" y="772" type="curve"/>
			<point x="355" y="885"/>
			<point x="292" y="954"/>
		</contour>
	</outline>
</glyph>
<glyph name="nine" format="2">
	<unicode hex="0039"/>
	<advance width="1051"/>
	<outline>
		<contour>
			<point x="885" y="780" type="curve"/>
			<point x="836" y="805" type="line"/>
			<point x="751" y="717"/>
			<point x="626" y="643"/>
			<point x="495" y="643" type="curve" smooth="yes"/>
			<point x="318" y="643"/>
			<point x="185" y="767"/>
			<point x="185" y="964" type="curve" smooth="yes"/>
			<point x="185" y="1167"/>
			<point x="338" y="1344"/>
			<point x="532" y="1344" type="curve" smooth="yes"/>
			<point x="710" y="1344"/>
			<point x="836" y="1198"/>
			<point x="836" y="952" type="curve" smooth="yes"/>
			<point x="836" y="709"/>
			<point x="713" y="405"/>
			<point x="495" y="80" type="curve" smooth="yes"/>
			<point x="479" y="56"/>
			<point x="470" y="40"/>
			<point x="470" y="25" type="curve" smooth="yes"/>
			<point x="470" y="2"/>
			<point x="491" y="-14"/>
			<point x="512" y="-14" type="curve" smooth="yes"/>
			<point x="528" y="-14"/>
			<point x="540" y="-6"/>
			<point x="565" y="30" type="curve" smooth="yes"/>
			<point x="754" y="300"/>
			<point x="921" y="692"/>
			<point x="921" y="955" type="curve" smooth="yes"/>
			<point x="921" y="1240"/>
			<point x="763" y="1422"/>
			<point x="538" y="1422" type="curve" smooth="yes"/>
			<point x="293" y="1422"/>
			<point x="100" y="1211"/>
			<point x="100" y="957" type="curve" smooth="yes"/>
			<point x="100" y="733"/>
			<point x="268" y="565"/>
			<point x="477" y="565" type="curve" smooth="yes"/>
			<point x="637" y="565"/>
			<point x="787" y="655"/>
		</contour>
	</outline>
</glyph>
<glyph name="equal" format="2">
	<unicode hex="003D"/>
	<advance width="1200"/>
	<outline>
		<contour>
			<point x="226" y="973" type="curve" smooth="yes"/>
			<point x="988" y="973" type="line" smooth="yes"/>
			<point x="1027" y="973"/>
			<point x="1039" y="992"/>
			<point x="1039" y="1016" type="curve" smooth="yes"/>
			<point x="1039" y="1039"/>
			<point x="1022" y="1048"/>
			<point x="995" y="1048" type="curve" smooth="yes"/>
			<point x="232" y="1048" type="line" smooth="yes"/>
			<point x="197" y="1048"/>
			<point x="183" y="1031"/>
			<point x="183" y="1009" type="curve" smooth="yes"/>
			<point x="183" y="985"/>
			<point x="198" y="973"/>
		</contour>
		<contour>
			<point x="204" y="588" type="curve" smooth="yes"/>
			<point x="966" y="588" type="line" smooth="yes"/>
			<point x="1005" y="588"/>
			<point x="1017" y="607"/>
			<point x="1017" y="631" type="curve" smooth="yes"/>
			<point x="1017" y="654"/>
			<point x="1000" y="663"/>
			<point x="973" y="663" type="curve" smooth="yes"/>
			<point x="210" y="663" type="line" smooth="yes"/>
			<point x="175" y="663"/>
			<point x="161" y="646"/>
			<point x="161" y="624" type="curve" smooth="yes"/>
			<point x="161" y="600"/>
			<point x="176" y="588"/>
		</contour>
	</outline>
</glyph>
<glyph name="A" format="2">
	<unicode hex="0041"/>
	<advance width="1231"/>
	<outline>
		<contour>
			<point x="95" y="-11" type="curve" smooth="yes"/>
			<point x="113" y="-11"/>
			<point x="125" y="3"/>
			<point x="136" y="29" type="curve" smooth="yes"/>
			<point x="677" y="1322" type="line"/>
			<point x="652" y="1341" type="line"/>
			<point x="1019" y="41" type="line" smooth="yes"/>
			<point x="1031" y="-1"/>
			<point x="1045" y="-11"/>
			<point x="1064" y="-11" type="curve" smooth="yes"/>
			<point x="1092" y="-11"/>
			<point x="1111" y="6"/>
			<point x="1111" y="33" type="curve" smooth="yes"/>
			<point x="1111" y="42"/>
			<point x="1110" y="48"/>
			<point x="1108" y="55" type="curve" smooth="yes"/>
			<point x="727" y="1379" type="line" smooth="yes"/>
			<point x="717" y="1413"/>
			<point x="706" y="1425"/>
			<point x="685" y="1425" type="curve" smooth="yes"/>
			<point x="667" y="1425" type="line" smooth="yes"/>
			<point x="648" y="1425"/>
			<point x="636" y="1413"/>
			<point x="622" y="1381" type="curve" smooth="yes"/>
			<point x="60" y="60" type="line" smooth="yes"/>
			<point x="56" y="51"/>
			<point x="50" y="36"/>
			<point x="50" y="23" type="curve" smooth="yes"/>
			<point x="50" y="2"/>
			<point x="70" y="-11"/>
		</contour>
		<contour>
			<point x="336" y="536" type="curve" smooth="yes"/>
			<point x="884" y="536" type="line" smooth="yes"/>
			<point x="909" y="536"/>
			<point x="927" y="546"/>
			<point x="927" y="586" type="curve" smooth="yes"/>
			<point x="927" y="605"/>
			<point x="913" y="613"/>
			<point x="888" y="613" type="curve" smooth="yes"/>
			<point x="350" y="613" type="line" smooth="yes"/>
			<point x="325" y="613"/>
			<point x="307" y="604"/>
			<point x="307" y="581" type="curve" smooth="yes"/>
			<point x="307" y="546"/>
			<point x="321" y="536"/>
		</contour>
	</outline>
	<anchor name="bottom" x="575" y="0"/>
	<anchor name="ogonek" x="1084" y="0"/>
	<anchor name="top" x="676" y="1400"/>
	<anchor name="topleft" x="291" y="1400"/>
</glyph>
<glyph name="B" format="2">
	<unicode hex="0042"/>
	<advance width="1134"/>
	<outline>
		<contour>
			<point x="378" y="-11" type="curve" smooth="yes"/>
			<point x="765" y="-11"/>
			<point x="977" y="170"/>
			<point x="977" y="411" type="curve" smooth="yes"/>
			<point x="977" y="587"/>
			<point x="843" y="706"/>
			<point x="648" y="739" type="curve"/>
			<point x="649" y="727" type="line"/>
			<point x="858" y="769"/>
			<point x="996" y="907"/>
			<point x="996" y="1084" type="curve" smooth="yes"/>
			<point x="996" y="1288"/>
			<point x="827" y="1425"/>
			<point x="536" y="1425" type="curve" smooth="yes"/>
			<point x="457" y="1425"/>
			<point x="348" y="1421"/>
			<point x="302" y="1416" type="curve" smooth="yes"/>
			<point x="262" y="1412"/>
			<point x="247" y="1397"/>
			<point x="244" y="1354" type="curve" smooth="yes"/>
			<point x="154" y="114" type="line" smooth="yes"/>
			<point x="151" y="68"/>
			<point x="150" y="50"/>
			<point x="150" y="40" type="curve" smooth="yes"/>
			<point x="150" y="4"/>
			<point x="189" y="-11"/>
		</contour>
		<contour>
			<point x="390" y="67" type="curve" smooth="yes"/>
			<point x="334" y="67"/>
			<point x="277" y="70"/>
			<point x="236" y="73" type="curve"/>
			<point x="329" y="1342" type="line"/>
			<point x="365" y="1344"/>
			<point x="463" y="1347"/>
			<point x="530" y="1347" type="curve" smooth="yes"/>
			<point x="775" y="1347"/>
			<point x="915" y="1241"/>
			<point x="915" y="1072" type="curve" smooth="yes"/>
			<point x="915" y="907"/>
			<point x="753" y="771"/>
			<point x="460" y="771" type="curve" smooth="yes"/>
			<point x="254" y="771" type="line"/>
			<point x="249" y="693" type="line"/>
			<point x="453" y="693" type="line" smooth="yes"/>
			<point x="720" y="693"/>
			<point x="896" y="587"/>
			<point x="896" y="396" type="curve" smooth="yes"/>
			<point x="896" y="215"/>
			<point x="716" y="67"/>
		</contour>
	</outline>
</glyph>
<glyph name="C" format="2">
	<unicode hex="0043"/>
	<advance width="1125"/>
	<outline>
		<contour>
			<point x="609" y="-10" type="curve" smooth="yes"/>
			<point x="754" y="-10"/>
			<point x="899" y="39"/>
			<point x="988" y="115" type="curve" smooth="yes"/>
			<point x="1021" y="144"/>
			<point x="1027" y="156"/>
			<point x="1027" y="170" type="curve" smooth="yes"/>
			<point x="1027" y="189"/>
			<point x="1006" y="205"/>
			<point x="993" y="205" type="curve" smooth="yes"/>
			<point x="981" y="205"/>
			<point x="970" y="197"/>
			<point x="950" y="181" type="curve" smooth="yes"/>
			<point x="862" y="109"/>
			<point x="738" y="71"/>
			<point x="622" y="71" type="curve" smooth="yes"/>
			<point x="355" y="71"/>
			<point x="205" y="235"/>
			<point x="205" y="596" type="curve" smooth="yes"/>
			<point x="205" y="1037"/>
			<point x="441" y="1334"/>
			<point x="737" y="1334" type="curve" smooth="yes"/>
			<point x="822" y="1334"/>
			<point x="899" y="1309"/>
			<point x="969" y="1255" type="curve" smooth="yes"/>
			<point x="991" y="1238"/>
			<point x="1001" y="1234"/>
			<point x="1011" y="1234" type="curve" smooth="yes"/>
			<point x="1033" y="1234"/>
			<point x="1045" y="1254"/>
			<point x="1045" y="1270" type="curve" smooth="yes"/>
			<point x="1045" y="1285"/>
			<point x="1035" y="1305"/>
			<point x="990" y="1337" type="curve" smooth="yes"/>
			<point x="928" y="1381"/>
			<point x="844" y="1415"/>
			<point x="735" y="1415" type="curve" smooth="yes"/>
			<point x="389" y="1415"/>
			<point x="120" y="1091"/>
			<point x="120" y="590" type="curve" smooth="yes"/>
			<point x="120" y="191"/>
			<point x="303" y="-10"/>
		</contour>
	</outline>
	<anchor name="bottom" x="622" y="0"/>
	<anchor name="top" x="733" y="1400"/>
</glyph>
<glyph name="D" format="2">
	<unicode hex="0044"/>
	<advance width="1233"/>
	<outline>
		<contour>
			<point x="331" y="-11" type="curve" smooth="yes"/>
			<point x="794" y="-11"/>
			<point x="1113" y="336"/>
			<point x="1113" y="826" type="curve" smooth="yes"/>
			<point x="1113" y="1223"/>
			<point x="873" y="1425"/>
			<point x="548" y="1425" type="curve" smooth="yes"/>
			<point x="454" y="1425"/>
			<point x="371" y="1414"/>
			<point x="321" y="1405" type="curve" smooth="yes"/>
			<point x="264" y="1395"/>
			<point x="244" y="1378"/>
			<point x="241" y="1339" type="curve" smooth="yes"/>
			<point x="154" y="136" type="line" smooth="yes"/>
			<point x="152" y="112"/>
			<point x="150" y="82"/>
			<point x="150" y="72" type="curve" smooth="yes"/>
			<point x="150" y="10"/>
			<point x="185" y="-11"/>
		</contour>
		<contour>
			<point x="349" y="68" type="curve" smooth="yes"/>
			<point x="323" y="68"/>
			<point x="272" y="70"/>
			<point x="236" y="73" type="curve"/>
			<point x="326" y="1328" type="line"/>
			<point x="359" y="1335"/>
			<point x="453" y="1346"/>
			<point x="541" y="1346" type="curve" smooth="yes"/>
			<point x="818" y="1346"/>
			<point x="1028" y="1176"/>
			<point x="1028" y="807" type="curve" smooth="yes"/>
			<point x="1028" y="389"/>
			<point x="748" y="68"/>
		</contour>
	</outline>
	<anchor name="bottom" x="323" y="0"/>
	<anchor name="center" x="360" y="725"/>
	<anchor name="top" x="573" y="1400"/>
</glyph>
<glyph name="E" format="2">
	<unicode hex="0045"/>
	<advance width="1031"/>
	<outline>
		<contour>
			<point x="198" y="-11" type="curve" smooth="yes"/>
			<point x="248" y="-11"/>
			<point x="748" y="-6"/>
			<point x="853" y="-4" type="curve" smooth="yes"/>
			<point x="885" y="-3"/>
			<point x="904" y="7"/>
			<point x="904" y="41" type="curve" smooth="yes"/>
			<point x="904" y="60"/>
			<point x="891" y="75"/>
			<point x="862" y="75" type="curve" smooth="yes"/>
			<point x="770" y="75"/>
			<point x="328" y="71"/>
			<point x="236" y="68" type="curve"/>
			<point x="282" y="695" type="line"/>
			<point x="411" y="695"/>
			<point x="700" y="698"/>
			<point x="741" y="699" type="curve" smooth="yes"/>
			<point x="776" y="700"/>
			<point x="793" y="713"/>
			<point x="793" y="743" type="curve" smooth="yes"/>
			<point x="793" y="761"/>
			<point x="781" y="778"/>
			<point x="753" y="778" type="curve" smooth="yes"/>
			<point x="707" y="778"/>
			<point x="330" y="773"/>
			<point x="287" y="772" type="curve"/>
			<point x="327" y="1321" type="line"/>
			<point x="909" y="1321" type="line" smooth="yes"/>
			<point x="948" y="1321"/>
			<point x="961" y="1338"/>
			<point x="961" y="1366" type="curve" smooth="yes"/>
			<point x="961" y="1386"/>
			<point x="947" y="1400"/>
			<point x="919" y="1400" type="curve" smooth="yes"/>
			<point x="286" y="1400" type="line" smooth="yes"/>
			<point x="259" y="1400"/>
			<point x="247" y="1386"/>
			<point x="245" y="1358" type="curve" smooth="yes"/>
			<point x="153" y="77" type="line" smooth="yes"/>
			<point x="151" y="53"/>
			<point x="150" y="41"/>
			<point x="150" y="30" type="curve" smooth="yes"/>
			<point x="150" y="-2"/>
			<point x="167" y="-11"/>
		</contour>
	</outline>
	<anchor name="bottom" x="504" y="0"/>
	<anchor name="ogonek" x="840" y="0"/>
	<anchor name="top" x="614" y="1400"/>
	<anchor name="topleft" x="301" y="1400"/>
</glyph>
<glyph name="F" format="2">
	<unicode hex="0046"/>
	<advance width="911"/>
	<outline>
		<contour>
			<point x="188" y="-11" type="curve" smooth="yes"/>
			<point x="216" y="-11"/>
			<point x="232" y="1"/>
			<point x="234" y="29" type="curve" smooth="yes"/>
			<point x="282" y="695" type="line"/>
			<point x="326" y="695"/>
			<point x="688" y="698"/>
			<point x="741" y="699" type="curve" smooth="yes"/>
			<point x="784" y="700"/>
			<point x="793" y="720"/>
			<point x="793" y="743" type="curve" smooth="yes"/>
			<point x="793" y="761"/>
			<point x="781" y="778"/>
			<point x="753" y="778" type="curve" smooth="yes"/>
			<point x="707" y="778"/>
			<point x="365" y="774"/>
			<point x="287" y="771" type="curve"/>
			<point x="327" y="1321" type="line"/>
			<point x="909" y="1321" type="line" smooth="yes"/>
			<point x="948" y="1321"/>
			<point x="961" y="1338"/>
			<point x="961" y="1366" type="curve" smooth="yes"/>
			<point x="961" y="1386"/>
			<point x="947" y="1400"/>
			<point x="919" y="1400" type="curve" smooth="yes"/>
			<point x="286" y="1400" type="line" smooth="yes"/>
			<point x="259" y="1400"/>
			<point x="247" y="1386"/>
			<point x="245" y="1358" type="curve" smooth="yes"/>
			<point x="152" y="68" type="line" smooth="yes"/>
			<point x="150" y="47"/>
			<point x="150" y="41"/>
			<point x="150" y="30" type="curve" smooth="yes"/>
			<point x="150" y="-3"/>
			<point x="168" y="-11"/>
		</contour>
	</outline>
</glyph>
<glyph name="G" format="2">
	<unicode hex="0047"/>
	<advance width="1297"/>
	<outline>
		<contour>
			<point x="555" y="-11" type="curve" smooth="yes"/>
			<point x="751" y="-11"/>
			<point x="939" y="129"/>
			<point x="1013" y="378" type="curve"/>
			<point x="1007" y="383" type="line"/>
			<point x="982" y="67" type="line" smooth="yes"/>
			<point x="981" y="54"/>
			<point x="980" y="37"/>
			<point x="980" y="23" type="curve" smooth="yes"/>
			<point x="980" y="-4"/>
			<point x="1005" y="-11"/>
			<point x="1025" y="-11" type="curve" smooth="yes"/>
			<point x="1052" y="-11"/>
			<point x="1061" y="1"/>
			<point x="1063" y="29" type="curve" smooth="yes"/>
			<point x="1105" y="638" type="line" smooth="yes"/>
			<point x="1106" y="652"/>
			<point x="1107" y="671"/>
			<point x="1107" y="680" type="curve" smooth="yes"/>
			<point x="1107" y="706"/>
			<point x="1095" y="717"/>
			<point x="1064" y="717" type="curve" smooth="yes"/>
			<point x="706" y="717" type="line" smooth="yes"/>
			<point x="673" y="717"/>
			<point x="657" y="702"/>
			<point x="657" y="674" type="curve" smooth="yes"/>
			<point x="657" y="651"/>
			<point x="672" y="640"/>
			<point x="700" y="640" type="curve" smooth="yes"/>
			<point x="1026" y="640" type="line"/>
			<point x="973" y="259"/>
			<point x="775" y="71"/>
			<point x="570" y="71" type="curve" smooth="yes"/>
			<point x="356" y="71"/>
			<point x="205" y="238"/>
			<point x="205" y="601" type="curve" smooth="yes"/>
			<point x="205" y="1045"/>
			<point x="443" y="1344"/>
			<point x="740" y="1344" type="curve" smooth="yes"/>
			<point x="836" y="1344"/>
			<point x="924" y="1317"/>
			<point x="992" y="1265" type="curve" smooth="yes"/>
			<point x="1017" y="1246"/>
			<point x="1024" y="1243"/>
			<point x="1034" y="1243" type="curve" smooth="yes"/>
			<point x="1057" y="1243"/>
			<point x="1069" y="1264"/>
			<point x="1069" y="1280" type="curve" smooth="yes"/>
			<point x="1069" y="1294"/>
			<point x="1060" y="1314"/>
			<point x="1014" y="1347" type="curve" smooth="yes"/>
			<point x="948" y="1394"/>
			<point x="853" y="1425"/>
			<point x="738" y="1425" type="curve" smooth="yes"/>
			<point x="391" y="1425"/>
			<point x="120" y="1100"/>
			<point x="120" y="595" type="curve" smooth="yes"/>
			<point x="120" y="194"/>
			<point x="304" y="-11"/>
		</contour>
	</outline>
	<anchor name="bottom" x="556" y="-11"/>
	<anchor name="top" x="745" y="1403"/>
</glyph>
<glyph name="H" format="2">
	<unicode hex="0048"/>
	<advance width="1271"/>
	<outline>
		<contour>
			<point x="188" y="-11" type="curve" smooth="yes"/>
			<point x="216" y="-11"/>
			<point x="232" y="1"/>
			<point x="234" y="29" type="curve" smooth="yes"/>
			<point x="327" y="1324" type="line" smooth="yes"/>
			<point x="329" y="1345"/>
			<point x="329" y="1349"/>
			<point x="329" y="1360" type="curve" smooth="yes"/>
			<point x="329" y="1389"/>
			<point x="312" y="1400"/>
			<point x="286" y="1400" type="curve" smooth="yes"/>
			<point x="259" y="1400"/>
			<point x="247" y="1386"/>
			<point x="245" y="1358" type="curve" smooth="yes"/>
			<point x="152" y="65" type="line" smooth="yes"/>
			<point x="150" y="44"/>
			<point x="150" y="40"/>
			<point x="150" y="30" type="curve" smooth="yes"/>
			<point x="150" y="0"/>
			<point x="165" y="-11"/>
		</contour>
		<contour>
			<point x="980" y="-11" type="curve" smooth="yes"/>
			<point x="1008" y="-11"/>
			<point x="1024" y="1"/>
			<point x="1026" y="29" type="curve" smooth="yes"/>
			<point x="1119" y="1323" type="line" smooth="yes"/>
			<point x="1121" y="1345"/>
			<point x="1121" y="1349"/>
			<point x="1121" y="1360" type="curve" smooth="yes"/>
			<point x="1121" y="1389"/>
			<point x="1104" y="1400"/>
			<point x="1078" y="1400" type="curve" smooth="yes"/>
			<point x="1051" y="1400"/>
			<point x="1039" y="1386"/>
			<point x="1037" y="1358" type="curve" smooth="yes"/>
			<point x="944" y="65" type="line" smooth="yes"/>
			<point x="942" y="44"/>
			<point x="942" y="40"/>
			<point x="942" y="30" type="curve" smooth="yes"/>
			<point x="942" y="0"/>
			<point x="957" y="-11"/>
		</contour>
		<contour>
			<point x="254" y="755" type="curve"/>
			<point x="254" y="677" type="line"/>
			<point x="313" y="675"/>
			<point x="494" y="674"/>
			<point x="725" y="674" type="curve" smooth="yes"/>
			<point x="787" y="674"/>
			<point x="910" y="676"/>
			<point x="1024" y="682" type="curve"/>
			<point x="1024" y="756" type="line"/>
			<point x="953" y="753"/>
			<point x="845" y="751"/>
			<point x="729" y="751" type="curve" smooth="yes"/>
			<point x="468" y="751"/>
			<point x="343" y="752"/>
		</contour>
	</outline>
	<anchor name="bottom" x="582" y="0"/>
	<anchor name="center" x="656" y="1058"/>
	<anchor name="top" x="689" y="1400"/>
	<anchor name="topleft" x="196" y="1400"/>
	<note>
u0048
</note>
</glyph>
<glyph name="I" format="2">
	<unicode hex="0049"/>
	<advance width="471"/>
	<outline>
		<contour>
			<point x="188" y="-11" type="curve" smooth="yes"/>
			<point x="218" y="-11"/>
			<point x="232" y="3"/>
			<point x="234" y="29" type="curve" smooth="yes"/>
			<point x="319" y="1324" type="line" smooth="yes"/>
			<point x="320" y="1337"/>
			<point x="321" y="1350"/>
			<point x="321" y="1360" type="curve" smooth="yes"/>
			<point x="321" y="1389"/>
			<point x="304" y="1400"/>
			<point x="278" y="1400" type="curve" smooth="yes"/>
			<point x="250" y="1400"/>
			<point x="239" y="1384"/>
			<point x="237" y="1358" type="curve" smooth="yes"/>
			<point x="152" y="65" type="line" smooth="yes"/>
			<point x="151" y="52"/>
			<point x="150" y="39"/>
			<point x="150" y="30" type="curve" smooth="yes"/>
			<point x="150" y="0"/>
			<point x="165" y="-11"/>
		</contour>
	</outline>
	<anchor name="bottom" x="191" y="0"/>
	<anchor name="ogonek" x="157" y="0"/>
	<anchor name="top" x="282" y="1400"/>
	<anchor name="topleft" x="219" y="1400"/>
</glyph>
<glyph name="J" format="2">
	<unicode hex="004A"/>
	<advance width="886"/>
	<outline>
		<contour>
			<point x="271" y="-389" type="curve" smooth="yes"/>
			<point x="499" y="-389"/>
			<point x="632" y="-264"/>
			<point x="654" y="81" type="curve" smooth="yes"/>
			<point x="734" y="1318" type="line" smooth="yes"/>
			<point x="735" y="1332"/>
			<point x="736" y="1350"/>
			<point x="736" y="1357" type="curve" smooth="yes"/>
			<point x="736" y="1388"/>
			<point x="719" y="1400"/>
			<point x="693" y="1400" type="curve" smooth="yes"/>
			<point x="200" y="1400" type="line" smooth="yes"/>
			<point x="162" y="1400"/>
			<point x="145" y="1386"/>
			<point x="145" y="1360" type="curve" smooth="yes"/>
			<point x="145" y="1336"/>
			<point x="159" y="1322"/>
			<point x="194" y="1322" type="curve" smooth="yes"/>
			<point x="650" y="1322" type="line"/>
			<point x="572" y="115" type="line" smooth="yes"/>
			<point x="551" y="-217"/>
			<point x="455" y="-311"/>
			<point x="264" y="-311" type="curve" smooth="yes"/>
			<point x="182" y="-311"/>
			<point x="105" y="-296"/>
			<point x="7" y="-244" type="curve" smooth="yes"/>
			<point x="-12" y="-234"/>
			<point x="-20" y="-233"/>
			<point x="-25" y="-233" type="curve" smooth="yes"/>
			<point x="-44" y="-233"/>
			<point x="-60" y="-253"/>
			<point x="-60" y="-273" type="curve" smooth="yes"/>
			<point x="-60" y="-287"/>
			<point x="-49" y="-299"/>
			<point x="-32" y="-309" type="curve" smooth="yes"/>
			<point x="57" y="-360"/>
			<point x="171" y="-389"/>
		</contour>
	</outline>
	<anchor name="center" x="654" y="634"/>
	<anchor name="top" x="693" y="1400"/>
</glyph>
<glyph name="K" format="2">
	<unicode hex="004B"/>
	<advance width="1086"/>
	<outline>
		<contour>
			<point x="188" y="-11" type="curve" smooth="yes"/>
			<point x="216" y="-11"/>
			<point x="232" y="1"/>
			<point x="234" y="29" type="curve" smooth="yes"/>
			<point x="327" y="1321" type="line" smooth="yes"/>
			<point x="328" y="1335"/>
			<point x="329" y="1349"/>
			<point x="329" y="1360" type="curve" smooth="yes"/>
			<point x="329" y="1389"/>
			<point x="312" y="1400"/>
			<point x="285" y="1400" type="curve" smooth="yes"/>
			<point x="258" y="1400"/>
			<point x="246" y="1386"/>
			<point x="244" y="1358" type="curve" smooth="yes"/>
			<point x="152" y="67" type="line" smooth="yes"/>
			<point x="151" y="53"/>
			<point x="150" y="39"/>
			<point x="150" y="30" type="curve" smooth="yes"/>
			<point x="150" y="0"/>
			<point x="165" y="-11"/>
		</contour>
		<contour>
			<point x="954" y="-11" type="curve" smooth="yes"/>
			<point x="979" y="-11"/>
			<point x="1000" y="14"/>
			<point x="1000" y="39" type="curve" smooth="yes"/>
			<point x="1000" y="51"/>
			<point x="991" y="66"/>
			<point x="971" y="88" type="curve" smooth="yes"/>
			<point x="353" y="747" type="line"/>
			<point x="350" y="696" type="line"/>
			<point x="1034" y="1310" type="line" smooth="yes"/>
			<point x="1060" y="1333"/>
			<point x="1066" y="1343"/>
			<point x="1066" y="1357" type="curve" smooth="yes"/>
			<point x="1066" y="1378"/>
			<point x="1049" y="1400"/>
			<point x="1028" y="1400" type="curve" smooth="yes"/>
			<point x="1015" y="1400"/>
			<point x="1006" y="1397"/>
			<point x="986" y="1379" type="curve" smooth="yes"/>
			<point x="337" y="787" type="line" smooth="yes"/>
			<point x="310" y="763"/>
			<point x="301" y="743"/>
			<point x="301" y="719" type="curve" smooth="yes"/>
			<point x="301" y="694"/>
			<point x="311" y="673"/>
			<point x="337" y="644" type="curve" smooth="yes"/>
			<point x="906" y="25" type="line" smooth="yes"/>
			<point x="930" y="-2"/>
			<point x="941" y="-11"/>
		</contour>
	</outline>
	<anchor name="bottom" x="431" y="0"/>
	<anchor name="top" x="664" y="1400"/>
	<anchor name="topleft" x="218" y="1400"/>
</glyph>
<glyph name="L" format="2">
	<unicode hex="004C"/>
	<advance width="980"/>
	<outline>
		<contour>
			<point x="204" y="-11" type="curve" smooth="yes"/>
			<point x="402" y="-11"/>
			<point x="627" y="-8"/>
			<point x="855" y="-3" type="curve" smooth="yes"/>
			<point x="899" y="-2"/>
			<point x="910" y="14"/>
			<point x="910" y="44" type="curve" smooth="yes"/>
			<point x="910" y="67"/>
			<point x="899" y="78"/>
			<point x="863" y="78" type="curve" smooth="yes"/>
			<point x="839" y="78"/>
			<point x="770" y="77"/>
			<point x="732" y="76" type="curve" smooth="yes"/>
			<point x="235" y="69" type="line"/>
			<point x="323" y="1314" type="line" smooth="yes"/>
			<point x="325" y="1338"/>
			<point x="326" y="1350"/>
			<point x="326" y="1360" type="curve" smooth="yes"/>
			<point x="326" y="1389"/>
			<point x="309" y="1400"/>
			<point x="283" y="1400" type="curve" smooth="yes"/>
			<point x="256" y="1400"/>
			<point x="244" y="1386"/>
			<point x="242" y="1358" type="curve" smooth="yes"/>
			<point x="152" y="89" type="line" smooth="yes"/>
			<point x="150" y="61"/>
			<point x="150" y="56"/>
			<point x="150" y="44" type="curve" smooth="yes"/>
			<point x="150" y="22"/>
			<point x="157" y="-11"/>
		</contour>
	</outline>
	<anchor name="bottom" x="510" y="-11"/>
	<anchor name="center" x="241" y="734"/>
	<anchor name="top" x="281" y="1400"/>
	<anchor name="topright" x="417" y="1400"/>
</glyph>
<glyph name="M" format="2">
	<unicode hex="004D"/>
	<advance width="1730"/>
	<outline>
		<contour>
			<point x="155" y="30" type="curve" smooth="yes"/>
			<point x="155" y="1"/>
			<point x="171" y="-11"/>
			<point x="194" y="-11" type="curve" smooth="yes"/>
			<point x="219" y="-11"/>
			<point x="230" y="2"/>
			<point x="234" y="31" type="curve" smooth="yes"/>
			<point x="386" y="1139" type="line" smooth="yes"/>
			<point x="393" y="1191"/>
			<point x="400" y="1241"/>
			<point x="407" y="1293" type="curve"/>
			<point x="398" y="1293" type="line"/>
			<point x="405" y="1243"/>
			<point x="420" y="1192"/>
			<point x="435" y="1142" type="curve" smooth="yes"/>
			<point x="763" y="87" type="line" smooth="yes"/>
			<point x="776" y="46"/>
			<point x="789" y="36"/>
			<point x="815" y="36" type="curve" smooth="yes"/>
			<point x="842" y="36"/>
			<point x="856" y="46"/>
			<point x="875" y="88" type="curve" smooth="yes"/>
			<point x="1344" y="1126" type="line" smooth="yes"/>
			<point x="1369" y="1181"/>
			<point x="1392" y="1235"/>
			<point x="1413" y="1290" type="curve"/>
			<point x="1402" y="1290" type="line"/>
			<point x="1402" y="1119" type="line"/>
			<point x="1416" y="31" type="line" smooth="yes"/>
			<point x="1416" y="-1"/>
			<point x="1438" y="-11"/>
			<point x="1459" y="-11" type="curve" smooth="yes"/>
			<point x="1482" y="-11"/>
			<point x="1500" y="1"/>
			<point x="1500" y="31" type="curve" smooth="yes"/>
			<point x="1500" y="44"/>
			<point x="1499" y="99"/>
			<point x="1498" y="147" type="curve" smooth="yes"/>
			<point x="1473" y="1347" type="line" smooth="yes"/>
			<point x="1472" y="1389"/>
			<point x="1453" y="1400"/>
			<point x="1427" y="1400" type="curve" smooth="yes"/>
			<point x="1397" y="1400"/>
			<point x="1385" y="1391"/>
			<point x="1365" y="1347" type="curve" smooth="yes"/>
			<point x="885" y="289" type="line" smooth="yes"/>
			<point x="859" y="231"/>
			<point x="834" y="168"/>
			<point x="815" y="111" type="curve"/>
			<point x="833" y="111" type="line"/>
			<point x="820" y="168"/>
			<point x="805" y="224"/>
			<point x="787" y="281" type="curve" smooth="yes"/>
			<point x="451" y="1349" type="line" smooth="yes"/>
			<point x="438" y="1390"/>
			<point x="428" y="1400"/>
			<point x="392" y="1400" type="curve" smooth="yes"/>
			<point x="362" y="1400"/>
			<point x="344" y="1379"/>
			<point x="339" y="1344" type="curve" smooth="yes"/>
			<point x="157" y="65" type="line" smooth="yes"/>
			<point x="156" y="55"/>
			<point x="155" y="43"/>
		</contour>
	</outline>
	<anchor name="bottom" x="815" y="36"/>
	<anchor name="top" x="900" y="1400"/>
</glyph>
<glyph name="N" format="2">
	<unicode hex="004E"/>
	<advance width="1305"/>
	<outline>
		<contour>
			<point x="186" y="-11" type="curve" smooth="yes"/>
			<point x="213" y="-11"/>
			<point x="225" y="2"/>
			<point x="227" y="30" type="curve" smooth="yes"/>
			<point x="307" y="1129" type="line" smooth="yes"/>
			<point x="310" y="1175"/>
			<point x="311" y="1220"/>
			<point x="311" y="1270" type="curve"/>
			<point x="295" y="1269" type="line"/>
			<point x="309" y="1232"/>
			<point x="327" y="1191"/>
			<point x="349" y="1152" type="curve" smooth="yes"/>
			<point x="967" y="41" type="line" smooth="yes"/>
			<point x="991" y="-1"/>
			<point x="1004" y="-11"/>
			<point x="1024" y="-11" type="curve" smooth="yes"/>
			<point x="1049" y="-11"/>
			<point x="1060" y="8"/>
			<point x="1062" y="36" type="curve" smooth="yes"/>
			<point x="1152" y="1312" type="line" smooth="yes"/>
			<point x="1154" y="1337"/>
			<point x="1155" y="1350"/>
			<point x="1155" y="1360" type="curve" smooth="yes"/>
			<point x="1155" y="1389"/>
			<point x="1140" y="1400"/>
			<point x="1117" y="1400" type="curve" smooth="yes"/>
			<point x="1092" y="1400"/>
			<point x="1080" y="1387"/>
			<point x="1078" y="1359" type="curve" smooth="yes"/>
			<point x="999" y="267" type="line" smooth="yes"/>
			<point x="995" y="218"/>
			<point x="993" y="167"/>
			<point x="993" y="122" type="curve"/>
			<point x="1010" y="122" type="line"/>
			<point x="993" y="162"/>
			<point x="969" y="209"/>
			<point x="946" y="250" type="curve" smooth="yes"/>
			<point x="338" y="1345" type="line" smooth="yes"/>
			<point x="310" y="1396"/>
			<point x="302" y="1400"/>
			<point x="282" y="1400" type="curve" smooth="yes"/>
			<point x="265" y="1400"/>
			<point x="247" y="1391"/>
			<point x="244" y="1351" type="curve" smooth="yes"/>
			<point x="153" y="75" type="line" smooth="yes"/>
			<point x="151" y="51"/>
			<point x="150" y="39"/>
			<point x="150" y="30" type="curve" smooth="yes"/>
			<point x="150" y="0"/>
			<point x="164" y="-11"/>
		</contour>
	</outline>
	<anchor name="bottom" x="589" y="0"/>
	<anchor name="top" x="726" y="1400"/>
</glyph>
<glyph name="O" format="2">
	<unicode hex="004F"/>
	<advance width="1302"/>
	<outline>
		<contour>
			<point x="584" y="-11" type="curve" smooth="yes"/>
			<point x="906" y="-11"/>
			<point x="1182" y="307"/>
			<point x="1182" y="792" type="curve" smooth="yes"/>
			<point x="1182" y="1222"/>
			<point x="968" y="1425"/>
			<point x="715" y="1425" type="curve" smooth="yes"/>
			<point x="396" y="1425"/>
			<point x="120" y="1107"/>
			<point x="120" y="625" type="curve" smooth="yes"/>
			<point x="120" y="192"/>
			<point x="331" y="-11"/>
		</contour>
		<contour>
			<point x="590" y="71" type="curve" smooth="yes"/>
			<point x="382" y="71"/>
			<point x="205" y="228"/>
			<point x="205" y="630" type="curve" smooth="yes"/>
			<point x="205" y="1052"/>
			<point x="439" y="1344"/>
			<point x="712" y="1344" type="curve" smooth="yes"/>
			<point x="920" y="1344"/>
			<point x="1097" y="1185"/>
			<point x="1097" y="786" type="curve" smooth="yes"/>
			<point x="1097" y="361"/>
			<point x="863" y="71"/>
		</contour>
	</outline>
	<anchor name="Qtail" x="780" y="0"/>
	<anchor name="bottom" x="585" y="0"/>
	<anchor name="center" x="652" y="700"/>
	<anchor name="ogonek" x="636" y="0"/>
	<anchor name="top" x="714" y="1400"/>
	<anchor name="topleft" x="200" y="1234"/>
	<anchor name="topright" x="1401" y="1234"/>
</glyph>
<glyph name="P" format="2">
	<unicode hex="0050"/>
	<advance width="1078"/>
	<outline>
		<contour>
			<point x="190" y="4" type="curve" smooth="yes"/>
			<point x="219" y="4"/>
			<point x="232" y="17"/>
			<point x="234" y="44" type="curve" smooth="yes"/>
			<point x="329" y="1341" type="line"/>
			<point x="365" y="1343"/>
			<point x="463" y="1347"/>
			<point x="530" y="1347" type="curve" smooth="yes"/>
			<point x="774" y="1347"/>
			<point x="909" y="1212"/>
			<point x="909" y="1015" type="curve" smooth="yes"/>
			<point x="909" y="804"/>
			<point x="754" y="654"/>
			<point x="463" y="654" type="curve" smooth="yes"/>
			<point x="259" y="654" type="line"/>
			<point x="254" y="576" type="line"/>
			<point x="456" y="576" type="line" smooth="yes"/>
			<point x="786" y="576"/>
			<point x="990" y="755"/>
			<point x="990" y="1025" type="curve" smooth="yes"/>
			<point x="990" y="1259"/>
			<point x="826" y="1425"/>
			<point x="536" y="1425" type="curve" smooth="yes"/>
			<point x="457" y="1425"/>
			<point x="348" y="1420"/>
			<point x="302" y="1415" type="curve" smooth="yes"/>
			<point x="262" y="1411"/>
			<point x="247" y="1396"/>
			<point x="244" y="1353" type="curve" smooth="yes"/>
			<point x="154" y="118" type="line" smooth="yes"/>
			<point x="151" y="75"/>
			<point x="150" y="58"/>
			<point x="150" y="49" type="curve" smooth="yes"/>
			<point x="150" y="23"/>
			<point x="151" y="4"/>
		</contour>
	</outline>
	<anchor name="top" x="533" y="1398"/>
</glyph>
<glyph name="R" format="2">
	<unicode hex="0052"/>
	<advance width="1098"/>
	<outline>
		<contour>
			<point x="188" y="-10" type="curve" smooth="yes"/>
			<point x="219" y="-10"/>
			<point x="232" y="2"/>
			<point x="234" y="30" type="curve" smooth="yes"/>
			<point x="330" y="1342" type="line"/>
			<point x="366" y="1344"/>
			<point x="464" y="1347"/>
			<point x="531" y="1347" type="curve" smooth="yes"/>
			<point x="776" y="1347"/>
			<point x="908" y="1221"/>
			<point x="908" y="1040" type="curve" smooth="yes"/>
			<point x="908" y="849"/>
			<point x="752" y="726"/>
			<point x="492" y="726" type="curve" smooth="yes"/>
			<point x="260" y="726" type="line"/>
			<point x="255" y="649" type="line"/>
			<point x="485" y="649" type="line" smooth="yes"/>
			<point x="797" y="649"/>
			<point x="989" y="806"/>
			<point x="989" y="1050" type="curve" smooth="yes"/>
			<point x="989" y="1274"/>
			<point x="828" y="1425"/>
			<point x="537" y="1425" type="curve" smooth="yes"/>
			<point x="458" y="1425"/>
			<point x="349" y="1421"/>
			<point x="303" y="1416" type="curve" smooth="yes"/>
			<point x="263" y="1412"/>
			<point x="248" y="1397"/>
			<point x="245" y="1354" type="curve" smooth="yes"/>
			<point x="154" y="104" type="line" smooth="yes"/>
			<point x="151" y="62"/>
			<point x="150" y="46"/>
			<point x="150" y="35" type="curve" smooth="yes"/>
			<point x="150" y="9"/>
			<point x="151" y="-10"/>
		</contour>
		<contour>
			<point x="899" y="-10" type="curve" smooth="yes"/>
			<point x="924" y="-10"/>
			<point x="947" y="15"/>
			<point x="947" y="38" type="curve" smooth="yes"/>
			<point x="947" y="49"/>
			<point x="939" y="58"/>
			<point x="917" y="81" type="curve" smooth="yes"/>
			<point x="449" y="585" type="line" smooth="yes"/>
			<point x="402" y="636"/>
			<point x="354" y="674"/>
			<point x="328" y="694" type="curve"/>
			<point x="275" y="657" type="line"/>
			<point x="849" y="23" type="line" smooth="yes"/>
			<point x="874" y="-4"/>
			<point x="886" y="-10"/>
		</contour>
	</outline>
	<anchor name="bottom" x="478" y="0"/>
	<anchor name="top" x="592" y="1398"/>
</glyph>
<glyph name="S" format="2">
	<unicode hex="0053"/>
	<advance width="1015"/>
	<outline>
		<contour>
			<point x="392" y="-11" type="curve" smooth="yes"/>
			<point x="666" y="-11"/>
			<point x="858" y="139"/>
			<point x="858" y="355" type="curve" smooth="yes"/>
			<point x="858" y="496"/>
			<point x="783" y="606"/>
			<point x="559" y="769" type="curve" smooth="yes"/>
			<point x="333" y="934"/>
			<point x="286" y="1011"/>
			<point x="286" y="1117" type="curve" smooth="yes"/>
			<point x="286" y="1249"/>
			<point x="407" y="1345"/>
			<point x="570" y="1345" type="curve" smooth="yes"/>
			<point x="647" y="1345"/>
			<point x="714" y="1334"/>
			<point x="798" y="1303" type="curve" smooth="yes"/>
			<point x="823" y="1294"/>
			<point x="835" y="1290"/>
			<point x="842" y="1290" type="curve" smooth="yes"/>
			<point x="860" y="1290"/>
			<point x="875" y="1308"/>
			<point x="875" y="1328" type="curve" smooth="yes"/>
			<point x="875" y="1347"/>
			<point x="853" y="1365"/>
			<point x="802" y="1384" type="curve" smooth="yes"/>
			<point x="732" y="1410"/>
			<point x="657" y="1425"/>
			<point x="580" y="1425" type="curve" smooth="yes"/>
			<point x="361" y="1425"/>
			<point x="201" y="1293"/>
			<point x="201" y="1110" type="curve" smooth="yes"/>
			<point x="201" y="967"/>
			<point x="278" y="862"/>
			<point x="497" y="703" type="curve" smooth="yes"/>
			<point x="705" y="552"/>
			<point x="773" y="462"/>
			<point x="773" y="343" type="curve" smooth="yes"/>
			<point x="773" y="186"/>
			<point x="615" y="69"/>
			<point x="399" y="69" type="curve" smooth="yes"/>
			<point x="314" y="69"/>
			<point x="219" y="83"/>
			<point x="151" y="104" type="curve" smooth="yes"/>
			<point x="125" y="112"/>
			<point x="108" y="116"/>
			<point x="95" y="116" type="curve" smooth="yes"/>
			<point x="75" y="116"/>
			<point x="60" y="99"/>
			<point x="60" y="78" type="curve" smooth="yes"/>
			<point x="60" y="62"/>
			<point x="73" y="50"/>
			<point x="99" y="39" type="curve" smooth="yes"/>
			<point x="172" y="8"/>
			<point x="290" y="-11"/>
		</contour>
	</outline>
	<anchor name="bottom" x="411" y="0"/>
	<anchor name="top" x="579" y="1403"/>
</glyph>
<glyph name="T" format="2">
	<unicode hex="0054"/>
	<advance width="998"/>
	<outline>
		<contour>
			<point x="419" y="-11" type="curve" smooth="yes"/>
			<point x="447" y="-11"/>
			<point x="463" y="1"/>
			<point x="465" y="29" type="curve" smooth="yes"/>
			<point x="558" y="1323" type="line"/>
			<point x="976" y="1323" type="line" smooth="yes"/>
			<point x="1006" y="1323"/>
			<point x="1028" y="1340"/>
			<point x="1028" y="1366" type="curve" smooth="yes"/>
			<point x="1028" y="1387"/>
			<point x="1012" y="1400"/>
			<point x="988" y="1400" type="curve" smooth="yes"/>
			<point x="78" y="1400" type="line" smooth="yes"/>
			<point x="47" y="1400"/>
			<point x="30" y="1383"/>
			<point x="30" y="1360" type="curve" smooth="yes"/>
			<point x="30" y="1338"/>
			<point x="47" y="1323"/>
			<point x="75" y="1323" type="curve" smooth="yes"/>
			<point x="474" y="1323" type="line"/>
			<point x="383" y="68" type="line" smooth="yes"/>
			<point x="382" y="54"/>
			<point x="381" y="40"/>
			<point x="381" y="30" type="curve" smooth="yes"/>
			<point x="381" y="0"/>
			<point x="396" y="-11"/>
		</contour>
	</outline>
	<anchor name="bottom" x="438" y="0"/>
	<anchor name="center" x="473" y="717"/>
	<anchor name="top" x="519" y="1400"/>
</glyph>
<glyph name="U" format="2">
	<unicode hex="0055"/>
	<advance width="1281"/>
	<outline>
		<contour>
			<point x="480" y="-11" type="curve" smooth="yes"/>
			<point x="750" y="-11"/>
			<point x="923" y="227"/>
			<point x="1024" y="649" type="curve"/>
			<point x="1015" y="649" type="line"/>
			<point x="1005" y="568"/>
			<point x="995" y="475"/>
			<point x="986" y="379" type="curve" smooth="yes"/>
			<point x="955" y="66" type="line" smooth="yes"/>
			<point x="954" y="55"/>
			<point x="953" y="42"/>
			<point x="953" y="30" type="curve" smooth="yes"/>
			<point x="953" y="0"/>
			<point x="968" y="-11"/>
			<point x="992" y="-11" type="curve" smooth="yes"/>
			<point x="1019" y="-11"/>
			<point x="1035" y="1"/>
			<point x="1037" y="29" type="curve" smooth="yes"/>
			<point x="1128" y="1304" type="line" smooth="yes"/>
			<point x="1130" y="1332"/>
			<point x="1131" y="1350"/>
			<point x="1131" y="1360" type="curve" smooth="yes"/>
			<point x="1131" y="1389"/>
			<point x="1118" y="1400"/>
			<point x="1092" y="1400" type="curve" smooth="yes"/>
			<point x="1063" y="1400"/>
			<point x="1051" y="1384"/>
			<point x="1049" y="1358" type="curve" smooth="yes"/>
			<point x="1002" y="777" type="line"/>
			<point x="882" y="278"/>
			<point x="722" y="69"/>
			<point x="491" y="69" type="curve" smooth="yes"/>
			<point x="336" y="69"/>
			<point x="253" y="152"/>
			<point x="253" y="341" type="curve" smooth="yes"/>
			<point x="253" y="409"/>
			<point x="257" y="457"/>
			<point x="264" y="540" type="curve" smooth="yes"/>
			<point x="329" y="1291" type="line" smooth="yes"/>
			<point x="332" y="1328"/>
			<point x="333" y="1344"/>
			<point x="333" y="1361" type="curve" smooth="yes"/>
			<point x="333" y="1386"/>
			<point x="325" y="1400"/>
			<point x="295" y="1400" type="curve" smooth="yes"/>
			<point x="263" y="1400"/>
			<point x="250" y="1386"/>
			<point x="247" y="1349" type="curve" smooth="yes"/>
			<point x="183" y="570" type="line" smooth="yes"/>
			<point x="175" y="473"/>
			<point x="170" y="407"/>
			<point x="170" y="331" type="curve" smooth="yes"/>
			<point x="170" y="111"/>
			<point x="281" y="-11"/>
		</contour>
	</outline>
	<anchor name="bottom" x="499" y="0"/>
	<anchor name="ogonek" x="992" y="-12"/>
	<anchor name="top" x="677" y="1400"/>
	<anchor name="topright" x="1150" y="1400"/>
</glyph>
<glyph name="V" format="2">
	<unicode hex="0056"/>
	<advance width="1080"/>
	<outline>
		<contour>
			<point x="470" y="-11" type="curve" smooth="yes"/>
			<point x="499" y="-11"/>
			<point x="517" y="1"/>
			<point x="532" y="37" type="curve" smooth="yes"/>
			<point x="1070" y="1326" type="line" smooth="yes"/>
			<point x="1075" y="1338"/>
			<point x="1080" y="1353"/>
			<point x="1080" y="1366" type="curve" smooth="yes"/>
			<point x="1080" y="1387"/>
			<point x="1062" y="1400"/>
			<point x="1036" y="1400" type="curve" smooth="yes"/>
			<point x="1014" y="1400"/>
			<point x="1003" y="1384"/>
			<point x="993" y="1360" type="curve" smooth="yes"/>
			<point x="513" y="210" type="line" smooth="yes"/>
			<point x="496" y="169"/>
			<point x="485" y="136"/>
			<point x="470" y="85" type="curve"/>
			<point x="486" y="84" type="line"/>
			<point x="482" y="130"/>
			<point x="476" y="156"/>
			<point x="461" y="210" type="curve" smooth="yes"/>
			<point x="140" y="1356" type="line" smooth="yes"/>
			<point x="130" y="1392"/>
			<point x="121" y="1400"/>
			<point x="103" y="1400" type="curve" smooth="yes"/>
			<point x="76" y="1400"/>
			<point x="51" y="1387"/>
			<point x="51" y="1360" type="curve" smooth="yes"/>
			<point x="51" y="1349"/>
			<point x="53" y="1341"/>
			<point x="59" y="1318" type="curve" smooth="yes"/>
			<point x="414" y="45" type="line" smooth="yes"/>
			<point x="428" y="-5"/>
			<point x="446" y="-11"/>
		</contour>
	</outline>
	<anchor name="bottom" x="476" y="0"/>
	<anchor name="top" x="574" y="1400"/>
</glyph>
<glyph name="W" format="2">
	<unicode hex="0057"/>
	<advance width="1848"/>
	<outline>
		<contour>
			<point x="464" y="-11" type="curve" smooth="yes"/>
			<point x="495" y="-11"/>
			<point x="511" y="1"/>
			<point x="526" y="41" type="curve" smooth="yes"/>
			<point x="924" y="1104" type="line" smooth="yes"/>
			<point x="957" y="1193"/>
			<point x="971" y="1246"/>
			<point x="980" y="1295" type="curve"/>
			<point x="959" y="1295" type="line"/>
			<point x="966" y="1246"/>
			<point x="975" y="1192"/>
			<point x="994" y="1115" type="curve" smooth="yes"/>
			<point x="1253" y="42" type="line" smooth="yes"/>
			<point x="1264" y="-4"/>
			<point x="1287" y="-11"/>
			<point x="1306" y="-11" type="curve" smooth="yes"/>
			<point x="1333" y="-11"/>
			<point x="1350" y="2"/>
			<point x="1366" y="43" type="curve" smooth="yes"/>
			<point x="1868" y="1328" type="line" smooth="yes"/>
			<point x="1876" y="1348"/>
			<point x="1878" y="1359"/>
			<point x="1878" y="1366" type="curve" smooth="yes"/>
			<point x="1878" y="1387"/>
			<point x="1860" y="1400"/>
			<point x="1840" y="1400" type="curve" smooth="yes"/>
			<point x="1812" y="1400"/>
			<point x="1798" y="1386"/>
			<point x="1788" y="1360" type="curve" smooth="yes"/>
			<point x="1365" y="275" type="line" smooth="yes"/>
			<point x="1335" y="199"/>
			<point x="1320" y="147"/>
			<point x="1302" y="83" type="curve"/>
			<point x="1320" y="81" type="line"/>
			<point x="1310" y="144"/>
			<point x="1301" y="199"/>
			<point x="1280" y="285" type="curve" smooth="yes"/>
			<point x="1035" y="1305" type="line" smooth="yes"/>
			<point x="1023" y="1355"/>
			<point x="1003" y="1368"/>
			<point x="977" y="1368" type="curve" smooth="yes"/>
			<point x="948" y="1368"/>
			<point x="932" y="1359"/>
			<point x="912" y="1306" type="curve" smooth="yes"/>
			<point x="527" y="283" type="line" smooth="yes"/>
			<point x="499" y="209"/>
			<point x="481" y="146"/>
			<point x="466" y="86" type="curve"/>
			<point x="482" y="86" type="line"/>
			<point x="474" y="146"/>
			<point x="463" y="209"/>
			<point x="444" y="285" type="curve" smooth="yes"/>
			<point x="173" y="1349" type="line" smooth="yes"/>
			<point x="162" y="1392"/>
			<point x="148" y="1400"/>
			<point x="124" y="1400" type="curve" smooth="yes"/>
			<point x="99" y="1400"/>
			<point x="80" y="1386"/>
			<point x="80" y="1359" type="curve" smooth="yes"/>
			<point x="80" y="1347"/>
			<point x="81" y="1342"/>
			<point x="83" y="1334" type="curve" smooth="yes"/>
			<point x="417" y="41" type="line" smooth="yes"/>
			<point x="428" y="-2"/>
			<point x="442" y="-11"/>
		</contour>
	</outline>
	<anchor name="bottom" x="880" y="0"/>
	<anchor name="top" x="980" y="1400"/>
</glyph>
<glyph name="X" format="2">
	<unicode hex="0058"/>
	<advance width="1125"/>
	<outline>
		<contour>
			<point x="55" y="-11" type="curve" smooth="yes"/>
			<point x="73" y="-11"/>
			<point x="81" y="-2"/>
			<point x="95" y="15" type="curve" smooth="yes"/>
			<point x="617" y="667" type="line"/>
			<point x="657" y="707" type="line"/>
			<point x="1158" y="1325" type="line" smooth="yes"/>
			<point x="1171" y="1341"/>
			<point x="1175" y="1351"/>
			<point x="1175" y="1363" type="curve" smooth="yes"/>
			<point x="1175" y="1382"/>
			<point x="1158" y="1400"/>
			<point x="1133" y="1400" type="curve" smooth="yes"/>
			<point x="1123" y="1400"/>
			<point x="1113" y="1395"/>
			<point x="1092" y="1369" type="curve" smooth="yes"/>
			<point x="618" y="784" type="line"/>
			<point x="573" y="739" type="line"/>
			<point x="28" y="67" type="line" smooth="yes"/>
			<point x="15" y="51"/>
			<point x="10" y="42"/>
			<point x="10" y="28" type="curve" smooth="yes"/>
			<point x="10" y="10"/>
			<point x="32" y="-11"/>
		</contour>
		<contour>
			<point x="1002" y="-11" type="curve" smooth="yes"/>
			<point x="1027" y="-11"/>
			<point x="1048" y="13"/>
			<point x="1048" y="30" type="curve" smooth="yes"/>
			<point x="1048" y="41"/>
			<point x="1041" y="57"/>
			<point x="1033" y="71" type="curve" smooth="yes"/>
			<point x="303" y="1363" type="line" smooth="yes"/>
			<point x="287" y="1391"/>
			<point x="279" y="1400"/>
			<point x="260" y="1400" type="curve" smooth="yes"/>
			<point x="234" y="1400"/>
			<point x="212" y="1381"/>
			<point x="212" y="1359" type="curve" smooth="yes"/>
			<point x="212" y="1349"/>
			<point x="215" y="1339"/>
			<point x="227" y="1318" type="curve" smooth="yes"/>
			<point x="957" y="34" type="line" smooth="yes"/>
			<point x="978" y="-3"/>
			<point x="986" y="-11"/>
		</contour>
	</outline>
	<anchor name="bottom" x="531" y="0"/>
	<anchor name="top" x="700" y="1400"/>
</glyph>
<glyph name="Y" format="2">
	<unicode hex="0059"/>
	<advance width="983"/>
	<outline>
		<contour>
			<point x="429" y="-11" type="curve" smooth="yes"/>
			<point x="466" y="-11"/>
			<point x="473" y="16"/>
			<point x="474" y="32" type="curve" smooth="yes"/>
			<point x="508" y="576" type="line"/>
			<point x="999" y="1309" type="line" smooth="yes"/>
			<point x="1017" y="1336"/>
			<point x="1023" y="1347"/>
			<point x="1023" y="1362" type="curve" smooth="yes"/>
			<point x="1023" y="1381"/>
			<point x="999" y="1400"/>
			<point x="976" y="1400" type="curve" smooth="yes"/>
			<point x="962" y="1400"/>
			<point x="954" y="1394"/>
			<point x="931" y="1359" type="curve" smooth="yes"/>
			<point x="426" y="588" type="line"/>
			<point x="386" y="58" type="line" smooth="yes"/>
			<point x="385" y="44"/>
			<point x="384" y="30"/>
			<point x="384" y="21" type="curve" smooth="yes"/>
			<point x="384" y="0"/>
			<point x="407" y="-11"/>
		</contour>
		<contour>
			<point x="441" y="572" type="curve"/>
			<point x="495" y="608" type="line"/>
			<point x="130" y="1364" type="line" smooth="yes"/>
			<point x="117" y="1391"/>
			<point x="112" y="1400"/>
			<point x="92" y="1400" type="curve" smooth="yes"/>
			<point x="66" y="1400"/>
			<point x="40" y="1382"/>
			<point x="40" y="1362" type="curve" smooth="yes"/>
			<point x="40" y="1349"/>
			<point x="41" y="1340"/>
			<point x="51" y="1320" type="curve" smooth="yes"/>
			<point x="404" y="618" type="line" smooth="yes"/>
			<point x="422" y="582"/>
			<point x="429" y="575"/>
		</contour>
	</outline>
	<anchor name="bottom" x="430" y="0"/>
	<anchor name="top" x="540" y="1400"/>
	<anchor name="topleft" x="90" y="1402"/>
</glyph>
<glyph name="Z" format="2">
	<unicode hex="005A"/>
	<advance width="1133"/>
	<outline>
		<contour>
			<point x="112" y="0" type="curve" smooth="yes"/>
			<point x="934" y="0" type="line" smooth="yes"/>
			<point x="962" y="0"/>
			<point x="981" y="13"/>
			<point x="981" y="44" type="curve" smooth="yes"/>
			<point x="981" y="67"/>
			<point x="967" y="79"/>
			<point x="940" y="79" type="curve" smooth="yes"/>
			<point x="152" y="79" type="line"/>
			<point x="1077" y="1282" type="line" smooth="yes"/>
			<point x="1097" y="1308"/>
			<point x="1103" y="1327"/>
			<point x="1103" y="1347" type="curve" smooth="yes"/>
			<point x="1103" y="1376"/>
			<point x="1085" y="1400"/>
			<point x="1030" y="1400" type="curve" smooth="yes"/>
			<point x="269" y="1400" type="line" smooth="yes"/>
			<point x="239" y="1400"/>
			<point x="220" y="1388"/>
			<point x="220" y="1358" type="curve" smooth="yes"/>
			<point x="220" y="1333"/>
			<point x="234" y="1321"/>
			<point x="264" y="1321" type="curve" smooth="yes"/>
			<point x="1007" y="1321" type="line"/>
			<point x="83" y="123" type="line" smooth="yes"/>
			<point x="60" y="93"/>
			<point x="50" y="76"/>
			<point x="50" y="55" type="curve" smooth="yes"/>
			<point x="50" y="24"/>
			<point x="70" y="0"/>
		</contour>
	</outline>
	<anchor name="bottom" x="510" y="0"/>
	<anchor name="center" x="592" y="718"/>
	<anchor name="top" x="660" y="1400"/>
	<anchor name="topright" x="1132" y="1400"/>
</glyph>
<glyph name="f" format="2">
	<unicode hex="0066"/>
	<advance width="626"/>
	<outline>
		<contour>
			<point x="250" y="-624" type="curve" smooth="yes"/>
			<point x="377" y="1271" type="line" smooth="yes"/>
			<point x="390" y="1460"/>
			<point x="465" y="1547"/>
			<point x="574" y="1547" type="curve" smooth="yes"/>
			<point x="635" y="1547"/>
			<point x="675" y="1523"/>
			<point x="701" y="1506" type="curve" smooth="yes"/>
			<point x="714" y="1498"/>
			<point x="724" y="1492"/>
			<point x="732" y="1492" type="curve" smooth="yes"/>
			<point x="752" y="1492"/>
			<point x="768" y="1512"/>
			<point x="768" y="1532" type="curve" smooth="yes"/>
			<point x="768" y="1563"/>
			<point x="689" y="1625"/>
			<point x="582" y="1625" type="curve" smooth="yes"/>
			<point x="425" y="1625"/>
			<point x="307" y="1514"/>
			<point x="292" y="1290" type="curve" smooth="yes"/>
			<point x="166" y="-608" type="line" smooth="yes"/>
			<point x="165" y="-620"/>
			<point x="165" y="-622"/>
			<point x="165" y="-630" type="curve" smooth="yes"/>
			<point x="165" y="-656"/>
			<point x="179" y="-670"/>
			<point x="205" y="-670" type="curve" smooth="yes"/>
			<point x="230" y="-670"/>
			<point x="248" y="-656"/>
		</contour>
		<contour>
			<point x="140" y="845" type="curve" smooth="yes"/>
			<point x="589" y="845" type="line" smooth="yes"/>
			<point x="615" y="845"/>
			<point x="634" y="856"/>
			<point x="634" y="886" type="curve" smooth="yes"/>
			<point x="634" y="909"/>
			<point x="620" y="920"/>
			<point x="594" y="920" type="curve" smooth="yes"/>
			<point x="145" y="920" type="line" smooth="yes"/>
			<point x="119" y="920"/>
			<point x="100" y="909"/>
			<point x="100" y="880" type="curve" smooth="yes"/>
			<point x="100" y="856"/>
			<point x="114" y="845"/>
		</contour>
	</outline>
	<guideline x="323" y="454" angle="86.1904"/>
	<guideline x="100" y="870" angle="90"/>
</glyph>
<glyph name="g" format="2">
	<unicode hex="0067"/>
	<advance width="1039"/>
	<outline>
		<contour>
			<point x="417" y="-690" type="curve" smooth="yes"/>
			<point x="648" y="-690"/>
			<point x="779" y="-527"/>
			<point x="803" y="-186" type="curve" smooth="yes"/>
			<point x="876" y="843" type="line" smooth="yes"/>
			<point x="878" y="866"/>
			<point x="879" y="886"/>
			<point x="879" y="891" type="curve" smooth="yes"/>
			<point x="879" y="922"/>
			<point x="867" y="935"/>
			<point x="838" y="935" type="curve" smooth="yes"/>
			<point x="814" y="935"/>
			<point x="796" y="926"/>
			<point x="793" y="881" type="curve" smooth="yes"/>
			<point x="720" y="-161" type="line" smooth="yes"/>
			<point x="698" y="-480"/>
			<point x="598" y="-612"/>
			<point x="427" y="-612" type="curve" smooth="yes"/>
			<point x="342" y="-612"/>
			<point x="275" y="-588"/>
			<point x="205" y="-531" type="curve" smooth="yes"/>
			<point x="184" y="-514"/>
			<point x="175" y="-509"/>
			<point x="164" y="-509" type="curve" smooth="yes"/>
			<point x="146" y="-509"/>
			<point x="125" y="-533"/>
			<point x="125" y="-554" type="curve" smooth="yes"/>
			<point x="125" y="-587"/>
			<point x="239" y="-690"/>
		</contour>
		<contour>
			<point x="333" y="-12" type="curve" smooth="yes"/>
			<point x="513" y="-12"/>
			<point x="700" y="214"/>
			<point x="840" y="691" type="curve"/>
			<point x="794" y="739" type="line"/>
			<point x="679" y="350"/>
			<point x="488" y="66"/>
			<point x="355" y="66" type="curve" smooth="yes"/>
			<point x="262" y="66"/>
			<point x="215" y="157"/>
			<point x="215" y="332" type="curve" smooth="yes"/>
			<point x="215" y="654"/>
			<point x="363" y="857"/>
			<point x="557" y="857" type="curve" smooth="yes"/>
			<point x="644" y="857"/>
			<point x="710" y="834"/>
			<point x="803" y="768" type="curve"/>
			<point x="808" y="844" type="line"/>
			<point x="724" y="907"/>
			<point x="639" y="935"/>
			<point x="553" y="935" type="curve" smooth="yes"/>
			<point x="308" y="935"/>
			<point x="130" y="700"/>
			<point x="130" y="328" type="curve" smooth="yes"/>
			<point x="130" y="108"/>
			<point x="204" y="-12"/>
		</contour>
	</outline>
	<anchor name="top" x="580" y="920"/>
	<guideline x="130" y="328" angle="90"/>
</glyph>
<glyph name="t" format="2">
	<unicode hex="0074"/>
	<advance width="713"/>
	<outline>
		<contour>
			<point x="399" y="-12" type="curve" smooth="yes"/>
			<point x="481" y="-12"/>
			<point x="562" y="23"/>
			<point x="629" y="96" type="curve" smooth="yes"/>
			<point x="655" y="124"/>
			<point x="663" y="140"/>
			<point x="663" y="154" type="curve" smooth="yes"/>
			<point x="663" y="169"/>
			<point x="646" y="186"/>
			<point x="627" y="186" type="curve" smooth="yes"/>
			<point x="618" y="186"/>
			<point x="610" y="181"/>
			<point x="584" y="155" type="curve" smooth="yes"/>
			<point x="523" y="94"/>
			<point x="468" y="66"/>
			<point x="410" y="66" type="curve" smooth="yes"/>
			<point x="329" y="66"/>
			<point x="295" y="110"/>
			<point x="295" y="222" type="curve" smooth="yes"/>
			<point x="295" y="266"/>
			<point x="299" y="326"/>
			<point x="305" y="415" type="curve" smooth="yes"/>
			<point x="362" y="1209" type="line" smooth="yes"/>
			<point x="363" y="1224"/>
			<point x="363" y="1225"/>
			<point x="363" y="1232" type="curve" smooth="yes"/>
			<point x="363" y="1264"/>
			<point x="351" y="1274"/>
			<point x="325" y="1274" type="curve" smooth="yes"/>
			<point x="301" y="1274"/>
			<point x="278" y="1265"/>
			<point x="275" y="1220" type="curve" smooth="yes"/>
			<point x="220" y="418" type="line" smooth="yes"/>
			<point x="212" y="308"/>
			<point x="210" y="261"/>
			<point x="210" y="209" type="curve" smooth="yes"/>
			<point x="210" y="67"/>
			<point x="284" y="-12"/>
		</contour>
		<contour>
			<point x="130" y="845" type="curve" smooth="yes"/>
			<point x="579" y="845" type="line" smooth="yes"/>
			<point x="605" y="845"/>
			<point x="624" y="856"/>
			<point x="624" y="886" type="curve" smooth="yes"/>
			<point x="624" y="909"/>
			<point x="610" y="920"/>
			<point x="584" y="920" type="curve" smooth="yes"/>
			<point x="135" y="920" type="line" smooth="yes"/>
			<point x="109" y="920"/>
			<point x="90" y="909"/>
			<point x="90" y="880" type="curve" smooth="yes"/>
			<point x="90" y="856"/>
			<point x="104" y="845"/>
		</contour>
	</outline>
	<anchor name="bottom" x="398" y="0"/>
	<anchor name="center" x="340" y="574"/>
	<anchor name="top" x="310" y="1096"/>
	<anchor name="topright" x="457" y="1377"/>
</glyph>
<glyph name="cent" format="2">
	<unicode hex="00A2"/>
	<advance width="1200"/>
	<outline>
		<contour>
			<point x="623" y="204" type="curve" smooth="yes"/>
			<point x="757" y="204"/>
			<point x="865" y="263"/>
			<point x="933" y="336" type="curve" smooth="yes"/>
			<point x="961" y="367"/>
			<point x="965" y="382"/>
			<point x="965" y="394" type="curve" smooth="yes"/>
			<point x="965" y="408"/>
			<point x="950" y="420"/>
			<point x="934" y="420" type="curve" smooth="yes"/>
			<point x="922" y="420"/>
			<point x="913" y="412"/>
			<point x="893" y="392" type="curve" smooth="yes"/>
			<point x="827" y="325"/>
			<point x="740" y="279"/>
			<point x="631" y="279" type="curve" smooth="yes"/>
			<point x="442" y="279"/>
			<point x="324" y="418"/>
			<point x="324" y="647" type="curve" smooth="yes"/>
			<point x="324" y="887"/>
			<point x="472" y="1114"/>
			<point x="689" y="1114" type="curve" smooth="yes"/>
			<point x="767" y="1114"/>
			<point x="829" y="1084"/>
			<point x="889" y="1029" type="curve" smooth="yes"/>
			<point x="908" y="1011"/>
			<point x="921" y="1004"/>
			<point x="930" y="1004" type="curve" smooth="yes"/>
			<point x="946" y="1004"/>
			<point x="961" y="1017"/>
			<point x="961" y="1034" type="curve" smooth="yes"/>
			<point x="961" y="1046"/>
			<point x="955" y="1061"/>
			<point x="928" y="1090" type="curve" smooth="yes"/>
			<point x="871" y="1150"/>
			<point x="786" y="1189"/>
			<point x="694" y="1189" type="curve" smooth="yes"/>
			<point x="424" y="1189"/>
			<point x="244" y="929"/>
			<point x="244" y="650" type="curve" smooth="yes"/>
			<point x="244" y="384"/>
			<point x="402" y="204"/>
		</contour>
		<contour>
			<point x="552" y="0" type="curve" smooth="yes"/>
			<point x="568" y="0"/>
			<point x="583" y="11"/>
			<point x="585" y="27" type="curve" smooth="yes"/>
			<point x="772" y="1332" type="line" smooth="yes"/>
			<point x="774" y="1344"/>
			<point x="775" y="1352"/>
			<point x="775" y="1359" type="curve" smooth="yes"/>
			<point x="775" y="1374"/>
			<point x="761" y="1389"/>
			<point x="734" y="1389" type="curve" smooth="yes"/>
			<point x="715" y="1389"/>
			<point x="701" y="1378"/>
			<point x="698" y="1359" type="curve" smooth="yes"/>
			<point x="510" y="50" type="line" smooth="yes"/>
			<point x="509" y="45"/>
			<point x="508" y="37"/>
			<point x="508" y="30" type="curve" smooth="yes"/>
			<point x="508" y="14"/>
			<point x="524" y="0"/>
		</contour>
	</outline>
</glyph>
<glyph name="sterling" format="2">
	<unicode hex="00A3"/>
	<advance width="1200"/>
	<outline>
		<contour>
			<point x="165" y="-11" type="curve" smooth="yes"/>
			<point x="321" y="-11"/>
			<point x="405" y="132"/>
			<point x="444" y="717" type="curve" smooth="yes"/>
			<point x="477" y="1212"/>
			<point x="600" y="1339"/>
			<point x="767" y="1339" type="curve" smooth="yes"/>
			<point x="834" y="1339"/>
			<point x="882" y="1320"/>
			<point x="935" y="1285" type="curve" smooth="yes"/>
			<point x="959" y="1269"/>
			<point x="968" y="1263"/>
			<point x="981" y="1263" type="curve" smooth="yes"/>
			<point x="997" y="1263"/>
			<point x="1008" y="1278"/>
			<point x="1008" y="1292" type="curve" smooth="yes"/>
			<point x="1008" y="1307"/>
			<point x="997" y="1328"/>
			<point x="956" y="1357" type="curve" smooth="yes"/>
			<point x="905" y="1393"/>
			<point x="845" y="1415"/>
			<point x="764" y="1415" type="curve" smooth="yes"/>
			<point x="569" y="1415"/>
			<point x="402" y="1269"/>
			<point x="364" y="737" type="curve" smooth="yes"/>
			<point x="328" y="232"/>
			<point x="280" y="62"/>
			<point x="168" y="62" type="curve" smooth="yes"/>
			<point x="136" y="62"/>
			<point x="116" y="76"/>
			<point x="116" y="99" type="curve" smooth="yes"/>
			<point x="116" y="126"/>
			<point x="149" y="149"/>
			<point x="204" y="149" type="curve" smooth="yes"/>
			<point x="278" y="149"/>
			<point x="351" y="119"/>
			<point x="435" y="81" type="curve" smooth="yes"/>
			<point x="532" y="37"/>
			<point x="643" y="-11"/>
			<point x="774" y="-11" type="curve" smooth="yes"/>
			<point x="949" y="-11"/>
			<point x="1049" y="69"/>
			<point x="1099" y="161" type="curve" smooth="yes"/>
			<point x="1117" y="194"/>
			<point x="1121" y="210"/>
			<point x="1121" y="222" type="curve" smooth="yes"/>
			<point x="1121" y="241"/>
			<point x="1103" y="248"/>
			<point x="1090" y="248" type="curve" smooth="yes"/>
			<point x="1075" y="248"/>
			<point x="1069" y="239"/>
			<point x="1052" y="210" type="curve" smooth="yes"/>
			<point x="1000" y="121"/>
			<point x="919" y="66"/>
			<point x="779" y="66" type="curve" smooth="yes"/>
			<point x="659" y="66"/>
			<point x="556" y="107"/>
			<point x="461" y="147" type="curve" smooth="yes"/>
			<point x="373" y="184"/>
			<point x="292" y="218"/>
			<point x="206" y="218" type="curve" smooth="yes"/>
			<point x="102" y="218"/>
			<point x="41" y="160"/>
			<point x="41" y="93" type="curve" smooth="yes"/>
			<point x="41" y="33"/>
			<point x="93" y="-11"/>
		</contour>
		<contour>
			<point x="166" y="662" type="curve" smooth="yes"/>
			<point x="852" y="662" type="line" smooth="yes"/>
			<point x="878" y="662"/>
			<point x="896" y="675"/>
			<point x="896" y="703" type="curve" smooth="yes"/>
			<point x="896" y="726"/>
			<point x="883" y="737"/>
			<point x="857" y="737" type="curve" smooth="yes"/>
			<point x="171" y="737" type="line" smooth="yes"/>
			<point x="145" y="737"/>
			<point x="127" y="724"/>
			<point x="127" y="696" type="curve" smooth="yes"/>
			<point x="127" y="673"/>
			<point x="141" y="662"/>
		</contour>
	</outline>
</glyph>
<glyph name="yen" format="2">
	<unicode hex="00A5"/>
	<advance width="1200"/>
	<outline>
		<contour>
			<point x="535" y="-11" type="curve" smooth="yes"/>
			<point x="568" y="-11"/>
			<point x="579" y="8"/>
			<point x="581" y="32" type="curve" smooth="yes"/>
			<point x="615" y="576" type="line"/>
			<point x="1105" y="1311" type="line" smooth="yes"/>
			<point x="1121" y="1335"/>
			<point x="1130" y="1349"/>
			<point x="1130" y="1364" type="curve" smooth="yes"/>
			<point x="1130" y="1383"/>
			<point x="1110" y="1400"/>
			<point x="1086" y="1400" type="curve" smooth="yes"/>
			<point x="1072" y="1400"/>
			<point x="1063" y="1393"/>
			<point x="1041" y="1360" type="curve" smooth="yes"/>
			<point x="579" y="663" type="line"/>
			<point x="237" y="1363" type="line" smooth="yes"/>
			<point x="224" y="1390"/>
			<point x="219" y="1400"/>
			<point x="199" y="1400" type="curve" smooth="yes"/>
			<point x="172" y="1400"/>
			<point x="148" y="1382"/>
			<point x="148" y="1362" type="curve" smooth="yes"/>
			<point x="148" y="1351"/>
			<point x="152" y="1339"/>
			<point x="163" y="1317" type="curve" smooth="yes"/>
			<point x="532" y="576" type="line"/>
			<point x="492" y="58" type="line" smooth="yes"/>
			<point x="490" y="32"/>
			<point x="491" y="30"/>
			<point x="491" y="21" type="curve" smooth="yes"/>
			<point x="491" y="0"/>
			<point x="515" y="-11"/>
		</contour>
		<contour>
			<point x="171" y="669" type="curve" smooth="yes"/>
			<point x="512" y="669" type="line"/>
			<point x="477" y="744" type="line"/>
			<point x="176" y="744" type="line" smooth="yes"/>
			<point x="150" y="744"/>
			<point x="131" y="733"/>
			<point x="131" y="703" type="curve" smooth="yes"/>
			<point x="131" y="680"/>
			<point x="145" y="669"/>
		</contour>
		<contour>
			<point x="1018" y="744" type="curve" smooth="yes"/>
			<point x="693" y="744" type="line"/>
			<point x="658" y="669" type="line"/>
			<point x="1013" y="669" type="line" smooth="yes"/>
			<point x="1038" y="669"/>
			<point x="1057" y="680"/>
			<point x="1057" y="709" type="curve" smooth="yes"/>
			<point x="1057" y="733"/>
			<point x="1043" y="744"/>
		</contour>
		<contour>
			<point x="146" y="362" type="curve" smooth="yes"/>
			<point x="988" y="362" type="line" smooth="yes"/>
			<point x="1014" y="362"/>
			<point x="1033" y="373"/>
			<point x="1033" y="403" type="curve" smooth="yes"/>
			<point x="1033" y="426"/>
			<point x="1019" y="437"/>
			<point x="993" y="437" type="curve" smooth="yes"/>
			<point x="151" y="437" type="line" smooth="yes"/>
			<point x="125" y="437"/>
			<point x="106" y="426"/>
			<point x="106" y="397" type="curve" smooth="yes"/>
			<point x="106" y="373"/>
			<point x="120" y="362"/>
		</contour>
	</outline>
</glyph>
<glyph name="ordfeminine" format="2">
	<unicode hex="00AA"/>
	<advance width="821"/>
	<outline>
		<contour>
			<point x="261" y="795" type="curve" smooth="yes"/>
			<point x="411" y="795"/>
			<point x="565" y="976"/>
			<point x="681" y="1358" type="curve"/>
			<point x="640" y="1396" type="line"/>
			<point x="545" y="1084"/>
			<point x="389" y="866"/>
			<point x="282" y="866" type="curve" smooth="yes"/>
			<point x="206" y="866"/>
			<point x="168" y="938"/>
			<point x="168" y="1075" type="curve" smooth="yes"/>
			<point x="168" y="1326"/>
			<point x="289" y="1486"/>
			<point x="448" y="1486" type="curve" smooth="yes"/>
			<point x="520" y="1486"/>
			<point x="575" y="1467"/>
			<point x="649" y="1418" type="curve"/>
			<point x="654" y="1475" type="line"/>
			<point x="581" y="1535"/>
			<point x="510" y="1557"/>
			<point x="442" y="1557" type="curve" smooth="yes"/>
			<point x="239" y="1557"/>
			<point x="90" y="1367"/>
			<point x="90" y="1070" type="curve" smooth="yes"/>
			<point x="90" y="894"/>
			<point x="152" y="795"/>
		</contour>
		<contour>
			<point x="633" y="795" type="curve" smooth="yes"/>
			<point x="658" y="795"/>
			<point x="672" y="808"/>
			<point x="674" y="837" type="curve" smooth="yes"/>
			<point x="718" y="1480" type="line" smooth="yes"/>
			<point x="719" y="1499"/>
			<point x="721" y="1509"/>
			<point x="721" y="1520" type="curve" smooth="yes"/>
			<point x="721" y="1546"/>
			<point x="710" y="1557"/>
			<point x="683" y="1557" type="curve" smooth="yes"/>
			<point x="665" y="1557"/>
			<point x="645" y="1554"/>
			<point x="642" y="1510" type="curve" smooth="yes"/>
			<point x="597" y="850" type="line" smooth="yes"/>
			<point x="596" y="837"/>
			<point x="596" y="831"/>
			<point x="596" y="829" type="curve" smooth="yes"/>
			<point x="596" y="807"/>
			<point x="608" y="795"/>
		</contour>
	</outline>
</glyph>
<glyph name="AE" format="2">
	<unicode hex="00C6"/>
	<advance width="1744"/>
	<outline>
		<contour>
			<point x="924" y="68" type="curve"/>
			<point x="1018" y="1321" type="line"/>
			<point x="1621" y="1321" type="line" smooth="yes"/>
			<point x="1661" y="1321"/>
			<point x="1674" y="1338"/>
			<point x="1674" y="1366" type="curve" smooth="yes"/>
			<point x="1674" y="1386"/>
			<point x="1660" y="1400"/>
			<point x="1631" y="1400" type="curve" smooth="yes"/>
			<point x="996" y="1400" type="line" smooth="yes"/>
			<point x="970" y="1400"/>
			<point x="960" y="1390"/>
			<point x="938" y="1359" type="curve" smooth="yes"/>
			<point x="17" y="67" type="line" smooth="yes"/>
			<point x="5" y="50"/>
			<point x="0" y="40"/>
			<point x="0" y="28" type="curve" smooth="yes"/>
			<point x="0" y="9"/>
			<point x="21" y="-11"/>
			<point x="45" y="-11" type="curve" smooth="yes"/>
			<point x="59" y="-11"/>
			<point x="66" y="-3"/>
			<point x="81" y="18" type="curve" smooth="yes"/>
			<point x="875" y="1138" type="line" smooth="yes"/>
			<point x="904" y="1179"/>
			<point x="930" y="1221"/>
			<point x="953" y="1266" type="curve"/>
			<point x="939" y="1268" type="line"/>
			<point x="932" y="1212"/>
			<point x="923" y="1135"/>
			<point x="918" y="1070" type="curve" smooth="yes"/>
			<point x="840" y="94" type="line" smooth="yes"/>
			<point x="839" y="80"/>
			<point x="838" y="64"/>
			<point x="838" y="56" type="curve" smooth="yes"/>
			<point x="838" y="11"/>
			<point x="861" y="-10"/>
			<point x="915" y="-10" type="curve" smooth="yes"/>
			<point x="1033" y="-10"/>
			<point x="1471" y="-7"/>
			<point x="1562" y="-4" type="curve" smooth="yes"/>
			<point x="1596" y="-3"/>
			<point x="1614" y="8"/>
			<point x="1614" y="41" type="curve" smooth="yes"/>
			<point x="1614" y="60"/>
			<point x="1600" y="75"/>
			<point x="1572" y="75" type="curve" smooth="yes"/>
			<point x="1533" y="75"/>
			<point x="1031" y="72"/>
		</contour>
		<contour>
			<point x="535" y="734" type="curve"/>
			<point x="488" y="660" type="line"/>
			<point x="1446" y="663" type="line" smooth="yes"/>
			<point x="1486" y="663"/>
			<point x="1499" y="676"/>
			<point x="1499" y="707" type="curve" smooth="yes"/>
			<point x="1499" y="725"/>
			<point x="1486" y="743"/>
			<point x="1457" y="743" type="curve" smooth="yes"/>
			<point x="1396" y="743"/>
			<point x="596" y="736"/>
		</contour>
	</outline>
	<anchor name="top" x="1326" y="1400"/>
</glyph>
<glyph name="Oslash" format="2">
	<unicode hex="00D8"/>
	<advance width="1302"/>
	<outline>
		<contour>
			<point x="584" y="-11" type="curve" smooth="yes"/>
			<point x="906" y="-11"/>
			<point x="1182" y="306"/>
			<point x="1182" y="790" type="curve" smooth="yes"/>
			<point x="1182" y="1000"/>
			<point x="1130" y="1154"/>
			<point x="1046" y="1259" type="curve"/>
			<point x="1104" y="1353" type="line" smooth="yes"/>
			<point x="1120" y="1379"/>
			<point x="1125" y="1391"/>
			<point x="1125" y="1402" type="curve" smooth="yes"/>
			<point x="1125" y="1419"/>
			<point x="1106" y="1434"/>
			<point x="1085" y="1434" type="curve" smooth="yes"/>
			<point x="1071" y="1434"/>
			<point x="1062" y="1428"/>
			<point x="1039" y="1391" type="curve" smooth="yes"/>
			<point x="993" y="1317" type="line"/>
			<point x="914" y="1390"/>
			<point x="818" y="1425"/>
			<point x="715" y="1425" type="curve" smooth="yes"/>
			<point x="396" y="1425"/>
			<point x="120" y="1108"/>
			<point x="120" y="620" type="curve" smooth="yes"/>
			<point x="120" y="402"/>
			<point x="174" y="246"/>
			<point x="263" y="139" type="curve"/>
			<point x="201" y="41" type="line" smooth="yes"/>
			<point x="184" y="14"/>
			<point x="179" y="4"/>
			<point x="179" y="-6" type="curve" smooth="yes"/>
			<point x="179" y="-25"/>
			<point x="201" y="-39"/>
			<point x="221" y="-39" type="curve" smooth="yes"/>
			<point x="236" y="-39"/>
			<point x="244" y="-30"/>
			<point x="263" y="0" type="curve" smooth="yes"/>
			<point x="315" y="83" type="line"/>
			<point x="390" y="20"/>
			<point x="485" y="-11"/>
		</contour>
		<contour>
			<point x="205" y="624" type="curve" smooth="yes"/>
			<point x="205" y="1054"/>
			<point x="438" y="1344"/>
			<point x="712" y="1344" type="curve" smooth="yes"/>
			<point x="801" y="1344"/>
			<point x="885" y="1314"/>
			<point x="951" y="1245" type="curve"/>
			<point x="307" y="218" type="line"/>
			<point x="245" y="306"/>
			<point x="205" y="441"/>
		</contour>
		<contour>
			<point x="357" y="155" type="curve"/>
			<point x="1000" y="1179" type="line"/>
			<point x="1059" y="1092"/>
			<point x="1097" y="962"/>
			<point x="1097" y="785" type="curve" smooth="yes"/>
			<point x="1097" y="359"/>
			<point x="865" y="71"/>
			<point x="588" y="71" type="curve" smooth="yes"/>
			<point x="504" y="71"/>
			<point x="424" y="96"/>
		</contour>
	</outline>
	<anchor name="bottom" x="584" y="-11"/>
	<anchor name="center" x="646" y="688"/>
	<anchor name="ogonek" x="984" y="9"/>
	<anchor name="top" x="723" y="1404"/>
	<anchor name="topleft" x="233" y="1258"/>
	<anchor name="topright" x="1375" y="1269"/>
</glyph>
<glyph name="Thorn" format="2">
	<unicode hex="00DE"/>
	<advance width="1095"/>
	<outline>
		<contour>
			<point x="224" y="305" type="line"/>
			<point x="437" y="305" type="line" smooth="yes"/>
			<point x="784" y="305"/>
			<point x="995" y="484"/>
			<point x="995" y="755" type="curve" smooth="yes"/>
			<point x="995" y="988"/>
			<point x="819" y="1142"/>
			<point x="518" y="1142" type="curve" smooth="yes"/>
			<point x="439" y="1142"/>
			<point x="325" y="1134"/>
			<point x="272" y="1129" type="curve"/>
			<point x="266" y="1054" type="line"/>
			<point x="336" y="1060"/>
			<point x="439" y="1064"/>
			<point x="512" y="1064" type="curve" smooth="yes"/>
			<point x="769" y="1064"/>
			<point x="915" y="941"/>
			<point x="915" y="744" type="curve" smooth="yes"/>
			<point x="915" y="537"/>
			<point x="746" y="383"/>
			<point x="444" y="383" type="curve" smooth="yes"/>
			<point x="229" y="383" type="line"/>
		</contour>
		<contour>
			<point x="188" y="-11" type="curve" smooth="yes"/>
			<point x="218" y="-11"/>
			<point x="232" y="3"/>
			<point x="234" y="29" type="curve" smooth="yes"/>
			<point x="319" y="1324" type="line" smooth="yes"/>
			<point x="320" y="1337"/>
			<point x="321" y="1350"/>
			<point x="321" y="1360" type="curve" smooth="yes"/>
			<point x="321" y="1389"/>
			<point x="304" y="1400"/>
			<point x="278" y="1400" type="curve" smooth="yes"/>
			<point x="250" y="1400"/>
			<point x="239" y="1384"/>
			<point x="237" y="1358" type="curve" smooth="yes"/>
			<point x="152" y="65" type="line" smooth="yes"/>
			<point x="151" y="52"/>
			<point x="150" y="39"/>
			<point x="150" y="30" type="curve" smooth="yes"/>
			<point x="150" y="0"/>
			<point x="165" y="-11"/>
		</contour>
	</outline>
	<anchor name="bottom" x="191" y="0"/>
	<anchor name="ogonek" x="157" y="0"/>
	<anchor name="top" x="282" y="1400"/>
	<anchor name="topleft" x="219" y="1400"/>
</glyph>
<glyph name="germandbls" format="2">
	<unicode hex="00DF"/>
	<advance width="993"/>
	<outline>
		<contour>
			<point x="202" y="-12" type="curve" smooth="yes"/>
			<point x="231" y="-12"/>
			<point x="243" y="-3"/>
			<point x="245" y="34" type="curve" smooth="yes"/>
			<point x="314" y="1100" type="line" smooth="yes"/>
			<point x="334" y="1413"/>
			<point x="428" y="1547"/>
			<point x="600" y="1547" type="curve" smooth="yes"/>
			<point x="719" y="1547"/>
			<point x="790" y="1484"/>
			<point x="790" y="1368" type="curve" smooth="yes"/>
			<point x="790" y="1247"/>
			<point x="716" y="1171"/>
			<point x="636" y="1099" type="curve" smooth="yes"/>
			<point x="510" y="985"/>
			<point x="472" y="914"/>
			<point x="472" y="832" type="curve" smooth="yes"/>
			<point x="472" y="734"/>
			<point x="519" y="666"/>
			<point x="656" y="571" type="curve" smooth="yes"/>
			<point x="797" y="473"/>
			<point x="828" y="411"/>
			<point x="828" y="309" type="curve" smooth="yes"/>
			<point x="828" y="185"/>
			<point x="723" y="98"/>
			<point x="494" y="65" type="curve" smooth="yes"/>
			<point x="456" y="60"/>
			<point x="444" y="48"/>
			<point x="444" y="26" type="curve" smooth="yes"/>
			<point x="444" y="-1"/>
			<point x="459" y="-12"/>
			<point x="488" y="-12" type="curve" smooth="yes"/>
			<point x="496" y="-12"/>
			<point x="512" y="-11"/>
			<point x="537" y="-7" type="curve" smooth="yes"/>
			<point x="774" y="35"/>
			<point x="913" y="149"/>
			<point x="913" y="315" type="curve" smooth="yes"/>
			<point x="913" y="443"/>
			<point x="864" y="532"/>
			<point x="713" y="638" type="curve" smooth="yes"/>
			<point x="588" y="726"/>
			<point x="552" y="773"/>
			<point x="552" y="841" type="curve" smooth="yes"/>
			<point x="552" y="911"/>
			<point x="589" y="964"/>
			<point x="695" y="1060" type="curve" smooth="yes"/>
			<point x="780" y="1137"/>
			<point x="870" y="1222"/>
			<point x="870" y="1376" type="curve" smooth="yes"/>
			<point x="870" y="1528"/>
			<point x="764" y="1625"/>
			<point x="610" y="1625" type="curve" smooth="yes"/>
			<point x="387" y="1625"/>
			<point x="252" y="1463"/>
			<point x="230" y="1127" type="curve" smooth="yes"/>
			<point x="164" y="103" type="line" smooth="yes"/>
			<point x="162" y="74"/>
			<point x="160" y="43"/>
			<point x="160" y="28" type="curve" smooth="yes"/>
			<point x="160" y="0"/>
			<point x="169" y="-12"/>
		</contour>
	</outline>
</glyph>
<glyph name="eth" format="2">
	<unicode hex="00F0"/>
	<advance width="1000"/>
	<outline>
		<contour>
			<point x="870" y="599" type="curve" smooth="yes"/>
			<point x="870" y="998"/>
			<point x="700" y="1354"/>
			<point x="440" y="1555" type="curve" smooth="yes"/>
			<point x="403" y="1584"/>
			<point x="376" y="1600"/>
			<point x="357" y="1600" type="curve" smooth="yes"/>
			<point x="334" y="1600"/>
			<point x="322" y="1582"/>
			<point x="322" y="1563" type="curve" smooth="yes"/>
			<point x="322" y="1551"/>
			<point x="329" y="1541"/>
			<point x="350" y="1525" type="curve" smooth="yes"/>
			<point x="629" y="1307"/>
			<point x="785" y="1004"/>
			<point x="785" y="594" type="curve" smooth="yes"/>
			<point x="785" y="234"/>
			<point x="656" y="66"/>
			<point x="466" y="66" type="curve" smooth="yes"/>
			<point x="301" y="66"/>
			<point x="205" y="197"/>
			<point x="205" y="426" type="curve" smooth="yes"/>
			<point x="205" y="685"/>
			<point x="341" y="861"/>
			<point x="563" y="861" type="curve" smooth="yes"/>
			<point x="649" y="861"/>
			<point x="716" y="835"/>
			<point x="785" y="785" type="curve"/>
			<point x="772" y="869" type="line"/>
			<point x="695" y="915"/>
			<point x="631" y="935"/>
			<point x="550" y="935" type="curve" smooth="yes"/>
			<point x="263" y="935"/>
			<point x="120" y="684"/>
			<point x="120" y="415" type="curve" smooth="yes"/>
			<point x="120" y="149"/>
			<point x="258" y="-12"/>
			<point x="458" y="-12" type="curve" smooth="yes"/>
			<point x="701" y="-12"/>
			<point x="870" y="200"/>
		</contour>
		<contour>
			<point x="410" y="1236" type="curve" smooth="yes"/>
			<point x="757" y="1387" type="line" smooth="yes"/>
			<point x="786" y="1400"/>
			<point x="798" y="1410"/>
			<point x="798" y="1428" type="curve" smooth="yes"/>
			<point x="798" y="1446"/>
			<point x="787" y="1468"/>
			<point x="765" y="1468" type="curve" smooth="yes"/>
			<point x="759" y="1468"/>
			<point x="752" y="1466"/>
			<point x="729" y="1456" type="curve" smooth="yes"/>
			<point x="371" y="1300" type="line" smooth="yes"/>
			<point x="346" y="1289"/>
			<point x="337" y="1278"/>
			<point x="337" y="1263" type="curve" smooth="yes"/>
			<point x="337" y="1245"/>
			<point x="351" y="1224"/>
			<point x="373" y="1224" type="curve" smooth="yes"/>
			<point x="378" y="1224"/>
			<point x="385" y="1225"/>
		</contour>
	</outline>
</glyph>
<glyph name="divide" format="2">
	<unicode hex="00F7"/>
	<advance width="1200"/>
	<outline>
		<contour>
			<point x="217" y="748" type="curve" smooth="yes"/>
			<point x="979" y="748" type="line" smooth="yes"/>
			<point x="1018" y="748"/>
			<point x="1030" y="767"/>
			<point x="1030" y="791" type="curve" smooth="yes"/>
			<point x="1030" y="814"/>
			<point x="1013" y="823"/>
			<point x="986" y="823" type="curve" smooth="yes"/>
			<point x="223" y="823" type="line" smooth="yes"/>
			<point x="188" y="823"/>
			<point x="174" y="806"/>
			<point x="174" y="784" type="curve" smooth="yes"/>
			<point x="174" y="760"/>
			<point x="189" y="748"/>
		</contour>
		<contour>
			<point x="581" y="330" type="curve" smooth="yes"/>
			<point x="639" y="330"/>
			<point x="694" y="384"/>
			<point x="694" y="449" type="curve" smooth="yes"/>
			<point x="694" y="505"/>
			<point x="652" y="548"/>
			<point x="594" y="548" type="curve" smooth="yes"/>
			<point x="537" y="548"/>
			<point x="488" y="498"/>
			<point x="488" y="434" type="curve" smooth="yes"/>
			<point x="488" y="369"/>
			<point x="529" y="330"/>
		</contour>
		<contour>
			<point x="625" y="1023" type="curve" smooth="yes"/>
			<point x="683" y="1023"/>
			<point x="738" y="1077"/>
			<point x="738" y="1142" type="curve" smooth="yes"/>
			<point x="738" y="1198"/>
			<point x="696" y="1241"/>
			<point x="638" y="1241" type="curve" smooth="yes"/>
			<point x="581" y="1241"/>
			<point x="532" y="1191"/>
			<point x="532" y="1127" type="curve" smooth="yes"/>
			<point x="532" y="1062"/>
			<point x="573" y="1023"/>
		</contour>
	</outline>
</glyph>
<glyph name="thorn" format="2">
	<unicode hex="00FE"/>
	<advance width="1057"/>
	<outline>
		<contour>
			<point x="130" y="-631" type="curve" smooth="yes"/>
			<point x="130" y="-657"/>
			<point x="144" y="-670"/>
			<point x="172" y="-670" type="curve" smooth="yes"/>
			<point x="197" y="-670"/>
			<point x="215" y="-657"/>
			<point x="217" y="-625" type="curve" smooth="yes"/>
			<point x="355" y="1524" type="line" smooth="yes"/>
			<point x="356" y="1544"/>
			<point x="356" y="1547"/>
			<point x="356" y="1556" type="curve" smooth="yes"/>
			<point x="356" y="1587"/>
			<point x="344" y="1600"/>
			<point x="315" y="1600" type="curve" smooth="yes"/>
			<point x="291" y="1600"/>
			<point x="273" y="1591"/>
			<point x="270" y="1546" type="curve" smooth="yes"/>
			<point x="131" y="-609" type="line" smooth="yes"/>
			<point x="130" y="-621"/>
			<point x="130" y="-627"/>
		</contour>
		<contour>
			<point x="253" y="123" type="curve"/>
			<point x="247" y="44" type="line"/>
			<point x="307" y="9"/>
			<point x="376" y="-12"/>
			<point x="459" y="-12" type="curve" smooth="yes"/>
			<point x="702" y="-12"/>
			<point x="937" y="236"/>
			<point x="937" y="625" type="curve" smooth="yes"/>
			<point x="937" y="833"/>
			<point x="861" y="935"/>
			<point x="716" y="935" type="curve" smooth="yes"/>
			<point x="547" y="935"/>
			<point x="407" y="788"/>
			<point x="282" y="492" type="curve"/>
			<point x="270" y="309" type="line"/>
			<point x="399" y="669"/>
			<point x="560" y="857"/>
			<point x="702" y="857" type="curve" smooth="yes"/>
			<point x="802" y="857"/>
			<point x="852" y="780"/>
			<point x="852" y="611" type="curve" smooth="yes"/>
			<point x="852" y="281"/>
			<point x="659" y="66"/>
			<point x="463" y="66" type="curve" smooth="yes"/>
			<point x="372" y="66"/>
			<point x="309" y="86"/>
		</contour>
	</outline>
</glyph>
<glyph name="Aogonek" format="2">
	<unicode hex="0104"/>
	<advance width="1236"/>
	<outline>
		<contour>
			<point x="95" y="-11" type="curve" smooth="yes"/>
			<point x="113" y="-11"/>
			<point x="125" y="3"/>
			<point x="136" y="29" type="curve" smooth="yes"/>
			<point x="680" y="1329" type="line"/>
			<point x="655" y="1331" type="line"/>
			<point x="1024" y="21" type="line"/>
			<point x="902" y="-79"/>
			<point x="872" y="-177"/>
			<point x="872" y="-250" type="curve" smooth="yes"/>
			<point x="872" y="-334"/>
			<point x="933" y="-386"/>
			<point x="1006" y="-386" type="curve" smooth="yes"/>
			<point x="1079" y="-386"/>
			<point x="1134" y="-354"/>
			<point x="1174" y="-315" type="curve" smooth="yes"/>
			<point x="1192" y="-298"/>
			<point x="1196" y="-287"/>
			<point x="1196" y="-280" type="curve" smooth="yes"/>
			<point x="1196" y="-263"/>
			<point x="1182" y="-249"/>
			<point x="1169" y="-249" type="curve" smooth="yes"/>
			<point x="1159" y="-249"/>
			<point x="1152" y="-253"/>
			<point x="1135" y="-265" type="curve" smooth="yes"/>
			<point x="1098" y="-291"/>
			<point x="1058" y="-309"/>
			<point x="1021" y="-309" type="curve" smooth="yes"/>
			<point x="978" y="-309"/>
			<point x="952" y="-289"/>
			<point x="952" y="-235" type="curve" smooth="yes"/>
			<point x="952" y="-168"/>
			<point x="993" y="-86"/>
			<point x="1090" y="-6" type="curve" smooth="yes"/>
			<point x="1107" y="11"/>
			<point x="1112" y="17"/>
			<point x="1112" y="32" type="curve" smooth="yes"/>
			<point x="1112" y="41"/>
			<point x="1110" y="48"/>
			<point x="1108" y="55" type="curve" smooth="yes"/>
			<point x="727" y="1379" type="line" smooth="yes"/>
			<point x="717" y="1413"/>
			<point x="706" y="1425"/>
			<point x="685" y="1425" type="curve" smooth="yes"/>
			<point x="667" y="1425" type="line" smooth="yes"/>
			<point x="648" y="1425"/>
			<point x="636" y="1413"/>
			<point x="622" y="1381" type="curve" smooth="yes"/>
			<point x="60" y="60" type="line" smooth="yes"/>
			<point x="56" y="51"/>
			<point x="50" y="36"/>
			<point x="50" y="23" type="curve" smooth="yes"/>
			<point x="50" y="2"/>
			<point x="70" y="-11"/>
		</contour>
		<contour>
			<point x="316" y="536" type="line"/>
			<point x="904" y="536" type="line"/>
			<point x="888" y="613" type="line"/>
			<point x="350" y="613" type="line"/>
		</contour>
	</outline>
	<anchor name="bottom" x="604" y="0"/>
	<anchor name="top" x="677" y="1400"/>
	<anchor name="topleft" x="279" y="1400"/>
</glyph>
<glyph name="Eogonek" format="2">
	<unicode hex="0118"/>
	<advance width="1031"/>
	<outline>
		<contour>
			<point x="198" y="-11" type="curve" smooth="yes"/>
			<point x="243" y="-11"/>
			<point x="643" y="-7"/>
			<point x="811" y="-5" type="curve"/>
			<point x="811" y="15" type="line"/>
			<point x="713" y="-62"/>
			<point x="660" y="-161"/>
			<point x="660" y="-250" type="curve" smooth="yes"/>
			<point x="660" y="-334"/>
			<point x="721" y="-386"/>
			<point x="794" y="-386" type="curve" smooth="yes"/>
			<point x="867" y="-386"/>
			<point x="922" y="-354"/>
			<point x="962" y="-315" type="curve" smooth="yes"/>
			<point x="980" y="-298"/>
			<point x="984" y="-287"/>
			<point x="984" y="-280" type="curve" smooth="yes"/>
			<point x="984" y="-263"/>
			<point x="970" y="-249"/>
			<point x="957" y="-249" type="curve" smooth="yes"/>
			<point x="947" y="-249"/>
			<point x="940" y="-253"/>
			<point x="923" y="-265" type="curve" smooth="yes"/>
			<point x="886" y="-291"/>
			<point x="846" y="-309"/>
			<point x="809" y="-309" type="curve" smooth="yes"/>
			<point x="766" y="-309"/>
			<point x="740" y="-289"/>
			<point x="740" y="-235" type="curve" smooth="yes"/>
			<point x="740" y="-168"/>
			<point x="781" y="-86"/>
			<point x="878" y="-6" type="curve" smooth="yes"/>
			<point x="898" y="10"/>
			<point x="904" y="21"/>
			<point x="904" y="41" type="curve" smooth="yes"/>
			<point x="904" y="60"/>
			<point x="891" y="75"/>
			<point x="862" y="75" type="curve" smooth="yes"/>
			<point x="770" y="75"/>
			<point x="328" y="71"/>
			<point x="236" y="68" type="curve"/>
			<point x="282" y="695" type="line"/>
			<point x="411" y="695"/>
			<point x="700" y="698"/>
			<point x="741" y="699" type="curve" smooth="yes"/>
			<point x="776" y="700"/>
			<point x="793" y="713"/>
			<point x="793" y="743" type="curve" smooth="yes"/>
			<point x="793" y="761"/>
			<point x="781" y="778"/>
			<point x="753" y="778" type="curve" smooth="yes"/>
			<point x="707" y="778"/>
			<point x="330" y="773"/>
			<point x="287" y="772" type="curve"/>
			<point x="327" y="1321" type="line"/>
			<point x="909" y="1321" type="line" smooth="yes"/>
			<point x="948" y="1321"/>
			<point x="961" y="1338"/>
			<point x="961" y="1366" type="curve" smooth="yes"/>
			<point x="961" y="1386"/>
			<point x="947" y="1400"/>
			<point x="919" y="1400" type="curve" smooth="yes"/>
			<point x="286" y="1400" type="line" smooth="yes"/>
			<point x="259" y="1400"/>
			<point x="247" y="1386"/>
			<point x="245" y="1358" type="curve" smooth="yes"/>
			<point x="153" y="77" type="line" smooth="yes"/>
			<point x="151" y="53"/>
			<point x="150" y="41"/>
			<point x="150" y="30" type="curve" smooth="yes"/>
			<point x="150" y="-2"/>
			<point x="167" y="-11"/>
		</contour>
	</outline>
	<anchor name="bottom" x="504" y="0"/>
	<anchor name="ogonek" x="840" y="0"/>
	<anchor name="top" x="614" y="1400"/>
	<anchor name="topleft" x="301" y="1400"/>
	<guideline x="940" y="269" angle="90"/>
</glyph>
<glyph name="Iogonek" format="2">
	<unicode hex="012E"/>
	<advance width="474"/>
	<outline>
		<contour>
			<point x="134" y="-386" type="curve" smooth="yes"/>
			<point x="207" y="-386"/>
			<point x="262" y="-354"/>
			<point x="302" y="-315" type="curve" smooth="yes"/>
			<point x="320" y="-298"/>
			<point x="324" y="-287"/>
			<point x="324" y="-280" type="curve" smooth="yes"/>
			<point x="324" y="-263"/>
			<point x="310" y="-249"/>
			<point x="297" y="-249" type="curve" smooth="yes"/>
			<point x="287" y="-249"/>
			<point x="280" y="-253"/>
			<point x="263" y="-265" type="curve" smooth="yes"/>
			<point x="226" y="-291"/>
			<point x="186" y="-309"/>
			<point x="149" y="-309" type="curve" smooth="yes"/>
			<point x="106" y="-309"/>
			<point x="80" y="-289"/>
			<point x="80" y="-235" type="curve" smooth="yes"/>
			<point x="80" y="-168"/>
			<point x="121" y="-89"/>
			<point x="221" y="-7" type="curve" smooth="yes"/>
			<point x="232" y="1"/>
			<point x="237" y="14"/>
			<point x="237" y="29" type="curve" smooth="yes"/>
			<point x="322" y="1324" type="line" smooth="yes"/>
			<point x="323" y="1337"/>
			<point x="324" y="1350"/>
			<point x="324" y="1360" type="curve" smooth="yes"/>
			<point x="324" y="1389"/>
			<point x="307" y="1400"/>
			<point x="281" y="1400" type="curve" smooth="yes"/>
			<point x="253" y="1400"/>
			<point x="242" y="1384"/>
			<point x="240" y="1358" type="curve" smooth="yes"/>
			<point x="155" y="65" type="line" smooth="yes"/>
			<point x="154" y="52"/>
			<point x="153" y="39"/>
			<point x="153" y="30" type="curve" smooth="yes"/>
			<point x="153" y="25"/>
			<point x="153" y="22"/>
			<point x="153" y="17" type="curve"/>
			<point x="32" y="-84"/>
			<point x="0" y="-178"/>
			<point x="0" y="-250" type="curve" smooth="yes"/>
			<point x="0" y="-334"/>
			<point x="61" y="-386"/>
		</contour>
	</outline>
	<guideline x="337" y="1557" angle="90"/>
</glyph>
<glyph name="Eng" format="2">
	<unicode hex="014A"/>
	<advance width="1305"/>
	<outline>
		<contour>
			<point x="757" y="-413" type="curve" smooth="yes"/>
			<point x="924" y="-413"/>
			<point x="1037" y="-314"/>
			<point x="1058" y="-18" type="curve" smooth="yes"/>
			<point x="1152" y="1311" type="line" smooth="yes"/>
			<point x="1154" y="1336"/>
			<point x="1155" y="1349"/>
			<point x="1155" y="1360" type="curve" smooth="yes"/>
			<point x="1155" y="1389"/>
			<point x="1140" y="1400"/>
			<point x="1117" y="1400" type="curve" smooth="yes"/>
			<point x="1092" y="1400"/>
			<point x="1080" y="1387"/>
			<point x="1078" y="1360" type="curve" smooth="yes"/>
			<point x="999" y="267" type="line" smooth="yes"/>
			<point x="995" y="218"/>
			<point x="993" y="167"/>
			<point x="993" y="122" type="curve"/>
			<point x="1010" y="122" type="line"/>
			<point x="993" y="162"/>
			<point x="969" y="209"/>
			<point x="946" y="250" type="curve" smooth="yes"/>
			<point x="338" y="1345" type="line" smooth="yes"/>
			<point x="310" y="1396"/>
			<point x="302" y="1400"/>
			<point x="282" y="1400" type="curve" smooth="yes"/>
			<point x="265" y="1400"/>
			<point x="247" y="1391"/>
			<point x="244" y="1351" type="curve" smooth="yes"/>
			<point x="152" y="75" type="line" smooth="yes"/>
			<point x="150" y="51"/>
			<point x="150" y="40"/>
			<point x="150" y="30" type="curve" smooth="yes"/>
			<point x="150" y="0"/>
			<point x="164" y="-11"/>
			<point x="186" y="-11" type="curve" smooth="yes"/>
			<point x="212" y="-11"/>
			<point x="225" y="2"/>
			<point x="227" y="29" type="curve" smooth="yes"/>
			<point x="307" y="1129" type="line" smooth="yes"/>
			<point x="310" y="1174"/>
			<point x="311" y="1220"/>
			<point x="311" y="1270" type="curve"/>
			<point x="295" y="1269" type="line"/>
			<point x="309" y="1232"/>
			<point x="327" y="1191"/>
			<point x="349" y="1152" type="curve" smooth="yes"/>
			<point x="981" y="22" type="line"/>
			<point x="979" y="-11" type="line" smooth="yes"/>
			<point x="964" y="-263"/>
			<point x="881" y="-335"/>
			<point x="751" y="-335" type="curve" smooth="yes"/>
			<point x="696" y="-335"/>
			<point x="640" y="-327"/>
			<point x="573" y="-294" type="curve" smooth="yes"/>
			<point x="555" y="-285"/>
			<point x="548" y="-284"/>
			<point x="543" y="-284" type="curve" smooth="yes"/>
			<point x="524" y="-284"/>
			<point x="508" y="-306"/>
			<point x="508" y="-326" type="curve" smooth="yes"/>
			<point x="508" y="-341"/>
			<point x="520" y="-352"/>
			<point x="535" y="-360" type="curve" smooth="yes"/>
			<point x="599" y="-396"/>
			<point x="686" y="-413"/>
		</contour>
	</outline>
	<anchor name="bottom" x="589" y="0"/>
	<anchor name="top" x="726" y="1400"/>
</glyph>
<glyph name="OE" format="2">
	<unicode hex="0152"/>
	<advance width="1934"/>
	<outline>
		<contour>
			<point x="584" y="-11" type="curve" smooth="yes"/>
			<point x="782" y="-11"/>
			<point x="979" y="113"/>
			<point x="1091" y="362" type="curve"/>
			<point x="1083" y="361" type="line"/>
			<point x="1073" y="278"/>
			<point x="1069" y="236"/>
			<point x="1062" y="152" type="curve" smooth="yes"/>
			<point x="1057" y="94" type="line" smooth="yes"/>
			<point x="1056" y="80"/>
			<point x="1055" y="64"/>
			<point x="1055" y="56" type="curve" smooth="yes"/>
			<point x="1055" y="11"/>
			<point x="1077" y="-10"/>
			<point x="1129" y="-10" type="curve" smooth="yes"/>
			<point x="1283" y="-10"/>
			<point x="1665" y="-7"/>
			<point x="1757" y="-4" type="curve" smooth="yes"/>
			<point x="1791" y="-3"/>
			<point x="1809" y="8"/>
			<point x="1809" y="41" type="curve" smooth="yes"/>
			<point x="1809" y="60"/>
			<point x="1795" y="75"/>
			<point x="1767" y="75" type="curve" smooth="yes"/>
			<point x="1559" y="75"/>
			<point x="1247" y="72"/>
			<point x="1139" y="68" type="curve"/>
			<point x="1185" y="695" type="line"/>
			<point x="1314" y="695"/>
			<point x="1603" y="698"/>
			<point x="1644" y="699" type="curve" smooth="yes"/>
			<point x="1670" y="700"/>
			<point x="1696" y="712"/>
			<point x="1696" y="743" type="curve" smooth="yes"/>
			<point x="1696" y="761"/>
			<point x="1683" y="779"/>
			<point x="1653" y="779" type="curve" smooth="yes"/>
			<point x="1610" y="779"/>
			<point x="1233" y="772"/>
			<point x="1190" y="772" type="curve"/>
			<point x="1230" y="1321" type="line"/>
			<point x="1812" y="1321" type="line" smooth="yes"/>
			<point x="1851" y="1321"/>
			<point x="1864" y="1338"/>
			<point x="1864" y="1366" type="curve" smooth="yes"/>
			<point x="1864" y="1386"/>
			<point x="1851" y="1400"/>
			<point x="1822" y="1400" type="curve" smooth="yes"/>
			<point x="1189" y="1400" type="line" smooth="yes"/>
			<point x="1162" y="1400"/>
			<point x="1150" y="1386"/>
			<point x="1148" y="1358" type="curve" smooth="yes"/>
			<point x="1141" y="1250" type="line" smooth="yes"/>
			<point x="1136" y="1173"/>
			<point x="1134" y="1114"/>
			<point x="1134" y="1062" type="curve"/>
			<point x="1146" y="1062" type="line"/>
			<point x="1081" y="1294"/>
			<point x="905" y="1425"/>
			<point x="715" y="1425" type="curve" smooth="yes"/>
			<point x="396" y="1425"/>
			<point x="120" y="1107"/>
			<point x="120" y="619" type="curve" smooth="yes"/>
			<point x="120" y="192"/>
			<point x="331" y="-11"/>
		</contour>
		<contour>
			<point x="590" y="71" type="curve" smooth="yes"/>
			<point x="382" y="71"/>
			<point x="205" y="228"/>
			<point x="205" y="630" type="curve" smooth="yes"/>
			<point x="205" y="1052"/>
			<point x="439" y="1344"/>
			<point x="712" y="1344" type="curve" smooth="yes"/>
			<point x="912" y="1344"/>
			<point x="1101" y="1180"/>
			<point x="1101" y="781" type="curve" smooth="yes"/>
			<point x="1101" y="359"/>
			<point x="857" y="71"/>
		</contour>
	</outline>
	<anchor name="bottom" x="997" y="0"/>
	<anchor name="top" x="1101" y="1401"/>
</glyph>
<glyph name="oe" format="2">
	<unicode hex="0153"/>
	<advance width="1551"/>
	<outline>
		<contour>
			<point x="455" y="-12" type="curve" smooth="yes"/>
			<point x="606" y="-12"/>
			<point x="736" y="77"/>
			<point x="813" y="222" type="curve"/>
			<point x="852" y="75"/>
			<point x="955" y="-12"/>
			<point x="1116" y="-12" type="curve" smooth="yes"/>
			<point x="1221" y="-12"/>
			<point x="1324" y="26"/>
			<point x="1399" y="92" type="curve" smooth="yes"/>
			<point x="1427" y="117"/>
			<point x="1441" y="137"/>
			<point x="1441" y="148" type="curve" smooth="yes"/>
			<point x="1441" y="167"/>
			<point x="1421" y="186"/>
			<point x="1405" y="186" type="curve" smooth="yes"/>
			<point x="1396" y="186"/>
			<point x="1388" y="182"/>
			<point x="1361" y="157" type="curve" smooth="yes"/>
			<point x="1300" y="100"/>
			<point x="1212" y="66"/>
			<point x="1125" y="66" type="curve" smooth="yes"/>
			<point x="954" y="66"/>
			<point x="877" y="190"/>
			<point x="877" y="370" type="curve" smooth="yes"/>
			<point x="877" y="382"/>
			<point x="877" y="394"/>
			<point x="878" y="406" type="curve"/>
			<point x="1245" y="408"/>
			<point x="1436" y="546"/>
			<point x="1436" y="737" type="curve" smooth="yes"/>
			<point x="1436" y="855"/>
			<point x="1353" y="935"/>
			<point x="1213" y="935" type="curve" smooth="yes"/>
			<point x="1075" y="935"/>
			<point x="942" y="851"/>
			<point x="862" y="694" type="curve"/>
			<point x="821" y="853"/>
			<point x="710" y="935"/>
			<point x="550" y="935" type="curve" smooth="yes"/>
			<point x="302" y="935"/>
			<point x="120" y="705"/>
			<point x="120" y="395" type="curve" smooth="yes"/>
			<point x="120" y="129"/>
			<point x="245" y="-12"/>
		</contour>
		<contour>
			<point x="455" y="66" type="curve" smooth="yes"/>
			<point x="303" y="66"/>
			<point x="205" y="176"/>
			<point x="205" y="406" type="curve" smooth="yes"/>
			<point x="205" y="656"/>
			<point x="354" y="857"/>
			<point x="550" y="857" type="curve" smooth="yes"/>
			<point x="702" y="857"/>
			<point x="800" y="747"/>
			<point x="800" y="517" type="curve" smooth="yes"/>
			<point x="800" y="267"/>
			<point x="654" y="66"/>
		</contour>
		<contour>
			<point x="884" y="475" type="curve"/>
			<point x="915" y="716"/>
			<point x="1052" y="857"/>
			<point x="1204" y="857" type="curve" smooth="yes"/>
			<point x="1298" y="857"/>
			<point x="1356" y="808"/>
			<point x="1356" y="724" type="curve" smooth="yes"/>
			<point x="1356" y="596"/>
			<point x="1219" y="478"/>
		</contour>
	</outline>
	<anchor name="bottom" x="790" y="0"/>
	<anchor name="top" x="881" y="920"/>
</glyph>
<glyph name="Uogonek" format="2">
	<unicode hex="0172"/>
	<advance width="1281"/>
	<outline>
		<contour>
			<point x="480" y="-11" type="curve" smooth="yes"/>
			<point x="757" y="-11"/>
			<point x="916" y="260"/>
			<point x="1014" y="686" type="curve"/>
			<point x="1002" y="583"/>
			<point x="991" y="471"/>
			<point x="981" y="359" type="curve" smooth="yes"/>
			<point x="955" y="66" type="line" smooth="yes"/>
			<point x="954" y="53"/>
			<point x="953" y="42"/>
			<point x="953" y="30" type="curve" smooth="yes"/>
			<point x="953" y="26"/>
			<point x="953" y="22"/>
			<point x="953" y="17" type="curve"/>
			<point x="832" y="-84"/>
			<point x="800" y="-178"/>
			<point x="800" y="-250" type="curve" smooth="yes"/>
			<point x="800" y="-334"/>
			<point x="861" y="-386"/>
			<point x="934" y="-386" type="curve" smooth="yes"/>
			<point x="1007" y="-386"/>
			<point x="1062" y="-354"/>
			<point x="1102" y="-315" type="curve" smooth="yes"/>
			<point x="1120" y="-298"/>
			<point x="1124" y="-287"/>
			<point x="1124" y="-280" type="curve" smooth="yes"/>
			<point x="1124" y="-263"/>
			<point x="1110" y="-249"/>
			<point x="1097" y="-249" type="curve" smooth="yes"/>
			<point x="1087" y="-249"/>
			<point x="1080" y="-253"/>
			<point x="1063" y="-265" type="curve" smooth="yes"/>
			<point x="1026" y="-291"/>
			<point x="986" y="-309"/>
			<point x="949" y="-309" type="curve" smooth="yes"/>
			<point x="906" y="-309"/>
			<point x="880" y="-289"/>
			<point x="880" y="-235" type="curve" smooth="yes"/>
			<point x="880" y="-168"/>
			<point x="921" y="-89"/>
			<point x="1021" y="-7" type="curve" smooth="yes"/>
			<point x="1032" y="2"/>
			<point x="1037" y="16"/>
			<point x="1037" y="29" type="curve" smooth="yes"/>
			<point x="1128" y="1304" type="line" smooth="yes"/>
			<point x="1130" y="1332"/>
			<point x="1131" y="1350"/>
			<point x="1131" y="1360" type="curve" smooth="yes"/>
			<point x="1131" y="1389"/>
			<point x="1118" y="1400"/>
			<point x="1092" y="1400" type="curve" smooth="yes"/>
			<point x="1063" y="1400"/>
			<point x="1051" y="1384"/>
			<point x="1049" y="1358" type="curve" smooth="yes"/>
			<point x="1021" y="999" type="line"/>
			<point x="911" y="361"/>
			<point x="742" y="69"/>
			<point x="491" y="69" type="curve" smooth="yes"/>
			<point x="336" y="69"/>
			<point x="253" y="152"/>
			<point x="253" y="341" type="curve" smooth="yes"/>
			<point x="253" y="409"/>
			<point x="257" y="457"/>
			<point x="264" y="540" type="curve" smooth="yes"/>
			<point x="329" y="1291" type="line" smooth="yes"/>
			<point x="332" y="1328"/>
			<point x="333" y="1344"/>
			<point x="333" y="1361" type="curve" smooth="yes"/>
			<point x="333" y="1386"/>
			<point x="325" y="1400"/>
			<point x="295" y="1400" type="curve" smooth="yes"/>
			<point x="263" y="1400"/>
			<point x="250" y="1386"/>
			<point x="247" y="1349" type="curve" smooth="yes"/>
			<point x="183" y="570" type="line" smooth="yes"/>
			<point x="175" y="473"/>
			<point x="170" y="407"/>
			<point x="170" y="331" type="curve" smooth="yes"/>
			<point x="170" y="111"/>
			<point x="281" y="-11"/>
		</contour>
	</outline>
	<anchor name="bottom" x="499" y="0"/>
	<anchor name="ogonek" x="1028" y="0"/>
	<anchor name="top" x="682" y="1400"/>
	<anchor name="topright" x="1155" y="1400"/>
</glyph>
<glyph name="Schwa" format="2">
	<unicode hex="018F"/>
	<advance width="1197"/>
	<outline>
		<contour>
			<point x="646" y="1408" type="curve" smooth="yes"/>
			<point x="483" y="1408"/>
			<point x="358" y="1355"/>
			<point x="259" y="1276" type="curve" smooth="yes"/>
			<point x="223" y="1247"/>
			<point x="216" y="1231"/>
			<point x="216" y="1220" type="curve" smooth="yes"/>
			<point x="216" y="1199"/>
			<point x="232" y="1182"/>
			<point x="252" y="1182" type="curve" smooth="yes"/>
			<point x="263" y="1182"/>
			<point x="271" y="1187"/>
			<point x="297" y="1207" type="curve" smooth="yes"/>
			<point x="385" y="1275"/>
			<point x="510" y="1327"/>
			<point x="630" y="1327" type="curve" smooth="yes"/>
			<point x="869" y="1327"/>
			<point x="992" y="1142"/>
			<point x="992" y="836" type="curve" smooth="yes"/>
			<point x="992" y="360"/>
			<point x="741" y="70"/>
			<point x="460" y="70" type="curve" smooth="yes"/>
			<point x="299" y="70"/>
			<point x="200" y="159"/>
			<point x="200" y="312" type="curve" smooth="yes"/>
			<point x="200" y="555"/>
			<point x="481" y="736"/>
			<point x="1019" y="736" type="curve" smooth="yes"/>
			<point x="1038" y="736"/>
			<point x="1052" y="748"/>
			<point x="1052" y="770" type="curve" smooth="yes"/>
			<point x="1052" y="794"/>
			<point x="1036" y="812"/>
			<point x="1019" y="812" type="curve" smooth="yes"/>
			<point x="436" y="812"/>
			<point x="120" y="599"/>
			<point x="120" y="300" type="curve" smooth="yes"/>
			<point x="120" y="119"/>
			<point x="248" y="-10"/>
			<point x="446" y="-10" type="curve" smooth="yes"/>
			<point x="790" y="-10"/>
			<point x="1077" y="303"/>
			<point x="1077" y="843" type="curve" smooth="yes"/>
			<point x="1077" y="1187"/>
			<point x="927" y="1408"/>
		</contour>
	</outline>
</glyph>
<glyph name="schwa" format="2">
	<unicode hex="0259"/>
	<advance width="903"/>
	<outline>
		<contour>
			<point x="480" y="935" type="curve" smooth="yes"/>
			<point x="376" y="935"/>
			<point x="284" y="895"/>
			<point x="214" y="839" type="curve" smooth="yes"/>
			<point x="187" y="817"/>
			<point x="173" y="799"/>
			<point x="173" y="785" type="curve" smooth="yes"/>
			<point x="173" y="767"/>
			<point x="190" y="752"/>
			<point x="207" y="752" type="curve" smooth="yes"/>
			<point x="216" y="752"/>
			<point x="223" y="754"/>
			<point x="248" y="774" type="curve" smooth="yes"/>
			<point x="304" y="818"/>
			<point x="382" y="857"/>
			<point x="471" y="857" type="curve" smooth="yes"/>
			<point x="625" y="857"/>
			<point x="699" y="733"/>
			<point x="699" y="553" type="curve" smooth="yes"/>
			<point x="699" y="247"/>
			<point x="545" y="63"/>
			<point x="372" y="63" type="curve" smooth="yes"/>
			<point x="275" y="63"/>
			<point x="215" y="117"/>
			<point x="215" y="209" type="curve" smooth="yes"/>
			<point x="215" y="355"/>
			<point x="359" y="488"/>
			<point x="715" y="488" type="curve" smooth="yes"/>
			<point x="744" y="488"/>
			<point x="762" y="499"/>
			<point x="762" y="519" type="curve" smooth="yes"/>
			<point x="762" y="541"/>
			<point x="741" y="557"/>
			<point x="715" y="557" type="curve" smooth="yes"/>
			<point x="336" y="557"/>
			<point x="140" y="405"/>
			<point x="140" y="196" type="curve" smooth="yes"/>
			<point x="140" y="70"/>
			<point x="223" y="-15"/>
			<point x="363" y="-15" type="curve" smooth="yes"/>
			<point x="580" y="-15"/>
			<point x="783" y="194"/>
			<point x="783" y="558" type="curve" smooth="yes"/>
			<point x="783" y="787"/>
			<point x="674" y="935"/>
		</contour>
	</outline>
</glyph>
<glyph name="dotaccentcomb" format="2">
	<unicode hex="0307"/>
	<outline>
		<contour>
			<point x="128" y="1154" type="curve" smooth="yes"/>
			<point x="181" y="1154"/>
			<point x="221" y="1194"/>
			<point x="221" y="1248" type="curve" smooth="yes"/>
			<point x="221" y="1288"/>
			<point x="187" y="1322"/>
			<point x="146" y="1322" type="curve" smooth="yes"/>
			<point x="92" y="1322"/>
			<point x="52" y="1283"/>
			<point x="52" y="1229" type="curve" smooth="yes"/>
			<point x="52" y="1188"/>
			<point x="86" y="1154"/>
		</contour>
	</outline>
	<anchor name="_top" x="110" y="920"/>
	<anchor name="top" x="146" y="1322"/>
</glyph>
<glyph name="commaturnedabovecomb" format="2">
	<unicode hex="0312"/>
	<outline>
		<contour>
			<point x="231" y="1440" type="curve" smooth="yes"/>
			<point x="218" y="1440"/>
			<point x="206" y="1432"/>
			<point x="184" y="1397" type="curve" smooth="yes"/>
			<point x="128" y="1311"/>
			<point x="104" y="1221"/>
			<point x="104" y="1144" type="curve" smooth="yes"/>
			<point x="104" y="1099"/>
			<point x="120" y="1085"/>
			<point x="147" y="1085" type="curve" smooth="yes"/>
			<point x="178" y="1085"/>
			<point x="189" y="1103"/>
			<point x="190" y="1149" type="curve" smooth="yes"/>
			<point x="192" y="1230"/>
			<point x="204" y="1282"/>
			<point x="239" y="1357" type="curve" smooth="yes"/>
			<point x="255" y="1392"/>
			<point x="260" y="1404"/>
			<point x="260" y="1414" type="curve" smooth="yes"/>
			<point x="260" y="1430"/>
			<point x="246" y="1440"/>
		</contour>
	</outline>
	<anchor name="_top" x="82" y="910"/>
	<anchor name="top" x="231" y="1440"/>
</glyph>
<glyph name="commaaccentcomb" format="2">
	<unicode hex="0326"/>
	<outline>
		<contour>
			<point x="79" y="-497" type="curve" smooth="yes"/>
			<point x="92" y="-497"/>
			<point x="104" y="-489"/>
			<point x="126" y="-454" type="curve" smooth="yes"/>
			<point x="182" y="-368"/>
			<point x="206" y="-278"/>
			<point x="206" y="-201" type="curve" smooth="yes"/>
			<point x="206" y="-156"/>
			<point x="190" y="-142"/>
			<point x="163" y="-142" type="curve" smooth="yes"/>
			<point x="132" y="-142"/>
			<point x="121" y="-160"/>
			<point x="120" y="-206" type="curve" smooth="yes"/>
			<point x="118" y="-287"/>
			<point x="106" y="-339"/>
			<point x="71" y="-414" type="curve" smooth="yes"/>
			<point x="55" y="-449"/>
			<point x="50" y="-461"/>
			<point x="50" y="-471" type="curve" smooth="yes"/>
			<point x="50" y="-487"/>
			<point x="64" y="-497"/>
		</contour>
	</outline>
	<anchor name="_bottom" x="163" y="0"/>
	<anchor name="bottom" x="116" y="-497"/>
</glyph>
<glyph name="ogonekcomb" format="2">
	<unicode hex="0328"/>
	<outline>
		<contour>
			<point x="184" y="-386" type="curve" smooth="yes"/>
			<point x="257" y="-386"/>
			<point x="312" y="-354"/>
			<point x="352" y="-315" type="curve" smooth="yes"/>
			<point x="370" y="-298"/>
			<point x="374" y="-287"/>
			<point x="374" y="-280" type="curve" smooth="yes"/>
			<point x="374" y="-263"/>
			<point x="360" y="-249"/>
			<point x="347" y="-249" type="curve" smooth="yes"/>
			<point x="337" y="-249"/>
			<point x="330" y="-253"/>
			<point x="313" y="-265" type="curve" smooth="yes"/>
			<point x="276" y="-291"/>
			<point x="236" y="-309"/>
			<point x="199" y="-309" type="curve" smooth="yes"/>
			<point x="156" y="-309"/>
			<point x="130" y="-289"/>
			<point x="130" y="-235" type="curve" smooth="yes"/>
			<point x="130" y="-168"/>
			<point x="171" y="-86"/>
			<point x="268" y="-6" type="curve" smooth="yes"/>
			<point x="285" y="8"/>
			<point x="286" y="16"/>
			<point x="286" y="22" type="curve" smooth="yes"/>
			<point x="286" y="37"/>
			<point x="278" y="58"/>
			<point x="262" y="58" type="curve" smooth="yes"/>
			<point x="251" y="58"/>
			<point x="239" y="51"/>
			<point x="204" y="22" type="curve" smooth="yes"/>
			<point x="81" y="-78"/>
			<point x="50" y="-177"/>
			<point x="50" y="-250" type="curve" smooth="yes"/>
			<point x="50" y="-334"/>
			<point x="111" y="-386"/>
		</contour>
	</outline>
	<anchor name="_ogonek" x="230" y="0"/>
</glyph>
<glyph name="barcomb" format="2">
	<unicode hex="0335"/>
	<outline>
		<contour>
			<point x="90" y="791" type="curve" smooth="yes"/>
			<point x="539" y="791" type="line" smooth="yes"/>
			<point x="565" y="791"/>
			<point x="584" y="802"/>
			<point x="584" y="832" type="curve" smooth="yes"/>
			<point x="584" y="855"/>
			<point x="570" y="866"/>
			<point x="544" y="866" type="curve" smooth="yes"/>
			<point x="95" y="866" type="line" smooth="yes"/>
			<point x="69" y="866"/>
			<point x="50" y="855"/>
			<point x="50" y="826" type="curve" smooth="yes"/>
			<point x="50" y="802"/>
			<point x="64" y="791"/>
		</contour>
	</outline>
	<anchor name="_center" x="317" y="829"/>
</glyph>
<glyph name="Germandbls" format="2">
	<unicode hex="1E9E"/>
	<advance width="1261"/>
	<outline>
		<contour>
			<point x="198" y="-11" type="curve" smooth="yes"/>
			<point x="227" y="-11"/>
			<point x="242" y="2"/>
			<point x="244" y="29" type="curve" smooth="yes"/>
			<point x="329" y="1322" type="line"/>
			<point x="939" y="1322" type="line"/>
			<point x="669" y="1060"/>
			<point x="616" y="970"/>
			<point x="616" y="857" type="curve" smooth="yes"/>
			<point x="616" y="717"/>
			<point x="714" y="641"/>
			<point x="810" y="568" type="curve" smooth="yes"/>
			<point x="906" y="495"/>
			<point x="996" y="420"/>
			<point x="996" y="287" type="curve" smooth="yes"/>
			<point x="996" y="153"/>
			<point x="888" y="69"/>
			<point x="744" y="69" type="curve" smooth="yes"/>
			<point x="657" y="69"/>
			<point x="588" y="87"/>
			<point x="539" y="102" type="curve" smooth="yes"/>
			<point x="513" y="110"/>
			<point x="493" y="115"/>
			<point x="479" y="115" type="curve" smooth="yes"/>
			<point x="459" y="115"/>
			<point x="446" y="97"/>
			<point x="446" y="77" type="curve" smooth="yes"/>
			<point x="446" y="61"/>
			<point x="458" y="49"/>
			<point x="485" y="38" type="curve" smooth="yes"/>
			<point x="537" y="16"/>
			<point x="622" y="-11"/>
			<point x="736" y="-11" type="curve" smooth="yes"/>
			<point x="940" y="-11"/>
			<point x="1081" y="110"/>
			<point x="1081" y="299" type="curve" smooth="yes"/>
			<point x="1081" y="467"/>
			<point x="969" y="559"/>
			<point x="864" y="639" type="curve" smooth="yes"/>
			<point x="777" y="706"/>
			<point x="698" y="767"/>
			<point x="698" y="863" type="curve" smooth="yes"/>
			<point x="698" y="947"/>
			<point x="735" y="1016"/>
			<point x="994" y="1272" type="curve" smooth="yes"/>
			<point x="1038" y="1316"/>
			<point x="1047" y="1330"/>
			<point x="1047" y="1350" type="curve" smooth="yes"/>
			<point x="1047" y="1379"/>
			<point x="1031" y="1400"/>
			<point x="998" y="1400" type="curve" smooth="yes"/>
			<point x="288" y="1400" type="line" smooth="yes"/>
			<point x="260" y="1400"/>
			<point x="249" y="1385"/>
			<point x="247" y="1358" type="curve" smooth="yes"/>
			<point x="162" y="68" type="line" smooth="yes"/>
			<point x="161" y="54"/>
			<point x="160" y="40"/>
			<point x="160" y="30" type="curve" smooth="yes"/>
			<point x="160" y="0"/>
			<point x="175" y="-11"/>
		</contour>
	</outline>
</glyph>
<glyph name="guilsinglleft" format="2">
	<unicode hex="2039"/>
	<advance width="730"/>
	<outline>
		<contour>
			<point x="536" y="880" type="curve" smooth="yes"/>
			<point x="523" y="880"/>
			<point x="512" y="872"/>
			<point x="487" y="845" type="curve" smooth="yes"/>
			<point x="396" y="748"/>
			<point x="301" y="660"/>
			<point x="234" y="604" type="curve" smooth="yes"/>
			<point x="175" y="554"/>
			<point x="150" y="533"/>
			<point x="150" y="504" type="curve" smooth="yes"/>
			<point x="150" y="475"/>
			<point x="174" y="455"/>
			<point x="216" y="410" type="curve" smooth="yes"/>
			<point x="286" y="334"/>
			<point x="369" y="242"/>
			<point x="414" y="190" type="curve" smooth="yes"/>
			<point x="440" y="160"/>
			<point x="452" y="149"/>
			<point x="467" y="149" type="curve" smooth="yes"/>
			<point x="486" y="149"/>
			<point x="503" y="167"/>
			<point x="503" y="186" type="curve" smooth="yes"/>
			<point x="503" y="206"/>
			<point x="495" y="221"/>
			<point x="450" y="269" type="curve" smooth="yes"/>
			<point x="430" y="291"/>
			<point x="292" y="439"/>
			<point x="216" y="508" type="curve"/>
			<point x="218" y="494" type="line"/>
			<point x="317" y="574"/>
			<point x="400" y="649"/>
			<point x="503" y="752" type="curve" smooth="yes"/>
			<point x="566" y="815"/>
			<point x="570" y="832"/>
			<point x="570" y="845" type="curve" smooth="yes"/>
			<point x="570" y="867"/>
			<point x="553" y="880"/>
		</contour>
	</outline>
</glyph>
<glyph name="fraction" format="2">
	<unicode hex="2044"/>
	<advance width="393"/>
	<outline>
		<contour>
			<point x="-241" y="-85" type="curve" smooth="yes"/>
			<point x="-227" y="-85"/>
			<point x="-215" y="-77"/>
			<point x="-209" y="-66" type="curve" smooth="yes"/>
			<point x="667" y="1466" type="line" smooth="yes"/>
			<point x="670" y="1472"/>
			<point x="673" y="1479"/>
			<point x="673" y="1486" type="curve" smooth="yes"/>
			<point x="673" y="1507"/>
			<point x="656" y="1524"/>
			<point x="635" y="1524" type="curve" smooth="yes"/>
			<point x="621" y="1524"/>
			<point x="609" y="1516"/>
			<point x="603" y="1505" type="curve" smooth="yes"/>
			<point x="-273" y="-27" type="line" smooth="yes"/>
			<point x="-276" y="-33"/>
			<point x="-279" y="-40"/>
			<point x="-279" y="-47" type="curve" smooth="yes"/>
			<point x="-279" y="-68"/>
			<point x="-262" y="-85"/>
		</contour>
	</outline>
</glyph>
<glyph name="sixsuperior" format="2">
	<unicode hex="2076"/>
	<advance width="728"/>
	<outline>
		<contour>
			<point x="361" y="989" type="curve" smooth="yes"/>
			<point x="511" y="989"/>
			<point x="648" y="1129"/>
			<point x="648" y="1303" type="curve" smooth="yes"/>
			<point x="648" y="1439"/>
			<point x="561" y="1522"/>
			<point x="444" y="1522" type="curve" smooth="yes"/>
			<point x="324" y="1522"/>
			<point x="213" y="1448"/>
			<point x="131" y="1342" type="curve"/>
			<point x="166" y="1305" type="line"/>
			<point x="249" y="1397"/>
			<point x="345" y="1449"/>
			<point x="430" y="1449" type="curve" smooth="yes"/>
			<point x="513" y="1449"/>
			<point x="568" y="1389"/>
			<point x="568" y="1293" type="curve" smooth="yes"/>
			<point x="568" y="1162"/>
			<point x="474" y="1065"/>
			<point x="367" y="1065" type="curve" smooth="yes"/>
			<point x="251" y="1065"/>
			<point x="172" y="1152"/>
			<point x="172" y="1345" type="curve" smooth="yes"/>
			<point x="172" y="1588"/>
			<point x="297" y="1748"/>
			<point x="470" y="1748" type="curve" smooth="yes"/>
			<point x="505" y="1748"/>
			<point x="536" y="1742"/>
			<point x="571" y="1731" type="curve" smooth="yes"/>
			<point x="587" y="1726"/>
			<point x="597" y="1723"/>
			<point x="605" y="1723" type="curve" smooth="yes"/>
			<point x="623" y="1723"/>
			<point x="636" y="1748"/>
			<point x="636" y="1765" type="curve" smooth="yes"/>
			<point x="636" y="1781"/>
			<point x="622" y="1792"/>
			<point x="594" y="1804" type="curve" smooth="yes"/>
			<point x="561" y="1818"/>
			<point x="519" y="1828"/>
			<point x="469" y="1828" type="curve" smooth="yes"/>
			<point x="253" y="1828"/>
			<point x="90" y="1622"/>
			<point x="90" y="1344" type="curve" smooth="yes"/>
			<point x="90" y="1116"/>
			<point x="204" y="989"/>
		</contour>
	</outline>
</glyph>
<glyph name="ninesuperior" format="2">
	<unicode hex="2079"/>
	<advance width="729"/>
	<outline>
		<contour>
			<point x="576" y="1401" type="curve"/>
			<point x="552" y="1437" type="line"/>
			<point x="499" y="1400"/>
			<point x="426" y="1369"/>
			<point x="344" y="1369" type="curve" smooth="yes"/>
			<point x="228" y="1369"/>
			<point x="160" y="1434"/>
			<point x="160" y="1533" type="curve" smooth="yes"/>
			<point x="160" y="1657"/>
			<point x="253" y="1752"/>
			<point x="371" y="1752" type="curve" smooth="yes"/>
			<point x="477" y="1752"/>
			<point x="557" y="1683"/>
			<point x="557" y="1537" type="curve" smooth="yes"/>
			<point x="557" y="1412"/>
			<point x="499" y="1297"/>
			<point x="300" y="1068" type="curve" smooth="yes"/>
			<point x="276" y="1040"/>
			<point x="266" y="1030"/>
			<point x="266" y="1013" type="curve" smooth="yes"/>
			<point x="266" y="992"/>
			<point x="287" y="977"/>
			<point x="308" y="977" type="curve" smooth="yes"/>
			<point x="325" y="977"/>
			<point x="334" y="987"/>
			<point x="362" y="1018" type="curve" smooth="yes"/>
			<point x="571" y="1248"/>
			<point x="639" y="1400"/>
			<point x="639" y="1559" type="curve" smooth="yes"/>
			<point x="639" y="1719"/>
			<point x="533" y="1828"/>
			<point x="379" y="1828" type="curve" smooth="yes"/>
			<point x="215" y="1828"/>
			<point x="80" y="1693"/>
			<point x="80" y="1528" type="curve" smooth="yes"/>
			<point x="80" y="1396"/>
			<point x="178" y="1296"/>
			<point x="327" y="1296" type="curve" smooth="yes"/>
			<point x="430" y="1296"/>
			<point x="519" y="1340"/>
		</contour>
	</outline>
</glyph>
<glyph name="euro" format="2">
	<unicode hex="20AC"/>
	<advance width="1200"/>
	<outline>
		<contour>
			<point x="743" y="-11" type="curve" smooth="yes"/>
			<point x="880" y="-11"/>
			<point x="1017" y="45"/>
			<point x="1092" y="123" type="curve" smooth="yes"/>
			<point x="1113" y="144"/>
			<point x="1124" y="164"/>
			<point x="1124" y="178" type="curve" smooth="yes"/>
			<point x="1124" y="195"/>
			<point x="1109" y="207"/>
			<point x="1095" y="207" type="curve" smooth="yes"/>
			<point x="1082" y="207"/>
			<point x="1073" y="197"/>
			<point x="1049" y="178" type="curve" smooth="yes"/>
			<point x="969" y="114"/>
			<point x="875" y="69"/>
			<point x="754" y="69" type="curve" smooth="yes"/>
			<point x="502" y="69"/>
			<point x="356" y="254"/>
			<point x="356" y="616" type="curve" smooth="yes"/>
			<point x="356" y="1018"/>
			<point x="545" y="1335"/>
			<point x="838" y="1335" type="curve" smooth="yes"/>
			<point x="905" y="1335"/>
			<point x="971" y="1319"/>
			<point x="1039" y="1282" type="curve" smooth="yes"/>
			<point x="1068" y="1266"/>
			<point x="1084" y="1254"/>
			<point x="1100" y="1254" type="curve" smooth="yes"/>
			<point x="1120" y="1254"/>
			<point x="1130" y="1275"/>
			<point x="1130" y="1287" type="curve" smooth="yes"/>
			<point x="1130" y="1302"/>
			<point x="1115" y="1323"/>
			<point x="1070" y="1351" type="curve" smooth="yes"/>
			<point x="1001" y="1394"/>
			<point x="919" y="1415"/>
			<point x="835" y="1415" type="curve" smooth="yes"/>
			<point x="495" y="1415"/>
			<point x="276" y="1050"/>
			<point x="276" y="620" type="curve" smooth="yes"/>
			<point x="276" y="212"/>
			<point x="461" y="-11"/>
		</contour>
		<contour>
			<point x="186" y="794" type="curve" smooth="yes"/>
			<point x="814" y="794" type="line" smooth="yes"/>
			<point x="839" y="794"/>
			<point x="858" y="806"/>
			<point x="858" y="835" type="curve" smooth="yes"/>
			<point x="858" y="858"/>
			<point x="844" y="869"/>
			<point x="819" y="869" type="curve" smooth="yes"/>
			<point x="191" y="869" type="line" smooth="yes"/>
			<point x="165" y="869"/>
			<point x="147" y="856"/>
			<point x="147" y="829" type="curve" smooth="yes"/>
			<point x="147" y="805"/>
			<point x="161" y="794"/>
		</contour>
		<contour>
			<point x="158" y="553" type="curve" smooth="yes"/>
			<point x="785" y="553" type="line" smooth="yes"/>
			<point x="811" y="553"/>
			<point x="829" y="566"/>
			<point x="829" y="594" type="curve" smooth="yes"/>
			<point x="829" y="617"/>
			<point x="816" y="628"/>
			<point x="790" y="628" type="curve" smooth="yes"/>
			<point x="163" y="628" type="line" smooth="yes"/>
			<point x="137" y="628"/>
			<point x="119" y="615"/>
			<point x="119" y="588" type="curve" smooth="yes"/>
			<point x="119" y="564"/>
			<point x="133" y="553"/>
		</contour>
	</outline>
</glyph>
<glyph name="notequal" format="2">
	<unicode hex="2260"/>
	<advance width="1200"/>
	<outline>
		<contour>
			<point x="205" y="973" type="curve" smooth="yes"/>
			<point x="967" y="973" type="line" smooth="yes"/>
			<point x="1006" y="973"/>
			<point x="1018" y="992"/>
			<point x="1018" y="1016" type="curve" smooth="yes"/>
			<point x="1018" y="1039"/>
			<point x="1001" y="1048"/>
			<point x="974" y="1048" type="curve" smooth="yes"/>
			<point x="211" y="1048" type="line" smooth="yes"/>
			<point x="176" y="1048"/>
			<point x="162" y="1031"/>
			<point x="162" y="1009" type="curve" smooth="yes"/>
			<point x="162" y="985"/>
			<point x="177" y="973"/>
		</contour>
		<contour>
			<point x="183" y="588" type="curve" smooth="yes"/>
			<point x="945" y="588" type="line" smooth="yes"/>
			<point x="984" y="588"/>
			<point x="996" y="607"/>
			<point x="996" y="631" type="curve" smooth="yes"/>
			<point x="996" y="654"/>
			<point x="979" y="663"/>
			<point x="952" y="663" type="curve" smooth="yes"/>
			<point x="189" y="663" type="line" smooth="yes"/>
			<point x="154" y="663"/>
			<point x="140" y="646"/>
			<point x="140" y="624" type="curve" smooth="yes"/>
			<point x="140" y="600"/>
			<point x="155" y="588"/>
		</contour>
		<contour>
			<point x="387" y="313" type="curve" smooth="yes"/>
			<point x="407" y="313"/>
			<point x="418" y="326"/>
			<point x="424" y="341" type="curve" smooth="yes"/>
			<point x="820" y="1255" type="line" smooth="yes"/>
			<point x="823" y="1262"/>
			<point x="824" y="1267"/>
			<point x="824" y="1271" type="curve" smooth="yes"/>
			<point x="824" y="1289"/>
			<point x="809" y="1308"/>
			<point x="786" y="1308" type="curve" smooth="yes"/>
			<point x="767" y="1308"/>
			<point x="757" y="1300"/>
			<point x="748" y="1278" type="curve" smooth="yes"/>
			<point x="352" y="362" type="line" smooth="yes"/>
			<point x="350" y="358"/>
			<point x="348" y="351"/>
			<point x="348" y="345" type="curve" smooth="yes"/>
			<point x="348" y="325"/>
			<point x="366" y="313"/>
		</contour>
	</outline>
</glyph>
<glyph name="whitesquare" format="2">
	<unicode hex="25A1"/>
	<advance width="1708"/>
	<outline>
		<contour>
			<point x="427" y="301" type="line"/>
			<point x="1281" y="301" type="line"/>
			<point x="1281" y="1155" type="line"/>
			<point x="427" y="1155" type="line"/>
		</contour>
		<contour>
			<point x="505" y="379" type="line"/>
			<point x="505" y="1077" type="line"/>
			<point x="1203" y="1077" type="line"/>
			<point x="1203" y="379" type="line"/>
		</contour>
	</outline>
</glyph>
<glyph name="ballotBox" format="2">
	<unicode hex="2610"/>
	<advance width="1931"/>
	<outline>
		<contour>
			<point x="260" y="47" type="curve" smooth="yes"/>
			<point x="1671" y="47" type="line" smooth="yes"/>
			<point x="1710" y="47"/>
			<point x="1731" y="68"/>
			<point x="1731" y="107" type="curve" smooth="yes"/>
			<point x="1731" y="1517" type="line" smooth="yes"/>
			<point x="1731" y="1556"/>
			<point x="1710" y="1577"/>
			<point x="1671" y="1577" type="curve" smooth="yes"/>
			<point x="260" y="1577" type="line" smooth="yes"/>
			<point x="221" y="1577"/>
			<point x="200" y="1556"/>
			<point x="200" y="1517" type="curve" smooth="yes"/>
			<point x="200" y="107" type="line" smooth="yes"/>
			<point x="200" y="68"/>
			<point x="221" y="47"/>
		</contour>
		<contour>
			<point x="280" y="127" type="line"/>
			<point x="280" y="1497" type="line"/>
			<point x="1651" y="1497" type="line"/>
			<point x="1651" y="127" type="line"/>
		</contour>
	</outline>
	<anchor name="check" x="840" y="340"/>
</glyph>
<glyph name="slightlySmilingFace" format="2">
	<unicode hex="1F642"/>
	<advance width="1978"/>
	<outline>
		<contour>
			<point x="1467" y="1629" type="curve" smooth="yes"/>
			<point x="1467" y="1598"/>
			<point x="1482" y="1586"/>
			<point x="1512" y="1574" type="curve" smooth="yes"/>
			<point x="1557" y="1556"/>
			<point x="1583" y="1499"/>
			<point x="1583" y="1319" type="curve" smooth="yes"/>
			<point x="1583" y="559"/>
			<point x="1079" y="-240"/>
			<point x="703" y="-240" type="curve" smooth="yes"/>
			<point x="551" y="-240"/>
			<point x="423" y="-28"/>
			<point x="423" y="402" type="curve" smooth="yes"/>
			<point x="423" y="1008"/>
			<point x="798" y="1552"/>
			<point x="1030" y="1552" type="curve" smooth="yes"/>
			<point x="1052" y="1552"/>
			<point x="1066" y="1536"/>
			<point x="1074" y="1524" type="curve" smooth="yes"/>
			<point x="1083" y="1511"/>
			<point x="1094" y="1499"/>
			<point x="1115" y="1499" type="curve" smooth="yes"/>
			<point x="1147" y="1499"/>
			<point x="1167" y="1524"/>
			<point x="1167" y="1551" type="curve" smooth="yes"/>
			<point x="1167" y="1608"/>
			<point x="1116" y="1662"/>
			<point x="1040" y="1662" type="curve" smooth="yes"/>
			<point x="765" y="1662"/>
			<point x="348" y="1079"/>
			<point x="348" y="466" type="curve" smooth="yes"/>
			<point x="348" y="-127"/>
			<point x="526" y="-325"/>
			<point x="726" y="-325" type="curve" smooth="yes"/>
			<point x="1111" y="-325"/>
			<point x="1678" y="475"/>
			<point x="1678" y="1328" type="curve" smooth="yes"/>
			<point x="1678" y="1594"/>
			<point x="1616" y="1678"/>
			<point x="1526" y="1678" type="curve" smooth="yes"/>
			<point x="1490" y="1678"/>
			<point x="1467" y="1663"/>
		</contour>
		<contour>
			<point x="772" y="1101" type="curve" smooth="yes"/>
			<point x="737" y="1101"/>
			<point x="706" y="1076"/>
			<point x="706" y="1039" type="curve" smooth="yes"/>
			<point x="706" y="993"/>
			<point x="744" y="958"/>
			<point x="790" y="958" type="curve" smooth="yes"/>
			<point x="824" y="958"/>
			<point x="858" y="986"/>
			<point x="858" y="1024" type="curve" smooth="yes"/>
			<point x="858" y="1063"/>
			<point x="827" y="1101"/>
		</contour>
		<contour>
			<point x="1176" y="1021" type="curve" smooth="yes"/>
			<point x="1138" y="1021"/>
			<point x="1106" y="995"/>
			<point x="1106" y="962" type="curve" smooth="yes"/>
			<point x="1106" y="910"/>
			<point x="1144" y="879"/>
			<point x="1191" y="879" type="curve" smooth="yes"/>
			<point x="1223" y="879"/>
			<point x="1259" y="910"/>
			<point x="1259" y="945" type="curve" smooth="yes"/>
			<point x="1259" y="984"/>
			<point x="1230" y="1021"/>
		</contour>
		<contour>
			<point x="300" y="558" type="curve" smooth="yes"/>
			<point x="300" y="462"/>
			<point x="452" y="218"/>
			<point x="743" y="218" type="curve" smooth="yes"/>
			<point x="975" y="218"/>
			<point x="1133" y="349"/>
			<point x="1133" y="411" type="curve" smooth="yes"/>
			<point x="1133" y="432"/>
			<point x="1117" y="451"/>
			<point x="1092" y="451" type="curve" smooth="yes"/>
			<point x="1079" y="451"/>
			<point x="1062" y="439"/>
			<point x="1040" y="423" type="curve" smooth="yes"/>
			<point x="953" y="354"/>
			<point x="857" y="308"/>
			<point x="737" y="308" type="curve" smooth="yes"/>
			<point x="587" y="308"/>
			<point x="484" y="374"/>
			<point x="409" y="491" type="curve"/>
			<point x="356" y="603" type="line"/>
			<point x="324" y="603"/>
			<point x="300" y="586"/>
		</contour>
	</outline>
</glyph>
<glyph name="J.ss06" format="2">
	<advance width="957"/>
	<outline>
		<contour>
			<point x="371" y="-12" type="curve" smooth="yes"/>
			<point x="599" y="-12"/>
			<point x="731" y="113"/>
			<point x="754" y="458" type="curve" smooth="yes"/>
			<point x="811" y="1318" type="line" smooth="yes"/>
			<point x="812" y="1330"/>
			<point x="813" y="1344"/>
			<point x="813" y="1356" type="curve" smooth="yes"/>
			<point x="813" y="1387"/>
			<point x="801" y="1400"/>
			<point x="772" y="1400" type="curve" smooth="yes"/>
			<point x="748" y="1400"/>
			<point x="730" y="1391"/>
			<point x="727" y="1346" type="curve" smooth="yes"/>
			<point x="672" y="492" type="line" smooth="yes"/>
			<point x="651" y="160"/>
			<point x="555" y="66"/>
			<point x="364" y="66" type="curve" smooth="yes"/>
			<point x="282" y="66"/>
			<point x="205" y="81"/>
			<point x="107" y="133" type="curve" smooth="yes"/>
			<point x="88" y="143"/>
			<point x="80" y="144"/>
			<point x="75" y="144" type="curve" smooth="yes"/>
			<point x="56" y="144"/>
			<point x="40" y="124"/>
			<point x="40" y="104" type="curve" smooth="yes"/>
			<point x="40" y="90"/>
			<point x="51" y="78"/>
			<point x="68" y="68" type="curve" smooth="yes"/>
			<point x="157" y="17"/>
			<point x="271" y="-12"/>
		</contour>
	</outline>
	<anchor name="bottom" x="377" y="0"/>
	<anchor name="top" x="545" y="1400"/>
	<guideline x="897" y="1400" angle="0"/>
	<guideline x="699" y="907" angle="266.2776"/>
</glyph>
<glyph name="U.ss05" format="2">
	<advance width="1259"/>
	<outline>
		<contour>
			<point x="575" y="-12" type="curve" smooth="yes"/>
			<point x="846" y="-12"/>
			<point x="1045" y="152"/>
			<point x="1076" y="563" type="curve" smooth="yes"/>
			<point x="1132" y="1317" type="line" smooth="yes"/>
			<point x="1133" y="1330"/>
			<point x="1134" y="1350"/>
			<point x="1134" y="1358" type="curve" smooth="yes"/>
			<point x="1134" y="1379"/>
			<point x="1128" y="1400"/>
			<point x="1093" y="1400" type="curve" smooth="yes"/>
			<point x="1064" y="1400"/>
			<point x="1052" y="1383"/>
			<point x="1050" y="1356" type="curve" smooth="yes"/>
			<point x="993" y="591" type="line" smooth="yes"/>
			<point x="965" y="215"/>
			<point x="816" y="66"/>
			<point x="585" y="66" type="curve" smooth="yes"/>
			<point x="368" y="66"/>
			<point x="251" y="182"/>
			<point x="251" y="449" type="curve" smooth="yes"/>
			<point x="251" y="531"/>
			<point x="256" y="595"/>
			<point x="264" y="696" type="curve" smooth="yes"/>
			<point x="312" y="1289" type="line" smooth="yes"/>
			<point x="315" y="1322"/>
			<point x="318" y="1355"/>
			<point x="318" y="1364" type="curve" smooth="yes"/>
			<point x="318" y="1387"/>
			<point x="309" y="1400"/>
			<point x="280" y="1400" type="curve" smooth="yes"/>
			<point x="246" y="1400"/>
			<point x="235" y="1383"/>
			<point x="232" y="1345" type="curve" smooth="yes"/>
			<point x="183" y="718" type="line" smooth="yes"/>
			<point x="174" y="603"/>
			<point x="170" y="530"/>
			<point x="170" y="438" type="curve" smooth="yes"/>
			<point x="170" y="147"/>
			<point x="315" y="-12"/>
		</contour>
	</outline>
	<anchor name="bottom" x="490" y="0"/>
	<anchor name="ogonek" x="620" y="0"/>
	<anchor name="top" x="685" y="1400"/>
	<anchor name="topright" x="1148" y="1400"/>
</glyph>
<glyph name="Uogonek.ss05" format="2">
	<advance width="1259"/>
	<outline>
		<contour>
			<point x="582" y="-386" type="curve" smooth="yes"/>
			<point x="655" y="-386"/>
			<point x="710" y="-354"/>
			<point x="750" y="-315" type="curve" smooth="yes"/>
			<point x="768" y="-298"/>
			<point x="772" y="-287"/>
			<point x="772" y="-280" type="curve" smooth="yes"/>
			<point x="772" y="-263"/>
			<point x="758" y="-249"/>
			<point x="745" y="-249" type="curve" smooth="yes"/>
			<point x="735" y="-249"/>
			<point x="728" y="-253"/>
			<point x="711" y="-265" type="curve" smooth="yes"/>
			<point x="674" y="-291"/>
			<point x="634" y="-309"/>
			<point x="597" y="-309" type="curve" smooth="yes"/>
			<point x="554" y="-309"/>
			<point x="528" y="-289"/>
			<point x="528" y="-235" type="curve" smooth="yes"/>
			<point x="528" y="-130"/>
			<point x="601" y="-43"/>
			<point x="763" y="23" type="curve" smooth="yes"/>
			<point x="931" y="92"/>
			<point x="1052" y="235"/>
			<point x="1076" y="563" type="curve" smooth="yes"/>
			<point x="1131" y="1303" type="line" smooth="yes"/>
			<point x="1133" y="1326"/>
			<point x="1134" y="1344"/>
			<point x="1134" y="1357" type="curve" smooth="yes"/>
			<point x="1134" y="1388"/>
			<point x="1120" y="1400"/>
			<point x="1093" y="1400" type="curve" smooth="yes"/>
			<point x="1066" y="1400"/>
			<point x="1052" y="1385"/>
			<point x="1050" y="1356" type="curve" smooth="yes"/>
			<point x="993" y="591" type="line" smooth="yes"/>
			<point x="965" y="216"/>
			<point x="819" y="66"/>
			<point x="593" y="66" type="curve" smooth="yes"/>
			<point x="371" y="66"/>
			<point x="251" y="182"/>
			<point x="251" y="449" type="curve" smooth="yes"/>
			<point x="251" y="531"/>
			<point x="256" y="596"/>
			<point x="264" y="696" type="curve" smooth="yes"/>
			<point x="314" y="1289" type="line" smooth="yes"/>
			<point x="316" y="1314"/>
			<point x="318" y="1339"/>
			<point x="318" y="1364" type="curve" smooth="yes"/>
			<point x="318" y="1387"/>
			<point x="309" y="1400"/>
			<point x="280" y="1400" type="curve" smooth="yes"/>
			<point x="249" y="1400"/>
			<point x="235" y="1387"/>
			<point x="232" y="1345" type="curve" smooth="yes"/>
			<point x="183" y="718" type="line" smooth="yes"/>
			<point x="174" y="598"/>
			<point x="170" y="527"/>
			<point x="170" y="438" type="curve" smooth="yes"/>
			<point x="170" y="143"/>
			<point x="322" y="-12"/>
			<point x="593" y="-12" type="curve"/>
			<point x="602" y="13" type="line"/>
			<point x="477" y="-84"/>
			<point x="448" y="-179"/>
			<point x="448" y="-250" type="curve" smooth="yes"/>
			<point x="448" y="-334"/>
			<point x="509" y="-386"/>
		</contour>
	</outline>
</glyph>
<glyph name=".notdef" format="2">
	<advance width="1434"/>
	<outline>
		<contour>
			<point x="100" y="-195" type="line"/>
			<point x="1334" y="-195" type="line"/>
			<point x="1334" y="1805" type="line"/>
			<point x="100" y="1805" type="line"/>
		</contour>
		<contour>
			<point x="687" y="399" type="curve" smooth="yes"/>
			<point x="552" y="399"/>
			<point x="469" y="482"/>
			<point x="469" y="613" type="curve" smooth="yes"/>
			<point x="469" y="787"/>
			<point x="610" y="904"/>
			<point x="746" y="1016" type="curve" smooth="yes"/>
			<point x="874" y="1122"/>
			<point x="986" y="1215"/>
			<point x="986" y="1350" type="curve" smooth="yes"/>
			<point x="986" y="1468"/>
			<point x="897" y="1543"/>
			<point x="776" y="1543" type="curve" smooth="yes"/>
			<point x="680" y="1543"/>
			<point x="585" y="1509"/>
			<point x="478" y="1422" type="curve" smooth="yes"/>
			<point x="455" y="1403"/>
			<point x="447" y="1397"/>
			<point x="435" y="1397" type="curve" smooth="yes"/>
			<point x="416" y="1397"/>
			<point x="401" y="1412"/>
			<point x="401" y="1431" type="curve" smooth="yes"/>
			<point x="401" y="1445"/>
			<point x="410" y="1460"/>
			<point x="446" y="1490" type="curve" smooth="yes"/>
			<point x="553" y="1580"/>
			<point x="674" y="1621"/>
			<point x="789" y="1621" type="curve" smooth="yes"/>
			<point x="946" y="1621"/>
			<point x="1066" y="1526"/>
			<point x="1066" y="1360" type="curve" smooth="yes"/>
			<point x="1066" y="1178"/>
			<point x="922" y="1056"/>
			<point x="786" y="945" type="curve" smooth="yes"/>
			<point x="663" y="844"/>
			<point x="549" y="755"/>
			<point x="549" y="618" type="curve" smooth="yes"/>
			<point x="549" y="526"/>
			<point x="597" y="473"/>
			<point x="701" y="473" type="curve" smooth="yes"/>
			<point x="782" y="473"/>
			<point x="834" y="511"/>
			<point x="873" y="546" type="curve" smooth="yes"/>
			<point x="890" y="561"/>
			<point x="899" y="567"/>
			<point x="911" y="567" type="curve" smooth="yes"/>
			<point x="925" y="567"/>
			<point x="938" y="557"/>
			<point x="938" y="542" type="curve" smooth="yes"/>
			<point x="938" y="532"/>
			<point x="935" y="518"/>
			<point x="919" y="499" type="curve" smooth="yes"/>
			<point x="870" y="440"/>
			<point x="786" y="399"/>
		</contour>
		<contour>
			<point x="663" y="-12" type="curve" smooth="yes"/>
			<point x="618" y="-12"/>
			<point x="582" y="22"/>
			<point x="582" y="78" type="curve" smooth="yes"/>
			<point x="582" y="134"/>
			<point x="625" y="177"/>
			<point x="674" y="177" type="curve" smooth="yes"/>
			<point x="725" y="177"/>
			<point x="761" y="140"/>
			<point x="761" y="91" type="curve" smooth="yes"/>
			<point x="761" y="35"/>
			<point x="713" y="-12"/>
		</contour>
	</outline>
</glyph>
<glyph name="_part.equal" format="2">
	<advance width="1200"/>
	<outline>
		<contour>
			<point x="195" y="0" type="curve" smooth="yes"/>
			<point x="887" y="0" type="line" smooth="yes"/>
			<point x="926" y="0"/>
			<point x="938" y="19"/>
			<point x="938" y="43" type="curve" smooth="yes"/>
			<point x="938" y="66"/>
			<point x="921" y="75"/>
			<point x="894" y="75" type="curve" smooth="yes"/>
			<point x="201" y="75" type="line" smooth="yes"/>
			<point x="166" y="75"/>
			<point x="152" y="58"/>
			<point x="152" y="36" type="curve" smooth="yes"/>
			<point x="152" y="12"/>
			<point x="167" y="0"/>
		</contour>
	</outline>
</glyph>
<glyph name="_part_Q-tail" format="2">
	<advance width="645"/>
	<outline>
		<contour>
			<point x="549" y="-260" type="curve" smooth="yes"/>
			<point x="576" y="-260"/>
			<point x="595" y="-238"/>
			<point x="595" y="-218" type="curve" smooth="yes"/>
			<point x="595" y="-204"/>
			<point x="590" y="-195"/>
			<point x="569" y="-164" type="curve" smooth="yes"/>
			<point x="132" y="479" type="line" smooth="yes"/>
			<point x="120" y="497"/>
			<point x="114" y="505"/>
			<point x="99" y="505" type="curve" smooth="yes"/>
			<point x="77" y="505"/>
			<point x="50" y="486"/>
			<point x="50" y="463" type="curve" smooth="yes"/>
			<point x="50" y="452"/>
			<point x="58" y="440"/>
			<point x="67" y="427" type="curve" smooth="yes"/>
			<point x="501" y="-216" type="line" smooth="yes"/>
			<point x="523" y="-249"/>
			<point x="535" y="-260"/>
		</contour>
	</outline>
	<anchor name="_Qtail" x="265" y="0"/>
</glyph>
<glyph name="dieresiscomb.case" format="2">
	<outline>
		<contour>
			<point x="128" y="1154" type="curve" smooth="yes"/>
			<point x="181" y="1154"/>
			<point x="221" y="1194"/>
			<point x="221" y="1248" type="curve" smooth="yes"/>
			<point x="221" y="1288"/>
			<point x="187" y="1322"/>
			<point x="146" y="1322" type="curve" smooth="yes"/>
			<point x="92" y="1322"/>
			<point x="52" y="1283"/>
			<point x="52" y="1229" type="curve" smooth="yes"/>
			<point x="52" y="1188"/>
			<point x="86" y="1154"/>
		</contour>
		<contour>
			<point x="513" y="1154" type="curve" smooth="yes"/>
			<point x="566" y="1154"/>
			<point x="606" y="1194"/>
			<point x="606" y="1248" type="curve" smooth="yes"/>
			<point x="606" y="1288"/>
			<point x="572" y="1322"/>
			<point x="531" y="1322" type="curve" smooth="yes"/>
			<point x="477" y="1322"/>
			<point x="437" y="1283"/>
			<point x="437" y="1229" type="curve" smooth="yes"/>
			<point x="437" y="1188"/>
			<point x="471" y="1154"/>
		</contour>
	</outline>
	<anchor name="_top" x="300" y="920"/>
	<anchor name="top" x="338" y="1324"/>
</glyph>
<glyph name="four.osf" format="2">
	<advance width="1139"/>
	<outline>
		<contour>
			<point x="159" y="127" type="curve" smooth="yes"/>
			<point x="212" y="127"/>
			<point x="587" y="130"/>
			<point x="784" y="132" type="curve" smooth="yes"/>
			<point x="910" y="133"/>
			<point x="1000" y="135"/>
			<point x="1024" y="135" type="curve" smooth="yes"/>
			<point x="1059" y="135"/>
			<point x="1069" y="150"/>
			<point x="1069" y="172" type="curve" smooth="yes"/>
			<point x="1069" y="198"/>
			<point x="1054" y="211"/>
			<point x="1023" y="211" type="curve" smooth="yes"/>
			<point x="1002" y="211"/>
			<point x="852" y="208"/>
			<point x="796" y="207" type="curve" smooth="yes"/>
			<point x="155" y="196" type="line"/>
			<point x="169" y="173" type="line"/>
			<point x="299" y="449"/>
			<point x="428" y="746"/>
			<point x="535" y="1030" type="curve" smooth="yes"/>
			<point x="543" y="1051"/>
			<point x="545" y="1062"/>
			<point x="545" y="1068" type="curve" smooth="yes"/>
			<point x="545" y="1092"/>
			<point x="525" y="1105"/>
			<point x="499" y="1105" type="curve" smooth="yes"/>
			<point x="484" y="1105"/>
			<point x="473" y="1095"/>
			<point x="461" y="1063" type="curve" smooth="yes"/>
			<point x="355" y="779"/>
			<point x="231" y="476"/>
			<point x="120" y="242" type="curve" smooth="yes"/>
			<point x="104" y="208"/>
			<point x="100" y="194"/>
			<point x="100" y="177" type="curve" smooth="yes"/>
			<point x="100" y="150"/>
			<point x="122" y="127"/>
		</contour>
		<contour>
			<point x="693" y="-278" type="curve" smooth="yes"/>
			<point x="713" y="4"/>
			<point x="740" y="307"/>
			<point x="760" y="530" type="curve" smooth="yes"/>
			<point x="762" y="552"/>
			<point x="763" y="563"/>
			<point x="763" y="578" type="curve" smooth="yes"/>
			<point x="763" y="598"/>
			<point x="737" y="605"/>
			<point x="715" y="605" type="curve" smooth="yes"/>
			<point x="694" y="605"/>
			<point x="689" y="588"/>
			<point x="684" y="542" type="curve" smooth="yes"/>
			<point x="666" y="377"/>
			<point x="629" y="-64"/>
			<point x="620" y="-213" type="curve" smooth="yes"/>
			<point x="617" y="-259"/>
			<point x="616" y="-280"/>
			<point x="616" y="-290" type="curve" smooth="yes"/>
			<point x="616" y="-318"/>
			<point x="633" y="-326"/>
			<point x="653" y="-326" type="curve" smooth="yes"/>
			<point x="674" y="-326"/>
			<point x="690" y="-320"/>
		</contour>
	</outline>
	<guideline x="653" y="-326" angle="0"/>
</glyph>
<glyph name="isuperior" format="2">
	<advance width="372"/>
	<outline>
		<contour>
			<point x="158" y="795" type="curve" smooth="yes"/>
			<point x="182" y="795"/>
			<point x="198" y="806"/>
			<point x="200" y="833" type="curve" smooth="yes"/>
			<point x="244" y="1480" type="line" smooth="yes"/>
			<point x="245" y="1495"/>
			<point x="246" y="1509"/>
			<point x="246" y="1521" type="curve" smooth="yes"/>
			<point x="246" y="1547"/>
			<point x="235" y="1558"/>
			<point x="208" y="1558" type="curve" smooth="yes"/>
			<point x="184" y="1558"/>
			<point x="169" y="1551"/>
			<point x="166" y="1510" type="curve" smooth="yes"/>
			<point x="121" y="851" type="line" smooth="yes"/>
			<point x="120" y="841"/>
			<point x="120" y="836"/>
			<point x="120" y="830" type="curve" smooth="yes"/>
			<point x="120" y="806"/>
			<point x="133" y="795"/>
		</contour>
		<contour>
			<point x="221" y="1729" type="curve" smooth="yes"/>
			<point x="267" y="1729"/>
			<point x="302" y="1763"/>
			<point x="302" y="1810" type="curve" smooth="yes"/>
			<point x="302" y="1844"/>
			<point x="272" y="1873"/>
			<point x="236" y="1873" type="curve" smooth="yes"/>
			<point x="189" y="1873"/>
			<point x="154" y="1840"/>
			<point x="154" y="1793" type="curve" smooth="yes"/>
			<point x="154" y="1758"/>
			<point x="184" y="1729"/>
		</contour>
	</outline>
</glyph>
<glyph name="manicule_semibold-right" format="2">
	<advance width="5340"/>
	<outline>
		<contour>
			<point x="2774" y="1257" type="curve"/>
			<point x="2582" y="1293"/>
			<point x="2409" y="1366"/>
			<point x="2198" y="1366" type="curve" smooth="yes"/>
			<point x="2087" y="1366"/>
			<point x="2037" y="1345"/>
			<point x="2037" y="1282" type="curve" smooth="yes"/>
			<point x="2037" y="1231"/>
			<point x="2136" y="1212"/>
			<point x="2205" y="1212" type="curve" smooth="yes"/>
			<point x="2482" y="1212"/>
			<point x="2568" y="1130"/>
			<point x="2774" y="1089" type="curve"/>
			<point x="2840" y="1114"/>
			<point x="2910" y="1131"/>
			<point x="2983" y="1131" type="curve" smooth="yes"/>
			<point x="3093" y="1131"/>
			<point x="3244" y="1094"/>
			<point x="3316" y="1075" type="curve" smooth="yes"/>
			<point x="3398" y="1053"/>
			<point x="3438" y="1044"/>
			<point x="3466" y="1041" type="curve" smooth="yes"/>
			<point x="3478" y="1040"/>
			<point x="3491" y="1039"/>
			<point x="3504" y="1039" type="curve" smooth="yes"/>
			<point x="3592" y="1039"/>
			<point x="3695" y="1067"/>
			<point x="3726" y="1084" type="curve" smooth="yes"/>
			<point x="3741" y="1092"/>
			<point x="3756" y="1095"/>
			<point x="3769" y="1095" type="curve" smooth="yes"/>
			<point x="3794" y="1095"/>
			<point x="3814" y="1083"/>
			<point x="3818" y="1066" type="curve" smooth="yes"/>
			<point x="3853" y="922"/>
			<point x="3561" y="879"/>
			<point x="3253" y="879" type="curve" smooth="yes"/>
			<point x="3131" y="879"/>
			<point x="2897" y="947"/>
			<point x="2797" y="984" type="curve"/>
			<point x="2797" y="984"/>
			<point x="2255" y="972"/>
			<point x="2148" y="972" type="curve"/>
			<point x="2028" y="893"/>
			<point x="1837" y="792"/>
			<point x="1672" y="792" type="curve" smooth="yes"/>
			<point x="1410" y="803"/>
			<point x="1246" y="998"/>
			<point x="1376" y="1256" type="curve" smooth="yes"/>
			<point x="1453" y="1409"/>
			<point x="1803" y="1502"/>
			<point x="2100" y="1520" type="curve" smooth="yes"/>
			<point x="2350" y="1535"/>
			<point x="2474" y="1540"/>
			<point x="2583" y="1540" type="curve" smooth="yes"/>
			<point x="2765" y="1540"/>
			<point x="2912" y="1512"/>
			<point x="3120" y="1429" type="curve" smooth="yes"/>
			<point x="3193" y="1400"/>
			<point x="3254" y="1382"/>
			<point x="3283" y="1375" type="curve" smooth="yes"/>
			<point x="3295" y="1372"/>
			<point x="3339" y="1364"/>
			<point x="3525" y="1364" type="curve" smooth="yes"/>
			<point x="3715" y="1364"/>
			<point x="4426" y="1348"/>
			<point x="4559" y="1286" type="curve" smooth="yes"/>
			<point x="4731" y="1206"/>
			<point x="4750" y="1198"/>
			<point x="4829" y="1180" type="curve" smooth="yes"/>
			<point x="4842" y="1177"/>
			<point x="4862" y="1177"/>
			<point x="4884" y="1177" type="curve" smooth="yes"/>
			<point x="4938" y="1177" type="line" smooth="yes"/>
			<point x="4976" y="1177"/>
			<point x="5008" y="1175"/>
			<point x="5011" y="1162" type="curve" smooth="yes"/>
			<point x="5017" y="1135"/>
			<point x="4991" y="1123"/>
			<point x="4917" y="1123" type="curve" smooth="yes"/>
			<point x="4891" y="1123"/>
			<point x="4858" y="1124"/>
			<point x="4819" y="1127" type="curve" smooth="yes"/>
			<point x="4699" y="1136"/>
			<point x="4651" y="1152"/>
			<point x="4467" y="1241" type="curve"/>
			<point x="4345" y="1219"/>
			<point x="4222" y="1198"/>
			<point x="4100" y="1198" type="curve" smooth="yes"/>
			<point x="4066" y="1198"/>
			<point x="4033" y="1200"/>
			<point x="3999" y="1204" type="curve"/>
			<point x="3978" y="1273"/>
			<point x="3921" y="1295"/>
			<point x="3850" y="1295" type="curve" smooth="yes"/>
			<point x="3658" y="1295"/>
			<point x="3583" y="1228"/>
			<point x="3462" y="1228" type="curve" smooth="yes"/>
			<point x="3419" y="1228"/>
			<point x="3370" y="1236"/>
			<point x="3308" y="1259" type="curve" smooth="yes"/>
			<point x="3226" y="1290"/>
			<point x="3104" y="1296"/>
			<point x="2983" y="1296" type="curve" smooth="yes"/>
			<point x="2907" y="1296"/>
			<point x="2840" y="1280"/>
		</contour>
		<contour>
			<point x="3379" y="-223" type="curve" smooth="yes"/>
			<point x="3442" y="-223"/>
			<point x="3450" y="-97"/>
			<point x="3447" y="-50" type="curve" smooth="yes"/>
			<point x="3445" y="-21"/>
			<point x="3411" y="-14"/>
			<point x="3386" y="-14" type="curve" smooth="yes"/>
			<point x="3376" y="-14" type="line"/>
			<point x="3313" y="-19" type="line"/>
			<point x="3338" y="116"/>
			<point x="3417" y="284"/>
			<point x="3500" y="295" type="curve" smooth="yes"/>
			<point x="3524" y="298"/>
			<point x="3558" y="319"/>
			<point x="3563" y="337" type="curve" smooth="yes"/>
			<point x="3578" y="387"/>
			<point x="3556" y="403"/>
			<point x="3538" y="403" type="curve" smooth="yes"/>
			<point x="3512" y="403"/>
			<point x="3508" y="401"/>
			<point x="3494" y="393" type="curve"/>
			<point x="3430" y="467"/>
			<point x="3435" y="619"/>
			<point x="3461" y="623" type="curve" smooth="yes"/>
			<point x="3509" y="630"/>
			<point x="3519" y="635"/>
			<point x="3542" y="653" type="curve"/>
			<point x="3592" y="579"/>
			<point x="3603" y="537"/>
			<point x="3603" y="476" type="curve" smooth="yes"/>
			<point x="3603" y="330"/>
			<point x="3566" y="126"/>
			<point x="3509" y="8" type="curve" smooth="yes"/>
			<point x="3493" y="-26"/>
			<point x="3470" y="-36"/>
			<point x="3470" y="-36" type="curve"/>
			<point x="3470" y="-135"/>
			<point x="3435" y="-293"/>
			<point x="3277" y="-405" type="curve" smooth="yes"/>
			<point x="3197" y="-462"/>
			<point x="3083" y="-458"/>
			<point x="3081" y="-471" type="curve" smooth="yes"/>
			<point x="3075" y="-514"/>
			<point x="3051" y="-554"/>
			<point x="3007" y="-562" type="curve" smooth="yes"/>
			<point x="3003" y="-563"/>
			<point x="2999" y="-563"/>
			<point x="2995" y="-563" type="curve" smooth="yes"/>
			<point x="2843" y="-563"/>
			<point x="3020" y="-223"/>
		</contour>
		<contour>
			<point x="3183" y="344" type="curve" smooth="yes"/>
			<point x="3197" y="325" type="line"/>
			<point x="3141" y="194"/>
			<point x="3124" y="77"/>
			<point x="3124" y="2" type="curve" smooth="yes"/>
			<point x="3124" y="-13"/>
			<point x="3125" y="-26"/>
			<point x="3126" y="-38" type="curve"/>
			<point x="2998" y="-88"/>
			<point x="2902" y="-195"/>
			<point x="2849" y="-307" type="curve"/>
			<point x="2810" y="-310"/>
			<point x="2804" y="-310"/>
			<point x="2767" y="-310" type="curve" smooth="yes"/>
			<point x="2725" y="-310"/>
			<point x="2695" y="-305"/>
			<point x="2640" y="-276" type="curve"/>
			<point x="2666" y="-269"/>
			<point x="2675" y="-268"/>
			<point x="2700" y="-268" type="curve" smooth="yes"/>
			<point x="2739" y="-268" type="line" smooth="yes"/>
			<point x="2804" y="-268"/>
			<point x="2815" y="-242"/>
			<point x="2815" y="-218" type="curve" smooth="yes"/>
			<point x="2815" y="-195"/>
			<point x="2785" y="-157"/>
			<point x="2743" y="-157" type="curve" smooth="yes"/>
			<point x="2679" y="-157"/>
			<point x="2651" y="-168"/>
			<point x="2553" y="-226" type="curve" smooth="yes"/>
			<point x="2545" y="-231"/>
			<point x="2538" y="-232"/>
			<point x="2531" y="-232" type="curve" smooth="yes"/>
			<point x="2503" y="-232"/>
			<point x="2480" y="-203"/>
			<point x="2480" y="-174" type="curve" smooth="yes"/>
			<point x="2480" y="-127"/>
			<point x="2524" y="-34"/>
			<point x="2706" y="-34" type="curve" smooth="yes"/>
			<point x="2777" y="-34"/>
			<point x="2810" y="-42"/>
			<point x="2880" y="-64" type="curve" smooth="yes"/>
			<point x="2890" y="-67"/>
			<point x="2907" y="-70"/>
			<point x="2925" y="-70" type="curve" smooth="yes"/>
			<point x="3059" y="-70"/>
			<point x="3017" y="76"/>
			<point x="2940" y="85" type="curve"/>
			<point x="2986" y="248"/>
			<point x="3051" y="308"/>
			<point x="3114" y="354" type="curve" smooth="yes"/>
			<point x="3124" y="362"/>
			<point x="3033" y="491"/>
			<point x="3038" y="530" type="curve" smooth="yes"/>
			<point x="3040" y="548"/>
			<point x="3084" y="591"/>
			<point x="3086" y="578" type="curve" smooth="yes"/>
			<point x="3093" y="520"/>
			<point x="3164" y="368"/>
		</contour>
		<contour>
			<point x="2689" y="479" type="curve" smooth="yes"/>
			<point x="2689" y="389"/>
			<point x="2710" y="275"/>
			<point x="2750" y="206" type="curve"/>
			<point x="2724" y="181"/>
			<point x="2702" y="143"/>
			<point x="2688" y="87" type="curve"/>
			<point x="2688" y="87"/>
			<point x="2686" y="85"/>
			<point x="2672" y="82" type="curve"/>
			<point x="2672" y="82"/>
			<point x="2673" y="151"/>
			<point x="2732" y="206" type="curve"/>
			<point x="2659" y="318"/>
			<point x="2643" y="401"/>
			<point x="2628" y="486" type="curve"/>
			<point x="2628" y="486"/>
			<point x="2659" y="489"/>
			<point x="2690" y="512" type="curve"/>
			<point x="2687" y="489"/>
			<point x="2689" y="499"/>
		</contour>
		<contour>
			<point x="2750" y="676" type="curve"/>
			<point x="2727" y="648"/>
			<point x="2633" y="606"/>
			<point x="2602" y="597" type="curve" smooth="yes"/>
			<point x="2512" y="570"/>
			<point x="2463" y="570"/>
			<point x="2420" y="570" type="curve" smooth="yes"/>
			<point x="2379" y="570"/>
			<point x="2295" y="578"/>
			<point x="2188" y="591" type="curve"/>
			<point x="2206" y="602"/>
			<point x="2256" y="619"/>
			<point x="2262" y="621" type="curve"/>
			<point x="2262" y="621"/>
			<point x="2298" y="620"/>
			<point x="2317" y="617" type="curve" smooth="yes"/>
			<point x="2338" y="614"/>
			<point x="2374" y="612"/>
			<point x="2415" y="612" type="curve" smooth="yes"/>
			<point x="2556" y="612"/>
			<point x="2683" y="653"/>
		</contour>
		<contour>
			<point x="5190" y="1119" type="curve" smooth="yes"/>
			<point x="5190" y="1223"/>
			<point x="5134" y="1290"/>
			<point x="4989" y="1327" type="curve" smooth="yes"/>
			<point x="4860" y="1360"/>
			<point x="4755" y="1392"/>
			<point x="4637" y="1458" type="curve" smooth="yes"/>
			<point x="4576" y="1492"/>
			<point x="3774" y="1540"/>
			<point x="3543" y="1553" type="curve" smooth="yes"/>
			<point x="3385" y="1562"/>
			<point x="3336" y="1565"/>
			<point x="3287" y="1569" type="curve" smooth="yes"/>
			<point x="3265" y="1571"/>
			<point x="3216" y="1589"/>
			<point x="3154" y="1615" type="curve" smooth="yes"/>
			<point x="3042" y="1662"/>
			<point x="2889" y="1716"/>
			<point x="2765" y="1723" type="curve" smooth="yes"/>
			<point x="2625" y="1731"/>
			<point x="2355" y="1739"/>
			<point x="2107" y="1739" type="curve" smooth="yes"/>
			<point x="1797" y="1739"/>
			<point x="1479" y="1726"/>
			<point x="1358" y="1675" type="curve" smooth="yes"/>
			<point x="1167" y="1594"/>
			<point x="1005" y="1570"/>
			<point x="854" y="1570" type="curve" smooth="yes"/>
			<point x="657" y="1570"/>
			<point x="478" y="1612"/>
			<point x="273" y="1627" type="curve" smooth="yes"/>
			<point x="271" y="1627" type="line" smooth="yes"/>
			<point x="247" y="1627"/>
			<point x="224" y="1597"/>
			<point x="224" y="1572" type="curve" smooth="yes"/>
			<point x="224" y="1540"/>
			<point x="259" y="1238"/>
			<point x="271" y="1180" type="curve"/>
			<point x="241" y="1055"/>
			<point x="142" y="590"/>
			<point x="151" y="476" type="curve" smooth="yes"/>
			<point x="155" y="425"/>
			<point x="169" y="408"/>
			<point x="205" y="408" type="curve" smooth="yes"/>
			<point x="212" y="408"/>
			<point x="220" y="409"/>
			<point x="739" y="480" type="curve"/>
			<point x="1014" y="318"/>
			<point x="1141" y="289"/>
			<point x="1351" y="289" type="curve" smooth="yes"/>
			<point x="1661" y="289"/>
			<point x="1890" y="387"/>
			<point x="2042" y="476" type="curve"/>
			<point x="2166" y="460"/>
			<point x="2453" y="452"/>
			<point x="2453" y="452" type="curve"/>
			<point x="2477" y="365"/>
			<point x="2530" y="258"/>
			<point x="2587" y="189" type="curve"/>
			<point x="2562" y="147"/>
			<point x="2545" y="99"/>
			<point x="2534" y="67" type="curve"/>
			<point x="2375" y="22"/>
			<point x="2261" y="-89"/>
			<point x="2261" y="-210" type="curve" smooth="yes"/>
			<point x="2261" y="-309"/>
			<point x="2318" y="-375"/>
			<point x="2409" y="-375" type="curve" smooth="yes"/>
			<point x="2461" y="-375"/>
			<point x="2489" y="-335"/>
			<point x="2544" y="-326" type="curve"/>
			<point x="2631" y="-373"/>
			<point x="2684" y="-396"/>
			<point x="2762" y="-396" type="curve" smooth="yes"/>
			<point x="2786" y="-396"/>
			<point x="2797" y="-396"/>
			<point x="2817" y="-394" type="curve"/>
			<point x="2801" y="-444"/>
			<point x="2798" y="-464"/>
			<point x="2798" y="-513" type="curve" smooth="yes"/>
			<point x="2798" y="-652"/>
			<point x="2909" y="-716"/>
			<point x="3003" y="-716" type="curve" smooth="yes"/>
			<point x="3108" y="-716"/>
			<point x="3188" y="-617"/>
			<point x="3215" y="-548" type="curve"/>
			<point x="3272" y="-545"/>
			<point x="3350" y="-515"/>
			<point x="3440" y="-441" type="curve" smooth="yes"/>
			<point x="3564" y="-340"/>
			<point x="3657" y="-157"/>
			<point x="3657" y="6" type="curve" smooth="yes"/>
			<point x="3657" y="27"/>
			<point x="3656" y="37"/>
			<point x="3655" y="46" type="curve"/>
			<point x="3708" y="169"/>
			<point x="3760" y="291"/>
			<point x="3760" y="441" type="curve" smooth="yes"/>
			<point x="3760" y="514"/>
			<point x="3753" y="604"/>
			<point x="3697" y="693" type="curve"/>
			<point x="3924" y="772"/>
			<point x="4002" y="882"/>
			<point x="4007" y="998" type="curve"/>
			<point x="4439" y="998" type="line"/>
			<point x="4597" y="926"/>
			<point x="4737" y="893"/>
			<point x="4852" y="893" type="curve" smooth="yes"/>
			<point x="5063" y="893"/>
			<point x="5190" y="994"/>
		</contour>
	</outline>
</glyph>
<glyph name="nine.old" format="2">
	<advance width="1118"/>
	<outline>
		<contour>
			<point x="948" y="932" type="curve"/>
			<point x="905" y="957" type="line"/>
			<point x="817" y="800"/>
			<point x="678" y="715"/>
			<point x="521" y="715" type="curve" smooth="yes"/>
			<point x="310" y="715"/>
			<point x="203" y="867"/>
			<point x="203" y="1099" type="curve" smooth="yes"/>
			<point x="203" y="1353"/>
			<point x="368" y="1542"/>
			<point x="555" y="1542" type="curve" smooth="yes"/>
			<point x="788" y="1542"/>
			<point x="898" y="1339"/>
			<point x="902" y="928" type="curve" smooth="yes"/>
			<point x="890" y="337"/>
			<point x="705" y="66"/>
			<point x="404" y="66" type="curve" smooth="yes"/>
			<point x="314" y="66"/>
			<point x="244" y="87"/>
			<point x="184" y="116" type="curve" smooth="yes"/>
			<point x="170" y="123"/>
			<point x="160" y="125"/>
			<point x="154" y="125" type="curve" smooth="yes"/>
			<point x="139" y="125"/>
			<point x="121" y="99"/>
			<point x="121" y="84" type="curve" smooth="yes"/>
			<point x="121" y="70"/>
			<point x="135" y="52"/>
			<point x="177" y="32" type="curve" smooth="yes"/>
			<point x="236" y="4"/>
			<point x="314" y="-12"/>
			<point x="418" y="-12" type="curve" smooth="yes"/>
			<point x="736" y="-12"/>
			<point x="988" y="290"/>
			<point x="988" y="930" type="curve" smooth="yes"/>
			<point x="988" y="1379"/>
			<point x="848" y="1620"/>
			<point x="564" y="1620" type="curve" smooth="yes"/>
			<point x="313" y="1620"/>
			<point x="120" y="1392"/>
			<point x="120" y="1095" type="curve" smooth="yes"/>
			<point x="120" y="822"/>
			<point x="269" y="639"/>
			<point x="514" y="639" type="curve" smooth="yes"/>
			<point x="695" y="639"/>
			<point x="862" y="751"/>
		</contour>
	</outline>
</glyph>
<glyph name="one.tf" format="2">
	<advance width="1200"/>
	<outline>
		<contour>
			<point x="577" y="55" type="line"/>
			<point x="660" y="57" type="line"/>
			<point x="754" y="1330" type="line" smooth="yes"/>
			<point x="755" y="1343"/>
			<point x="756" y="1359"/>
			<point x="756" y="1371" type="curve" smooth="yes"/>
			<point x="756" y="1391"/>
			<point x="738" y="1410"/>
			<point x="712" y="1410" type="curve" smooth="yes"/>
			<point x="699" y="1410"/>
			<point x="691" y="1408"/>
			<point x="653" y="1384" type="curve" smooth="yes"/>
			<point x="566" y="1329"/>
			<point x="403" y="1231"/>
			<point x="231" y="1137" type="curve" smooth="yes"/>
			<point x="207" y="1124"/>
			<point x="200" y="1114"/>
			<point x="200" y="1100" type="curve" smooth="yes"/>
			<point x="200" y="1078"/>
			<point x="220" y="1057"/>
			<point x="238" y="1057" type="curve" smooth="yes"/>
			<point x="250" y="1057"/>
			<point x="258" y="1060"/>
			<point x="281" y="1072" type="curve" smooth="yes"/>
			<point x="449" y="1161"/>
			<point x="581" y="1237"/>
			<point x="684" y="1300" type="curve"/>
			<point x="671" y="1323" type="line"/>
		</contour>
		<contour>
			<point x="236" y="0" type="curve" smooth="yes"/>
			<point x="998" y="0" type="line" smooth="yes"/>
			<point x="1037" y="0"/>
			<point x="1049" y="19"/>
			<point x="1049" y="43" type="curve" smooth="yes"/>
			<point x="1049" y="70"/>
			<point x="1032" y="80"/>
			<point x="1005" y="80" type="curve" smooth="yes"/>
			<point x="242" y="80" type="line" smooth="yes"/>
			<point x="207" y="80"/>
			<point x="193" y="61"/>
			<point x="193" y="36" type="curve" smooth="yes"/>
			<point x="193" y="12"/>
			<point x="208" y="0"/>
		</contour>
	</outline>
</glyph>
<glyph name="one.tosf" format="2">
	<advance width="1200"/>
	<outline>
		<contour>
			<point x="606" y="46" type="line"/>
			<point x="691" y="46" type="line"/>
			<point x="752" y="1003" type="line" smooth="yes"/>
			<point x="753" y="1018"/>
			<point x="754" y="1036"/>
			<point x="754" y="1048" type="curve" smooth="yes"/>
			<point x="754" y="1073"/>
			<point x="736" y="1090"/>
			<point x="710" y="1090" type="curve" smooth="yes"/>
			<point x="696" y="1090"/>
			<point x="687" y="1087"/>
			<point x="651" y="1061" type="curve" smooth="yes"/>
			<point x="576" y="1007"/>
			<point x="433" y="910"/>
			<point x="288" y="818" type="curve" smooth="yes"/>
			<point x="258" y="799"/>
			<point x="251" y="787"/>
			<point x="251" y="771" type="curve" smooth="yes"/>
			<point x="251" y="753"/>
			<point x="266" y="736"/>
			<point x="287" y="736" type="curve" smooth="yes"/>
			<point x="299" y="736"/>
			<point x="310" y="740"/>
			<point x="335" y="756" type="curve" smooth="yes"/>
			<point x="469" y="840"/>
			<point x="593" y="922"/>
			<point x="685" y="987" type="curve"/>
			<point x="671" y="1013" type="line"/>
		</contour>
		<contour>
			<point x="267" y="0" type="curve" smooth="yes"/>
			<point x="1029" y="0" type="line" smooth="yes"/>
			<point x="1068" y="0"/>
			<point x="1080" y="19"/>
			<point x="1080" y="43" type="curve" smooth="yes"/>
			<point x="1080" y="70"/>
			<point x="1063" y="80"/>
			<point x="1036" y="80" type="curve" smooth="yes"/>
			<point x="273" y="80" type="line" smooth="yes"/>
			<point x="238" y="80"/>
			<point x="224" y="61"/>
			<point x="224" y="36" type="curve" smooth="yes"/>
			<point x="224" y="12"/>
			<point x="239" y="0"/>
		</contour>
	</outline>
</glyph>
<glyph name="q.ss02" format="2">
	<advance width="1040"/>
	<outline>
		<contour>
			<point x="840" y="691" type="curve"/>
			<point x="794" y="739" type="line"/>
			<point x="679" y="350"/>
			<point x="487" y="66"/>
			<point x="355" y="66" type="curve" smooth="yes"/>
			<point x="262" y="66"/>
			<point x="215" y="157"/>
			<point x="215" y="332" type="curve" smooth="yes"/>
			<point x="215" y="654"/>
			<point x="363" y="857"/>
			<point x="557" y="857" type="curve" smooth="yes"/>
			<point x="644" y="857"/>
			<point x="710" y="834"/>
			<point x="803" y="768" type="curve"/>
			<point x="808" y="844" type="line"/>
			<point x="724" y="907"/>
			<point x="639" y="935"/>
			<point x="553" y="935" type="curve" smooth="yes"/>
			<point x="308" y="935"/>
			<point x="130" y="700"/>
			<point x="130" y="328" type="curve" smooth="yes"/>
			<point x="130" y="108"/>
			<point x="204" y="-12"/>
			<point x="333" y="-12" type="curve" smooth="yes"/>
			<point x="513" y="-12"/>
			<point x="700" y="214"/>
		</contour>
		<contour>
			<point x="795" y="881" type="curve" smooth="yes"/>
			<point x="698" y="-609" type="line" smooth="yes"/>
			<point x="697" y="-621"/>
			<point x="697" y="-626"/>
			<point x="697" y="-631" type="curve" smooth="yes"/>
			<point x="697" y="-655"/>
			<point x="713" y="-670"/>
			<point x="734" y="-670" type="curve" smooth="yes"/>
			<point x="744" y="-670"/>
			<point x="755" y="-668"/>
			<point x="785" y="-660" type="curve" smooth="yes"/>
			<point x="824" y="-650"/>
			<point x="915" y="-629"/>
			<point x="995" y="-617" type="curve" smooth="yes"/>
			<point x="1028" y="-612"/>
			<point x="1040" y="-599"/>
			<point x="1040" y="-572" type="curve" smooth="yes"/>
			<point x="1040" y="-550"/>
			<point x="1028" y="-539"/>
			<point x="1000" y="-539" type="curve" smooth="yes"/>
			<point x="966" y="-539"/>
			<point x="870" y="-555"/>
			<point x="785" y="-577" type="curve"/>
			<point x="880" y="859" type="line" smooth="yes"/>
			<point x="881" y="879"/>
			<point x="881" y="882"/>
			<point x="881" y="891" type="curve" smooth="yes"/>
			<point x="881" y="922"/>
			<point x="869" y="935"/>
			<point x="840" y="935" type="curve" smooth="yes"/>
			<point x="816" y="935"/>
			<point x="798" y="926"/>
		</contour>
	</outline>
</glyph>
<glyph name="seven.salt" format="2">
	<advance width="1095"/>
	<outline>
		<contour>
			<point x="295" y="-10" type="curve" smooth="yes"/>
			<point x="318" y="-10"/>
			<point x="327" y="-2"/>
			<point x="338" y="25" type="curve" smooth="yes"/>
			<point x="510" y="454"/>
			<point x="724" y="853"/>
			<point x="1021" y="1251" type="curve" smooth="yes"/>
			<point x="1070" y="1317"/>
			<point x="1070" y="1331"/>
			<point x="1070" y="1349" type="curve" smooth="yes"/>
			<point x="1070" y="1377"/>
			<point x="1051" y="1400"/>
			<point x="1008" y="1400" type="curve" smooth="yes"/>
			<point x="195" y="1400" type="line" smooth="yes"/>
			<point x="158" y="1400"/>
			<point x="140" y="1382"/>
			<point x="140" y="1360" type="curve" smooth="yes"/>
			<point x="140" y="1333"/>
			<point x="164" y="1321"/>
			<point x="198" y="1321" type="curve" smooth="yes"/>
			<point x="1027" y="1321" type="line"/>
			<point x="1004" y="1340" type="line"/>
			<point x="682" y="934"/>
			<point x="445" y="495"/>
			<point x="271" y="85" type="curve" smooth="yes"/>
			<point x="257" y="52"/>
			<point x="253" y="36"/>
			<point x="253" y="25" type="curve" smooth="yes"/>
			<point x="253" y="4"/>
			<point x="274" y="-10"/>
		</contour>
	</outline>
</glyph>
<glyph name="slashcomb.case" format="2">
	<advance width="685"/>
	<outline>
		<contour>
			<point x="87" y="546" type="curve" smooth="yes"/>
			<point x="100" y="546"/>
			<point x="113" y="553"/>
			<point x="135" y="574" type="curve" smooth="yes"/>
			<point x="603" y="1008" type="line" smooth="yes"/>
			<point x="625" y="1028"/>
			<point x="635" y="1039"/>
			<point x="635" y="1051" type="curve" smooth="yes"/>
			<point x="635" y="1066"/>
			<point x="620" y="1091"/>
			<point x="599" y="1091" type="curve" smooth="yes"/>
			<point x="587" y="1091"/>
			<point x="573" y="1084"/>
			<point x="554" y="1066" type="curve" smooth="yes"/>
			<point x="80" y="627" type="line" smooth="yes"/>
			<point x="57" y="606"/>
			<point x="50" y="597"/>
			<point x="50" y="583" type="curve" smooth="yes"/>
			<point x="50" y="561"/>
			<point x="69" y="546"/>
		</contour>
	</outline>
	<anchor name="_center" x="323" y="823"/>
</glyph>
